<svg width="177" height="31" viewBox="0 0 177 31" fill="none" xmlns="http://www.w3.org/2000/svg">
<path d="M14.036 30.976C11.5426 30.976 9.45997 30.8293 7.78797 30.536C6.11597 30.2133 4.75197 29.7 3.69597 28.996C2.6693 28.292 1.89197 27.3533 1.36397 26.18C0.835969 24.9773 0.469302 23.496 0.263969 21.736C0.0879689 19.976 -3.11136e-05 17.8933 -3.11136e-05 15.488C-3.11136e-05 13.0827 0.0879689 11 0.263969 9.24C0.439969 7.48 0.791969 6.01333 1.31997 4.84C1.84797 3.63733 2.6253 2.684 3.65197 1.98C4.70797 1.276 6.07197 0.777333 7.74397 0.483998C9.4453 0.161332 11.5426 -1.19209e-06 14.036 -1.19209e-06C15.004 -1.19209e-06 16.016 0.0439991 17.072 0.132C18.1573 0.190666 19.1986 0.278665 20.196 0.395999C21.1933 0.513333 22.0586 0.659999 22.792 0.835999V7.304C21.5893 7.18667 20.5773 7.09867 19.756 7.04C18.9346 6.98133 18.2453 6.93733 17.688 6.908C17.16 6.87867 16.72 6.864 16.368 6.864C15.048 6.864 13.9626 6.92267 13.112 7.04C12.2906 7.128 11.6306 7.33333 11.132 7.656C10.6626 7.94933 10.3106 8.41867 10.076 9.064C9.87064 9.68 9.73864 10.516 9.67997 11.572C9.6213 12.5987 9.59197 13.904 9.59197 15.488C9.59197 17.072 9.6213 18.392 9.67997 19.448C9.73864 20.4747 9.87064 21.3107 10.076 21.956C10.3106 22.572 10.6626 23.0413 11.132 23.364C11.6306 23.6573 12.2906 23.8627 13.112 23.98C13.9626 24.068 15.048 24.112 16.368 24.112C17.3653 24.112 18.48 24.068 19.712 23.98C20.944 23.892 22.0293 23.7893 22.968 23.672V30.316C22.264 30.4333 21.3986 30.536 20.372 30.624C19.3746 30.7413 18.3186 30.8293 17.204 30.888C16.1186 30.9467 15.0626 30.976 14.036 30.976ZM27.7712 30.624V0.352H51.3552V7.172H37.2752V12.012H49.0232V18.656H37.2752V23.804H51.3552V30.624H27.7712ZM56.6452 30.624V0.352H73.4532C75.5652 0.352 77.2665 0.571999 78.5572 1.012C79.8478 1.42267 80.8305 2.05333 81.5052 2.904C82.1798 3.72533 82.6345 4.752 82.8692 5.984C83.1038 7.216 83.2212 8.65333 83.2212 10.296C83.2212 11.616 83.1185 12.848 82.9132 13.992C82.7372 15.136 82.3705 16.148 81.8132 17.028C81.2558 17.908 80.3905 18.612 79.2172 19.14L83.8372 30.624H73.9812L69.7572 18.48L72.1772 19.756C71.8252 19.9907 71.4732 20.1373 71.1212 20.196C70.7692 20.2253 70.4025 20.24 70.0212 20.24H66.2372V30.624H56.6452ZM66.2372 13.86H69.5372C70.4758 13.86 71.2238 13.816 71.7812 13.728C72.3385 13.64 72.7492 13.4787 73.0132 13.244C73.2772 13.0093 73.4532 12.672 73.5412 12.232C73.6292 11.7627 73.6732 11.1613 73.6732 10.428C73.6732 9.69467 73.6292 9.108 73.5412 8.668C73.4825 8.19867 73.3212 7.84667 73.0572 7.612C72.7932 7.37733 72.3825 7.216 71.8252 7.128C71.2972 7.04 70.5492 6.996 69.5812 6.996H66.2372V13.86ZM94.7382 30.624V7.524H86.2022V0.352H112.866V7.524H104.286V30.624H94.7382Z" fill="#133986"/>
<path d="M131.109 30.976C128.762 30.976 126.767 30.844 125.125 30.58C123.511 30.2867 122.162 29.8173 121.077 29.172C120.021 28.4973 119.185 27.5733 118.569 26.4C117.982 25.2267 117.571 23.7453 117.337 21.956C117.131 20.1667 117.029 18.0107 117.029 15.488C117.029 12.9653 117.146 10.8093 117.381 9.02C117.615 7.23067 118.026 5.74933 118.613 4.576C119.229 3.40267 120.065 2.49333 121.121 1.848C122.177 1.17333 123.511 0.703998 125.125 0.439998C126.767 0.146665 128.747 -1.19209e-06 131.065 -1.19209e-06C132.121 -1.19209e-06 133.265 0.0439991 134.497 0.132C135.758 0.219999 137.005 0.337331 138.237 0.483998C139.469 0.601331 140.583 0.747999 141.581 0.924V4.796C140.495 4.64933 139.425 4.532 138.369 4.444C137.313 4.356 136.345 4.28267 135.465 4.224C134.614 4.16533 133.895 4.136 133.309 4.136C131.402 4.136 129.774 4.18 128.425 4.268C127.105 4.32667 126.019 4.532 125.169 4.884C124.318 5.236 123.658 5.82267 123.189 6.644C122.719 7.436 122.382 8.55067 122.177 9.988C122.001 11.396 121.913 13.2293 121.913 15.488C121.913 17.4827 121.971 19.1693 122.089 20.548C122.235 21.8973 122.485 22.9973 122.837 23.848C123.218 24.6987 123.746 25.344 124.421 25.784C125.125 26.224 126.034 26.532 127.149 26.708C128.263 26.884 129.642 26.972 131.285 26.972C131.901 26.972 132.575 26.9573 133.309 26.928C134.042 26.8987 134.731 26.8693 135.377 26.84C136.051 26.7813 136.594 26.7373 137.005 26.708V17.996H130.229V13.948H141.713V30.052C140.627 30.228 139.439 30.3893 138.149 30.536C136.887 30.6533 135.641 30.756 134.409 30.844C133.177 30.932 132.077 30.976 131.109 30.976ZM162.679 30.976C160.098 30.976 157.957 30.844 156.255 30.58C154.583 30.2867 153.249 29.8173 152.251 29.172C151.283 28.4973 150.565 27.5733 150.095 26.4C149.655 25.2267 149.377 23.7453 149.259 21.956C149.142 20.1667 149.083 18.0107 149.083 15.488C149.083 12.9653 149.142 10.8093 149.259 9.02C149.377 7.23067 149.655 5.74933 150.095 4.576C150.565 3.40267 151.283 2.49333 152.251 1.848C153.249 1.17333 154.583 0.703998 156.255 0.439998C157.957 0.146665 160.098 -1.19209e-06 162.679 -1.19209e-06C165.29 -1.19209e-06 167.431 0.146665 169.103 0.439998C170.805 0.703998 172.139 1.17333 173.107 1.848C174.075 2.49333 174.779 3.40267 175.219 4.576C175.689 5.74933 175.982 7.23067 176.099 9.02C176.246 10.8093 176.319 12.9653 176.319 15.488C176.319 18.0107 176.246 20.1667 176.099 21.956C175.982 23.7453 175.689 25.2267 175.219 26.4C174.779 27.5733 174.075 28.4973 173.107 29.172C172.139 29.8173 170.805 30.2867 169.103 30.58C167.431 30.844 165.29 30.976 162.679 30.976ZM162.679 26.84C164.351 26.84 165.715 26.796 166.771 26.708C167.857 26.62 168.707 26.4 169.323 26.048C169.939 25.6667 170.394 25.08 170.687 24.288C171.01 23.4667 171.201 22.352 171.259 20.944C171.347 19.536 171.391 17.7173 171.391 15.488C171.391 13.2587 171.347 11.44 171.259 10.032C171.201 8.624 171.01 7.524 170.687 6.732C170.394 5.91067 169.939 5.324 169.323 4.972C168.707 4.59067 167.857 4.356 166.771 4.268C165.715 4.18 164.351 4.136 162.679 4.136C161.037 4.136 159.673 4.18 158.587 4.268C157.531 4.356 156.681 4.59067 156.035 4.972C155.419 5.324 154.965 5.91067 154.671 6.732C154.378 7.524 154.187 8.624 154.099 10.032C154.011 11.44 153.967 13.2587 153.967 15.488C153.967 17.7173 154.011 19.536 154.099 20.944C154.187 22.352 154.378 23.4667 154.671 24.288C154.965 25.08 155.419 25.6667 156.035 26.048C156.681 26.4 157.531 26.62 158.587 26.708C159.673 26.796 161.037 26.84 162.679 26.84Z" fill="#155DFC"/>
</svg>
