<svg width="158" height="45" viewBox="0 0 158 45" fill="none" xmlns="http://www.w3.org/2000/svg">
<g clip-path="url(#clip0_49_2151)">
<path d="M0.639648 22.23C0.639648 18.3986 1.68402 15.3772 3.70748 13.0886C5.79622 10.8001 8.40714 9.65576 11.6577 9.65576C12.7021 9.65576 13.6943 9.77148 14.6211 10.0543C15.548 10.2858 16.2399 10.6201 16.7621 11.0315C17.2843 11.4429 17.7542 11.7772 18.1589 12.1758C18.5636 12.5743 18.8508 12.8572 19.0336 13.1529L19.2033 13.5515H19.3208C19.2686 13.0886 19.2033 12.5229 19.2033 11.9572V0.694336H23.903V34.2901H19.4383V32.0015L19.4905 30.4072H19.373C19.3208 30.5229 19.2033 30.69 19.0858 30.87C18.9683 31.05 18.6811 31.4358 18.2764 31.95C17.8717 32.4643 17.3496 32.9272 16.7621 33.3258C16.1877 33.7243 15.4305 34.0715 14.4384 34.4058C13.4462 34.7529 12.4019 34.8686 11.3053 34.8686C8.00245 34.8686 5.39153 33.7243 3.4725 31.3843C1.6318 29.0315 0.639648 26.01 0.639648 22.23ZM5.4568 22.23C5.4568 24.8529 6.09648 26.91 7.37583 28.5172C8.65518 30.06 10.3262 30.8572 12.3627 30.8572C14.3339 30.8572 16.018 30.1115 17.4148 28.6843C18.7464 27.2572 19.4513 25.0843 19.4513 22.1658C19.4513 19.8258 18.8769 17.82 17.6498 16.1615C16.4357 14.4515 14.7517 13.59 12.5455 13.59C10.5742 13.59 8.89016 14.3358 7.49332 15.8786C6.09648 17.4986 5.4568 19.5558 5.4568 22.23Z" fill="#0174C3"/>
<path d="M27.9106 5.38719V0.694336H32.6625V5.37434H27.9106V5.38719ZM27.9629 34.2901V10.1829H32.6625V34.2901H27.9629Z" fill="#0174C3"/>
<path d="M39.8034 38.6357C41.84 39.7157 44.0984 40.2299 46.5266 40.2299C48.8503 40.2299 50.704 39.6642 52.1531 38.5714C53.55 37.4914 54.2941 35.7685 54.2941 33.4285V31.6542L54.3463 30.1114H54.2288C52.7145 32.6185 50.2863 33.8785 46.9835 33.8785C43.6807 33.8785 41.0045 32.7342 39.0332 30.3942C37.062 28.0542 36.0698 25.1357 36.0698 21.5357C36.0698 18 36.9967 15.0814 38.9157 12.8571C40.8348 10.6328 43.4457 9.48853 46.7485 9.48853C47.8451 9.48853 48.8372 9.60424 49.7641 9.83567C50.691 10.0671 51.4482 10.35 51.9703 10.7485C52.4925 11.0957 52.9625 11.4942 53.3672 11.8285C53.7719 12.1628 54.0069 12.4585 54.1244 12.7414L54.3593 13.0885H54.4768C54.4246 12.8571 54.4246 12.6257 54.4246 12.3428V10.1185H58.8893V33.1971C58.8893 35.0871 58.5368 36.7971 57.8449 38.2242C57.153 39.7157 56.2262 40.8471 54.999 41.6571C53.7849 42.5185 52.5056 43.1485 51.1087 43.5471C49.7119 43.9457 48.1453 44.1771 46.5788 44.1771C43.6154 44.1771 40.8348 43.4957 38.2238 42.1714L39.8034 38.6357ZM47.8581 30.0085C49.7772 30.0085 51.3437 29.3785 52.4925 28.0671C53.7066 26.7557 54.2941 24.6342 54.2941 21.7285C54.2941 16.3542 51.9703 13.6157 47.3882 13.6157C45.2994 13.6157 43.6807 14.2971 42.4535 15.7242C41.2917 17.1514 40.7173 19.0928 40.7173 21.5485C40.7173 24.0557 41.3569 26.1128 42.6363 27.6557C43.9156 29.1985 45.6519 30.0085 47.8581 30.0085Z" fill="#0174C3"/>
<path d="M62.7666 5.38719V0.694336H67.5185V5.37434H62.7666V5.38719ZM62.8188 34.2901V10.1829H67.5185V34.2901H62.8188Z" fill="#0174C3"/>
<path d="M70.939 22.23C70.939 18.63 72.153 15.66 74.6465 13.2558C77.0877 10.8515 80.2208 9.65576 84.0458 9.65576C85.8473 9.65576 87.5314 9.93862 89.0327 10.5172C90.547 11.0829 91.6436 11.7129 92.2833 12.2915L93.2101 13.1529L91.0039 16.4058C90.8342 16.2386 90.5339 15.9429 90.1292 15.66C89.7768 15.3129 88.9674 14.9143 87.8055 14.4C86.6437 13.8858 85.4296 13.6543 84.2155 13.6543C81.7743 13.6543 79.7508 14.4515 78.119 16.0586C76.5002 17.6529 75.6778 19.71 75.6778 22.1658C75.6778 24.6215 76.4872 26.6786 78.119 28.3372C79.7378 29.9958 81.8265 30.7929 84.3199 30.7929C85.6515 30.7929 86.9831 30.51 88.2102 29.9958C89.4896 29.4815 90.3512 28.9158 90.9386 28.4015L91.8133 27.6043L93.667 30.9729C93.5496 31.0886 93.4321 31.2043 93.2624 31.3715C93.0926 31.5386 92.688 31.8343 92.1005 32.2843C91.4608 32.7472 90.8211 33.1458 90.1292 33.4286C89.4374 33.7758 88.5105 34.0586 87.4008 34.3415C86.3042 34.6243 85.1424 34.74 83.9153 34.74C80.0902 34.74 76.9571 33.5443 74.5159 31.2043C72.1661 28.9158 70.939 25.8943 70.939 22.23Z" fill="#0174C3"/>
<path d="M94.3716 22.23C94.3716 18.4628 95.5334 15.4285 97.8572 13.0885C100.181 10.7485 103.079 9.60425 106.617 9.60425C109.92 9.60425 112.531 10.6842 114.384 12.8057C116.238 14.9142 117.165 17.6014 117.165 20.9185L117.047 22.9242H99.254C99.3715 25.4314 100.246 27.4371 101.865 28.8128C103.431 30.1885 105.403 30.87 107.661 30.87C108.941 30.87 110.155 30.6385 111.369 30.1885C112.583 29.7257 113.457 29.2757 114.032 28.8128L114.906 28.1314L116.826 31.5C116.591 31.7314 116.186 32.0657 115.664 32.4771C115.141 32.8885 114.097 33.39 112.413 34.02C110.794 34.65 109.11 34.9971 107.361 34.9971C103.536 34.9971 100.455 33.8014 98.0269 31.3971C95.5987 28.8643 94.3716 25.83 94.3716 22.23ZM99.3715 19.44H112.426C112.374 17.4342 111.786 15.9042 110.69 14.8757C109.593 13.8471 108.196 13.3328 106.578 13.3328C104.724 13.3328 103.157 13.8471 101.878 14.9271C100.468 16.0071 99.6587 17.4985 99.3715 19.44Z" fill="#0174C3"/>
<path d="M120.533 34.2901V10.1829H125.063V14.3486L124.946 16.1743H125.063C125.638 14.3486 126.63 12.8058 127.961 11.6615C129.358 10.4658 130.925 9.88721 132.778 9.88721L133.993 10.0029V14.5672C133.588 14.4515 133.118 14.4515 132.661 14.4515C131.147 14.4515 129.763 14.9658 128.483 15.9943C127.204 17.0229 126.343 18.3986 125.755 20.1086C125.35 21.3686 125.181 22.7958 125.181 24.4543V34.2772L120.533 34.2901Z" fill="#0174C3"/>
<path d="M140.024 25.4956V14.2456H136.838V10.5299H140.141V3.56128H144.671V10.5299H150.585V14.2456H144.671V24.9299C144.671 25.8427 144.789 26.6399 145.076 27.3341C145.311 28.0156 145.65 28.5299 146.003 28.9284C146.355 29.327 146.812 29.6099 147.282 29.8413C147.804 30.0727 148.209 30.1884 148.614 30.2399C149.018 30.2913 149.423 30.3556 149.828 30.3556L150.924 30.2399V34.3541C150.454 34.4056 149.932 34.4699 149.306 34.4699C148.548 34.4699 147.791 34.4184 147.099 34.3541C146.407 34.2384 145.585 34.007 144.658 33.6727C143.731 33.2741 142.974 32.8113 142.334 32.1813C141.695 31.5513 141.12 30.6899 140.65 29.5584C140.259 28.3499 140.024 26.9741 140.024 25.4956Z" fill="#0174C3"/>
<path d="M153.653 0.642822C151.682 0.642822 150.115 2.18568 150.115 4.12711C150.115 6.06854 151.682 7.61139 153.653 7.61139C155.624 7.61139 157.191 6.06854 157.191 4.12711C157.191 2.18568 155.624 0.642822 153.653 0.642822ZM153.653 6.92997C152.086 6.92997 150.807 5.66997 150.807 4.12711C150.807 2.58425 152.086 1.32425 153.653 1.32425C155.22 1.32425 156.499 2.58425 156.499 4.12711C156.499 5.66997 155.22 6.92997 153.653 6.92997Z" fill="#0174C3"/>
<path d="M152.438 6.01722V2.18579H153.653C154.005 2.18579 154.227 2.23722 154.41 2.30151C154.592 2.36579 154.762 2.53293 154.88 2.70008C154.997 2.86722 155.049 3.09865 155.049 3.33008C155.049 3.56151 154.997 3.79293 154.88 3.96008C154.762 4.12722 154.592 4.30722 154.358 4.35865C154.41 4.41008 154.41 4.47436 154.475 4.52579L155.284 6.01722H154.645L153.835 4.47436H153.026V6.01722C153.013 6.01722 152.438 6.01722 152.438 6.01722ZM152.961 4.01151H153.77C154.005 4.01151 154.175 3.96008 154.292 3.84436C154.41 3.72865 154.462 3.56151 154.462 3.33008C154.462 3.04722 154.344 2.86722 154.175 2.76436C154.057 2.71293 153.888 2.64865 153.653 2.64865H153.013L152.961 4.01151Z" fill="#0174C3"/>
</g>
<defs>
<clipPath id="clip0_49_2151">
<rect width="158" height="45" fill="white"/>
</clipPath>
</defs>
</svg>
