<svg width="213" height="56" viewBox="0 0 213 56" fill="none" xmlns="http://www.w3.org/2000/svg">
<path d="M70.0656 30.6881C67.0387 30.6881 64.3482 30.1281 62.2182 28.8961C60.0882 27.7761 58.4066 26.0961 57.2856 23.9681C56.1645 21.8401 55.604 19.3761 55.604 16.4641C55.604 13.5521 56.1645 10.9761 57.3977 8.62405C58.743 6.38405 60.5366 4.59205 62.7787 3.36005C65.0208 2.01605 67.5993 1.45605 70.4019 1.45605C74.1014 1.45605 77.2403 2.35205 79.7066 4.25605L78.2493 6.83205C76.0072 5.26405 73.4287 4.48005 70.514 4.48005C68.384 4.48005 66.4782 5.04005 64.7966 6.04805C63.1151 7.05605 61.8819 8.51205 60.9851 10.3041C60.0882 12.0961 59.6398 14.1121 59.6398 16.3521C59.6398 19.7121 60.5366 22.5121 62.3303 24.5281C64.124 26.5441 66.8145 27.5521 70.2898 27.5521C72.644 27.5521 74.6619 27.2161 76.4556 26.5441V18.4801H69.2808V15.3441H80.1551V28.6721C77.1282 30.0161 73.7651 30.6881 70.0656 30.6881Z" fill="#616C74"/>
<path d="M93.832 30.6881C90.6931 30.6881 88.1147 29.7921 86.2089 27.8881C84.3031 25.9841 83.4062 23.5201 83.4062 20.3841C83.4062 17.3601 84.3031 14.7841 86.0968 12.7681C87.8905 10.7521 90.2447 9.74414 93.2715 9.74414C95.1773 9.74414 96.7468 10.1921 98.092 11.0881C99.4373 11.9841 100.446 13.1041 101.007 14.6721C101.679 16.1281 102.016 17.9201 102.016 19.8241C102.016 20.0481 102.016 20.3841 101.904 20.8321H87.2178C87.2178 23.0721 87.8905 24.7521 89.1236 25.9841C90.3568 27.2161 92.0384 27.7761 94.0562 27.7761C96.4105 27.7761 98.5405 26.9921 100.446 25.5361L101.567 28.2241C99.3252 29.9041 96.8589 30.6881 93.832 30.6881ZM87.3299 18.3681H98.7647C98.6526 16.5761 98.092 15.1201 97.1952 14.1121C96.2984 13.1041 95.0652 12.6561 93.4957 12.6561C91.8141 12.6561 90.4689 13.2161 89.3478 14.2241C88.2268 15.1201 87.5541 16.5761 87.3299 18.3681Z" fill="#616C74"/>
<path d="M114.683 30.6881C111.432 30.6881 108.966 29.6801 107.06 27.7761C105.266 25.8721 104.37 23.2961 104.37 20.2721C104.37 17.1361 105.266 14.5601 107.172 12.6561C108.966 10.7521 111.544 9.74414 114.795 9.74414C118.046 9.74414 120.513 10.7521 122.306 12.6561C124.1 14.5601 124.997 17.1361 124.997 20.2721C124.997 23.4081 124.1 25.8721 122.306 27.7761C120.401 29.6801 117.822 30.6881 114.683 30.6881ZM114.683 27.7761C116.813 27.7761 118.383 27.1041 119.504 25.7601C120.625 24.4161 121.185 22.6241 121.185 20.2721C121.185 17.9201 120.625 16.1281 119.504 14.7841C118.383 13.4401 116.813 12.6561 114.683 12.6561C112.553 12.6561 110.984 13.3281 109.863 14.7841C108.742 16.1281 108.181 18.0321 108.181 20.2721C108.181 22.5121 108.742 24.3041 109.863 25.7601C110.872 27.1041 112.553 27.7761 114.683 27.7761Z" fill="#616C74"/>
<path d="M131.387 30.2401V5.04005H122.307V1.90405H144.279V5.04005H135.199V30.2401H131.387Z" fill="#616C74"/>
<path d="M144.167 30.24V15.232C144.167 14.784 144.167 14.112 144.055 13.328C144.055 12.544 143.943 11.76 143.943 11.2L143.831 10.304H147.643V13.44C148.876 11.088 150.669 9.85596 153.024 9.85596C153.808 9.85596 154.481 9.96796 155.042 10.08V13.216C154.257 12.992 153.584 12.88 152.799 12.88C151.23 12.88 149.997 13.44 149.1 14.448C148.203 15.456 147.643 17.024 147.643 19.04V30.24H144.167Z" fill="#616C74"/>
<path d="M165.355 30.6881C162.776 30.6881 160.871 29.9041 159.525 28.4481C158.292 26.9921 157.62 24.9761 157.62 22.5121V10.1921H161.207V22.5121C161.207 24.1921 161.655 25.5361 162.44 26.4321C163.225 27.3281 164.458 27.7761 165.915 27.7761C167.709 27.7761 169.054 27.3281 170.063 26.3201C171.072 25.3121 171.521 24.0801 171.521 22.4001V10.3041H175.108V25.3121C175.108 27.1041 175.22 28.7841 175.332 30.2401H171.633L171.521 26.9921C170.96 28.0001 170.175 28.8961 169.166 29.5681C168.158 30.3521 166.812 30.6881 165.355 30.6881Z" fill="#616C74"/>
<path d="M185.87 30.6881C184.189 30.6881 182.619 30.4641 181.274 29.9041C179.929 29.3441 178.92 28.7841 178.247 28.2241L179.256 25.5361C180.041 26.0961 180.938 26.5441 182.059 26.9921C183.18 27.4401 184.413 27.6641 185.534 27.6641C188.224 27.6641 189.57 26.6561 189.57 24.7521C189.57 23.9681 189.233 23.2961 188.673 22.9601C188.112 22.5121 186.879 22.0641 185.198 21.5041L183.516 20.9441C182.843 20.7201 182.283 20.4961 181.834 20.2721C181.386 20.0481 180.938 19.8241 180.489 19.4881C180.041 19.1521 179.592 18.8161 179.368 18.4801C179.032 18.1441 178.808 17.6961 178.695 17.1361C178.471 16.5761 178.471 16.0161 178.471 15.3441C178.471 14.4481 178.695 13.5521 179.032 12.7681C179.48 11.9841 179.929 11.4241 180.713 11.0881C181.386 10.6401 182.171 10.3041 182.955 10.0801C183.74 9.85614 184.637 9.74414 185.646 9.74414C188.337 9.74414 190.467 10.3041 192.372 11.4241L191.363 14.0001C189.57 13.1041 187.888 12.5441 186.094 12.5441C184.861 12.5441 183.852 12.7681 183.068 13.2161C182.395 13.6641 182.059 14.3361 182.059 15.1201C182.059 15.7921 182.283 16.3521 182.731 16.6881C183.18 17.0241 183.964 17.4721 185.31 17.9201C186.431 18.2561 187.103 18.4801 187.328 18.5921C188.112 18.9281 188.785 19.1521 189.345 19.3761C189.794 19.6001 190.354 19.8241 190.915 20.1601C191.475 20.4961 191.924 20.8321 192.26 21.2801C192.597 21.6161 192.821 22.1761 193.045 22.7361C193.269 23.2961 193.381 23.9681 193.381 24.6401C193.381 25.7601 193.157 26.6561 192.821 27.4401C192.372 28.2241 191.924 28.8961 191.139 29.3441C190.467 29.7921 189.682 30.1281 188.897 30.3521C187.552 30.5761 186.767 30.6881 185.87 30.6881Z" fill="#616C74"/>
<path d="M206.61 30.24H204.928C202.126 30.24 200.108 29.68 199.099 28.672C198.09 27.664 197.529 25.872 197.529 23.296V12.656H193.718V10.304H197.641V5.15204L201.117 4.14404V10.304H206.498V12.656H201.117V23.52C201.117 24.192 201.117 24.864 201.229 25.2C201.341 25.648 201.453 25.984 201.677 26.32C201.901 26.656 202.238 26.88 202.686 26.992C203.135 27.104 203.695 27.216 204.256 27.328C204.816 27.44 205.601 27.44 206.61 27.44V30.24Z" fill="#616C74"/>
<path fill-rule="evenodd" clip-rule="evenodd" d="M19.6183 10.5281C23.542 7.84006 27.802 6.83206 31.2772 7.28006V1.00806H1.56934V31.0241H11.7709C11.6588 30.8001 11.5467 30.5761 11.4346 30.3521C8.51986 24.4161 12.2193 15.5681 19.6183 10.5281Z" fill="#2E74BC"/>
<path fill-rule="evenodd" clip-rule="evenodd" d="M31.1651 10.6401C23.3177 10.6401 16.9277 17.0241 16.9277 24.8641C16.9277 25.7601 17.0398 26.6561 17.1519 27.4401C17.4883 29.0081 18.273 29.4561 19.0577 29.7921C19.394 29.9041 19.7304 30.0161 19.9546 30.0161C21.4119 30.1281 22.9814 29.7921 24.5509 28.7841C26.5688 27.5521 28.0262 25.5361 28.8109 23.1841C26.3446 23.5201 23.8783 23.8561 21.5241 24.3041V19.8241L37.5551 18.7041L37.443 33.7121L32.6225 34.0481C32.6225 33.9361 32.6225 33.7121 32.7346 33.6001C32.9588 32.3681 33.0709 31.0241 33.183 29.7921C33.2951 29.0081 33.2951 28.3361 33.4072 27.5521C32.8467 28.3361 32.0619 29.1201 31.2772 29.7921C30.6046 30.4641 29.8198 31.0241 28.923 31.5841C28.4746 31.9201 27.914 32.1441 27.3535 32.4801C26.2325 33.0401 25.1114 33.3761 23.9904 33.7121C23.0935 33.9361 21.524 34.0481 20.1788 34.0481C22.7572 37.0721 26.6809 38.9761 30.9409 38.9761C38.7883 38.9761 45.1783 32.5921 45.1783 24.7521C45.4025 17.0241 39.0125 10.6401 31.1651 10.6401Z" fill="#E1763D"/>
<path d="M210.085 27.552C209.3 27.552 208.74 28.112 208.74 28.896C208.74 29.68 209.3 30.24 210.085 30.24C210.87 30.24 211.43 29.68 211.43 28.896C211.43 28.112 210.87 27.552 210.085 27.552ZM210.085 30.016C209.524 30.016 208.964 29.568 208.964 28.896C208.964 28.336 209.412 27.776 210.085 27.776C210.646 27.776 211.206 28.224 211.206 28.896C211.206 29.456 210.646 30.016 210.085 30.016Z" fill="#616C74"/>
<path d="M209.637 29.6801V28.2241H210.085C210.197 28.2241 210.309 28.2241 210.421 28.2241C210.534 28.2241 210.534 28.3361 210.646 28.3361C210.646 28.4481 210.758 28.4481 210.758 28.5601C210.758 28.6721 210.758 28.7841 210.646 28.7841C210.646 28.8961 210.534 28.8961 210.421 28.8961C210.421 28.8961 210.421 28.8961 210.421 29.0081L210.758 29.5681H210.534L210.197 29.0081H209.861V29.5681H209.637V29.6801ZM209.861 28.8961H210.197C210.309 28.8961 210.309 28.8961 210.421 28.7841C210.421 28.7841 210.534 28.6721 210.534 28.5601C210.534 28.4481 210.534 28.3361 210.421 28.3361C210.421 28.3361 210.309 28.3361 210.197 28.3361H209.973V28.8961H209.861Z" fill="#616C74"/>
<path d="M160.198 46.928C160.198 45.696 160.535 44.688 161.207 43.904C161.88 43.12 162.777 42.784 163.786 42.784C164.122 42.784 164.458 42.784 164.795 42.896C165.131 43.008 165.355 43.12 165.467 43.232C165.691 43.344 165.804 43.456 165.916 43.568C166.028 43.68 166.14 43.792 166.14 43.904L166.252 44.016C166.252 43.904 166.252 43.68 166.252 43.456V39.76H167.821V50.96H166.364V50.176V49.616C166.364 49.616 166.364 49.728 166.252 49.728C166.252 49.84 166.14 49.952 166.028 50.064C165.916 50.288 165.691 50.4 165.579 50.512C165.355 50.624 165.131 50.736 164.795 50.848C164.458 50.96 164.122 50.96 163.786 50.96C162.665 50.96 161.88 50.624 161.207 49.84C160.422 49.168 160.198 48.16 160.198 46.928ZM161.768 46.928C161.768 47.824 161.992 48.496 162.44 49.056C162.889 49.616 163.449 49.84 164.122 49.84C164.795 49.84 165.355 49.616 165.804 49.168C166.252 48.72 166.476 47.936 166.476 47.04C166.476 46.256 166.252 45.584 165.916 45.024C165.467 44.464 164.907 44.128 164.234 44.128C163.561 44.128 163.001 44.352 162.552 44.912C161.992 45.36 161.768 46.032 161.768 46.928Z" fill="#2E74BC"/>
<path d="M169.055 41.328V39.76H170.624V41.328H169.055ZM169.055 50.96V42.896H170.624V50.96H169.055Z" fill="#2E74BC"/>
<path d="M172.978 52.4159C173.651 52.7519 174.324 52.9759 175.22 52.9759C176.005 52.9759 176.566 52.7519 177.014 52.4159C177.462 52.0799 177.687 51.5199 177.687 50.7359V50.1759V49.6159C177.238 50.3999 176.454 50.8479 175.332 50.8479C174.211 50.8479 173.427 50.5119 172.754 49.7279C172.081 48.9439 171.745 47.9359 171.745 46.8159C171.745 45.5839 172.081 44.6879 172.642 43.9039C173.315 43.1199 174.099 42.7839 175.22 42.7839C175.557 42.7839 175.893 42.7839 176.229 42.8959C176.566 43.0079 176.79 43.1199 177.014 43.2319C177.238 43.3439 177.35 43.4559 177.462 43.5679C177.575 43.6799 177.687 43.7919 177.687 43.9039L177.799 44.0159C177.799 43.9039 177.799 43.9039 177.799 43.7919V43.0079H179.256V50.7359C179.256 51.4079 179.144 51.9679 178.92 52.4159C178.696 52.8639 178.359 53.3119 178.023 53.5359C177.687 53.7599 177.238 53.9839 176.79 54.2079C176.341 54.3199 175.781 54.4319 175.332 54.4319C174.324 54.4319 173.427 54.2079 172.642 53.7599L172.978 52.4159ZM175.669 49.5039C176.341 49.5039 176.79 49.2799 177.238 48.8319C177.687 48.3839 177.799 47.7119 177.799 46.7039C177.799 44.9119 177.014 44.0159 175.557 44.0159C174.884 44.0159 174.324 44.2399 173.987 44.6879C173.651 45.1359 173.427 45.8079 173.427 46.5919C173.427 47.4879 173.651 48.1599 174.099 48.6079C174.324 49.2799 174.884 49.5039 175.669 49.5039Z" fill="#2E74BC"/>
<path d="M180.489 41.328V39.76H182.059V41.328H180.489ZM180.489 50.96V42.896H182.059V50.96H180.489Z" fill="#2E74BC"/>
<path d="M183.18 46.9281C183.18 45.6961 183.628 44.6881 184.413 43.9041C185.198 43.1201 186.207 42.6721 187.44 42.6721C188 42.6721 188.561 42.7841 189.121 43.0081C189.57 43.2321 190.018 43.4561 190.242 43.5681L190.579 43.9041L189.794 45.0241C189.682 44.9121 189.682 44.9121 189.57 44.8001C189.458 44.6881 189.233 44.5761 188.785 44.3521C188.449 44.1281 188 44.1281 187.552 44.1281C186.767 44.1281 186.094 44.3521 185.534 44.9121C184.973 45.4721 184.749 46.1441 184.749 46.9281C184.749 47.7121 184.973 48.3841 185.534 48.9441C186.094 49.5041 186.767 49.7281 187.552 49.7281C188 49.7281 188.449 49.6161 188.785 49.5041C189.233 49.2801 189.458 49.1681 189.682 48.9441L190.018 48.7201L190.691 49.8401L190.579 49.9521C190.467 50.0641 190.354 50.0641 190.242 50.2881C190.018 50.4001 189.794 50.5121 189.57 50.6241C189.345 50.7361 189.009 50.8481 188.673 50.9601C188.337 51.0721 187.888 51.0721 187.552 51.0721C186.319 51.0721 185.31 50.6241 184.413 49.8401C183.628 49.1681 183.18 48.1601 183.18 46.9281Z" fill="#2E74BC"/>
<path d="M190.915 46.9279C190.915 45.6959 191.251 44.6879 192.036 43.9039C192.821 43.1199 193.718 42.7839 194.951 42.7839C196.072 42.7839 196.857 43.1199 197.529 43.7919C198.09 44.4639 198.426 45.3599 198.426 46.4799V47.1519H192.597C192.597 48.0479 192.933 48.6079 193.493 49.0559C194.054 49.5039 194.615 49.7279 195.399 49.7279C195.848 49.7279 196.184 49.6159 196.632 49.5039C197.081 49.3919 197.305 49.1679 197.529 49.0559L197.866 48.8319L198.538 49.9519C198.426 50.0639 198.314 50.1759 198.202 50.2879C197.978 50.3999 197.641 50.6239 197.193 50.8479C196.632 51.0719 196.072 51.1839 195.511 51.1839C194.278 51.1839 193.269 50.7359 192.485 49.9519C191.251 49.0559 190.915 48.1599 190.915 46.9279ZM192.485 45.9199H196.745C196.745 45.2479 196.52 44.7999 196.184 44.3519C195.848 44.0159 195.399 43.7919 194.839 43.7919C194.278 43.7919 193.718 44.0159 193.269 44.3519C192.933 44.7999 192.597 45.3599 192.485 45.9199Z" fill="#2E74BC"/>
<path d="M199.435 50.9599V42.8959H200.892V44.2399V44.7999C201.117 44.2399 201.453 43.6799 201.901 43.3439C202.35 43.0079 202.91 42.7839 203.471 42.7839H203.919V44.3519C203.807 44.3519 203.583 44.3519 203.471 44.3519C203.022 44.3519 202.574 44.5759 202.126 44.9119C201.677 45.2479 201.453 45.6959 201.229 46.2559C201.117 46.7039 201.005 47.1519 201.005 47.7119V50.9599H199.435Z" fill="#2E74BC"/>
<path d="M205.825 47.936V44.24H204.816V43.008H205.937V40.656H207.394V43.008H209.3V44.24H207.394V47.824C207.394 48.16 207.394 48.384 207.506 48.608C207.619 48.832 207.731 49.056 207.843 49.168C207.955 49.28 208.067 49.392 208.291 49.504C208.403 49.616 208.627 49.616 208.74 49.616C208.852 49.616 208.964 49.616 209.188 49.616H209.524V50.96C209.412 50.96 209.188 50.96 208.964 50.96C208.74 50.96 208.515 50.96 208.179 50.96C207.955 50.96 207.731 50.848 207.394 50.736C207.058 50.624 206.834 50.4 206.61 50.288C206.385 50.064 206.161 49.84 206.049 49.392C205.937 48.944 205.825 48.496 205.825 47.936Z" fill="#2E74BC"/>
<path d="M210.31 39.76C209.637 39.76 209.188 40.32 209.188 40.88C209.188 41.552 209.749 42 210.31 42C210.982 42 211.431 41.44 211.431 40.88C211.431 40.208 210.982 39.76 210.31 39.76ZM210.31 41.776C209.749 41.776 209.413 41.328 209.413 40.88C209.413 40.32 209.861 39.984 210.31 39.984C210.87 39.984 211.206 40.432 211.206 40.88C211.206 41.44 210.87 41.776 210.31 41.776Z" fill="#2E74BC"/>
<path d="M209.973 41.5521V40.3201H210.422C210.534 40.3201 210.646 40.3201 210.646 40.3201C210.758 40.3201 210.758 40.4321 210.758 40.4321C210.758 40.5441 210.87 40.5441 210.87 40.6561C210.87 40.7681 210.87 40.7681 210.758 40.8801C210.758 40.9921 210.646 40.9921 210.646 40.9921C210.646 40.9921 210.646 40.9921 210.646 41.1041L210.87 41.5521H210.646L210.422 40.9921H210.197V41.5521H209.973ZM210.085 40.8801H210.309C210.422 40.8801 210.422 40.8801 210.422 40.7681C210.422 40.7681 210.534 40.6561 210.534 40.5441C210.534 40.4321 210.534 40.4321 210.422 40.3201C210.422 40.3201 210.309 40.3201 210.197 40.3201H209.973V40.8801H210.085Z" fill="#2E74BC"/>
<path d="M86.9936 47.1521C86.9936 48.3841 86.7694 49.2801 86.2089 50.0641C85.6483 50.8481 84.8636 51.1841 83.9668 51.1841C82.9578 51.1841 82.2852 50.8481 81.7247 50.2881V54.0961H80.3794V43.1201H81.6126L81.7247 44.0161C82.2852 43.3441 83.0699 43.0081 83.9668 43.0081C84.8636 43.0081 85.6483 43.3441 86.2089 44.1281C86.7694 44.8001 86.9936 45.8081 86.9936 47.1521ZM85.5362 46.9281C85.5362 46.0321 85.312 45.3601 84.9757 44.8001C84.6394 44.2401 84.0789 44.0161 83.4062 44.0161C82.6215 44.0161 81.9489 44.3521 81.6126 45.1361V48.9441C82.061 49.6161 82.6215 50.0641 83.5183 50.0641C84.191 50.0641 84.6394 49.8401 85.0878 49.2801C85.4241 48.7201 85.5362 47.9361 85.5362 46.9281Z" fill="#727E84"/>
<path d="M88.2266 46.928C88.2266 46.144 88.3387 45.472 88.675 44.8C89.0113 44.128 89.3476 43.68 89.9081 43.344C90.4687 43.008 91.0292 42.896 91.8139 42.896C92.935 42.896 93.7197 43.232 94.3924 44.016C95.065 44.8 95.4013 45.696 95.4013 47.04V47.152C95.4013 47.936 95.2892 48.608 94.9529 49.168C94.6166 49.728 94.2802 50.288 93.7197 50.624C93.1592 50.96 92.4866 51.184 91.8139 51.184C90.6929 51.184 89.9081 50.848 89.2355 50.064C88.5629 49.28 88.2266 48.272 88.2266 46.928ZM89.5718 47.152C89.5718 48.048 89.796 48.72 90.1324 49.28C90.5808 49.84 91.0292 50.064 91.8139 50.064C92.4866 50.064 93.0471 49.84 93.4955 49.28C93.9439 48.72 94.056 47.936 94.056 47.04C94.056 46.144 93.8318 45.472 93.3834 44.912C92.935 44.352 92.3745 44.128 91.7018 44.128C91.0292 44.128 90.4687 44.352 90.1324 44.912C89.796 45.472 89.5718 46.144 89.5718 47.152Z" fill="#727E84"/>
<path d="M104.034 49.1679L105.603 43.1199H106.949L104.594 50.9599H103.473L101.567 45.0239L99.7738 50.9599H98.6527L96.4106 43.1199H97.7559L99.3254 49.0559L101.119 43.1199H102.24L104.034 49.1679Z" fill="#727E84"/>
<path d="M111.433 51.072C110.312 51.072 109.527 50.736 108.854 50.064C108.182 49.392 107.845 48.384 107.845 47.264V47.04C107.845 46.256 107.957 45.584 108.294 44.912C108.63 44.352 108.966 43.792 109.527 43.456C110.087 43.12 110.648 42.896 111.32 42.896C112.329 42.896 113.114 43.232 113.675 43.904C114.235 44.576 114.572 45.584 114.572 46.816V47.376H109.19C109.19 48.16 109.415 48.832 109.863 49.28C110.312 49.728 110.872 49.952 111.545 49.952C111.993 49.952 112.442 49.84 112.778 49.616C113.114 49.392 113.45 49.168 113.675 48.832L114.459 49.504C113.787 50.624 112.778 51.072 111.433 51.072ZM111.32 44.016C110.76 44.016 110.312 44.24 109.975 44.576C109.639 45.024 109.415 45.472 109.303 46.256H113.226V46.144C113.226 45.472 113.002 44.912 112.666 44.576C112.329 44.24 111.881 44.016 111.32 44.016Z" fill="#727E84"/>
<path d="M119.84 44.2401C119.616 44.2401 119.392 44.2401 119.168 44.2401C118.271 44.2401 117.71 44.5761 117.374 45.3601V50.9601H116.029V43.1201H117.374V44.0161C117.822 43.3441 118.495 43.0081 119.28 43.0081C119.504 43.0081 119.728 43.0081 119.84 43.1201V44.2401Z" fill="#727E84"/>
<path d="M124.212 51.072C123.091 51.072 122.307 50.736 121.634 50.064C120.961 49.392 120.625 48.384 120.625 47.264V47.04C120.625 46.256 120.737 45.584 121.073 44.912C121.41 44.352 121.746 43.792 122.307 43.456C122.867 43.12 123.428 42.896 124.1 42.896C125.109 42.896 125.894 43.232 126.454 43.904C127.015 44.576 127.351 45.584 127.351 46.816V47.376H121.97C121.97 48.16 122.194 48.832 122.643 49.28C123.091 49.728 123.652 49.952 124.324 49.952C124.773 49.952 125.221 49.84 125.558 49.616C125.894 49.392 126.23 49.168 126.454 48.832L127.239 49.504C126.454 50.624 125.558 51.072 124.212 51.072ZM123.988 44.016C123.428 44.016 122.979 44.24 122.643 44.576C122.307 45.024 122.082 45.472 121.97 46.256H125.894V46.144C125.894 45.472 125.67 44.912 125.333 44.576C124.997 44.24 124.549 44.016 123.988 44.016Z" fill="#727E84"/>
<path d="M128.473 46.9279C128.473 45.6959 128.809 44.6879 129.37 44.0159C129.93 43.2319 130.715 42.8959 131.612 42.8959C132.508 42.8959 133.293 43.2319 133.854 43.7919V39.6479H135.199V50.8479H133.966L133.854 49.9519C133.293 50.6239 132.508 50.9599 131.612 50.9599C130.715 50.9599 129.93 50.6239 129.37 49.8399C128.809 49.0559 128.473 48.2719 128.473 46.9279ZM129.818 47.1519C129.818 48.0479 130.042 48.7199 130.378 49.2799C130.715 49.8399 131.275 50.0639 131.948 50.0639C132.845 50.0639 133.405 49.7279 133.854 48.9439V45.3599C133.405 44.5759 132.845 44.2399 131.948 44.2399C131.275 44.2399 130.715 44.4639 130.378 45.0239C130.042 45.5839 129.818 46.1439 129.818 47.1519Z" fill="#727E84"/>
<path d="M147.418 47.1518C147.418 48.3838 147.194 49.2798 146.633 50.0638C146.073 50.8478 145.288 51.1838 144.391 51.1838C143.382 51.1838 142.598 50.8478 142.037 50.1758L141.925 51.0718H140.692V39.8718H142.037V44.0158C142.598 43.3438 143.382 43.0078 144.279 43.0078C145.288 43.0078 145.961 43.3438 146.521 44.1278C147.082 44.7998 147.306 45.8078 147.306 47.1518H147.418ZM146.073 46.9278C146.073 46.0318 145.849 45.2478 145.512 44.7998C145.176 44.3518 144.616 44.0158 143.943 44.0158C143.046 44.0158 142.373 44.4638 142.037 45.2478V48.6078C142.486 49.3918 143.046 49.8398 143.943 49.8398C144.616 49.8398 145.064 49.6158 145.4 49.0558C145.737 48.4958 146.073 47.9358 146.073 46.9278Z" fill="#727E84"/>
<path d="M151.566 49.0559L153.36 43.1199H154.817L151.678 52.1919C151.23 53.5359 150.445 54.2079 149.324 54.2079H149.1L148.539 54.0959V52.9759H148.876C149.324 52.9759 149.661 52.8639 149.997 52.7519C150.221 52.5279 150.445 52.1919 150.669 51.7439L151.006 50.9599L148.203 43.1199H149.66L151.566 49.0559Z" fill="#727E84"/>
</svg>
