<svg width="213" height="47" viewBox="0 0 213 47" fill="none" xmlns="http://www.w3.org/2000/svg">
<g clip-path="url(#clip0_49_1929)">
<path d="M98.7587 42.0123C98.7587 42.7797 98.3786 43.8028 97.3651 43.8028C97.0533 43.8037 96.7508 43.696 96.5085 43.498C96.2662 43.3 96.0989 43.0237 96.0348 42.7157C95.9693 42.4657 95.9478 42.2059 95.9714 41.9484C95.9714 40.7334 96.7316 40.2219 97.3017 40.2219C97.5146 40.241 97.7215 40.3028 97.9104 40.4035C98.0993 40.5043 98.2665 40.642 98.4021 40.8087C98.5378 40.9754 98.6392 41.1677 98.7004 41.3743C98.7616 41.581 98.7814 41.7979 98.7587 42.0123ZM94.6411 36.8327V45.0178H95.9714V44.3783C96.1697 44.6084 96.4124 44.7951 96.6848 44.9271C96.9571 45.059 97.2533 45.1334 97.5551 45.1457C98.9488 45.1457 100.152 43.9307 100.152 42.0763C100.152 40.2219 98.9488 39.0069 97.6185 39.0069C97.0113 39.014 96.4268 39.2409 95.9714 39.6463V36.7688H94.6411V36.8327Z" fill="#005BAC"/>
<path d="M105.664 39.1987L104.207 44.2504L103.89 45.3375C103.51 46.5525 103.066 47.0001 101.989 47.0001C101.546 47.0001 101.293 46.9361 101.166 46.9361V45.6572C101.293 45.6572 101.419 45.7212 101.546 45.7212C101.764 45.73 101.981 45.6861 102.179 45.5933C102.332 45.4847 102.444 45.3268 102.496 45.1457L100.406 39.2627H101.863L103.13 43.547L104.207 39.2627H105.664V39.1987Z" fill="#005BAC"/>
<path d="M138.225 44.5061H139.048C139.112 44.5061 139.112 44.5061 139.175 44.4422L142.596 38.815L144.433 45.2735C144.433 45.3374 144.496 45.3374 144.559 45.3374H148.107C148.124 45.3374 148.14 45.3307 148.152 45.3187C148.164 45.3067 148.17 45.2904 148.17 45.2735L144.433 33.2517C144.433 33.1877 144.369 33.1877 144.306 33.1877H142.976C142.912 33.1877 142.912 33.1877 142.849 33.2517L138.288 40.4136L133.727 33.2517C133.727 33.1877 133.664 33.1877 133.6 33.1877H132.27C132.207 33.1877 132.207 33.2517 132.143 33.2517L128.406 45.2735C128.406 45.3374 128.406 45.3374 128.469 45.3374H132.017C132.08 45.3374 132.08 45.2735 132.143 45.2735L133.98 38.815L137.401 44.4422C137.401 44.5061 137.464 44.5061 137.528 44.5061H138.225Z" fill="#005BAC"/>
<path d="M128.469 38.4954C128.469 38.4784 128.462 38.4621 128.45 38.4501C128.439 38.4381 128.422 38.4314 128.406 38.4314H118.207C117.955 38.4314 117.713 38.5325 117.535 38.7124C117.357 38.8922 117.256 39.1362 117.256 39.3906C117.256 39.645 117.357 39.889 117.535 40.0688C117.713 40.2487 117.955 40.3498 118.207 40.3498H124.225C123.528 42.2681 121.057 43.675 118.207 43.675C114.723 43.675 111.935 41.6287 111.935 39.1348C111.935 36.6409 114.723 34.5947 118.207 34.5947C119.918 34.5425 121.595 35.0842 122.958 36.1294H127.202C127.219 36.1294 127.235 36.1226 127.247 36.1106C127.259 36.0986 127.265 36.0824 127.265 36.0654V36.0015C125.492 34.0831 122.134 32.8042 118.27 32.8042C112.569 32.8042 107.944 35.6178 107.944 39.0709C107.944 42.5239 112.569 45.3375 118.27 45.3375C123.971 45.3375 128.596 42.5239 128.596 39.0709C128.532 38.8844 128.49 38.6914 128.469 38.4954Z" fill="#005BAC"/>
<path d="M158.242 32.9958C152.541 32.9958 147.917 35.8095 147.917 39.2625C147.917 42.7156 152.541 45.5292 158.242 45.5292C163.943 45.5292 168.568 42.7156 168.568 39.2625C168.568 35.8095 163.943 32.9958 158.242 32.9958ZM158.242 43.7387C154.758 43.7387 151.971 41.6924 151.971 39.1986C151.971 36.7047 154.758 34.6584 158.242 34.6584C161.726 34.6584 164.514 36.7047 164.514 39.1986C164.514 41.6924 161.663 43.7387 158.242 43.7387Z" fill="#005BAC"/>
<path d="M46.1171 23.2762C46.1171 27.8798 44.7647 32.38 42.231 36.2077C39.6973 40.0355 36.0961 43.0189 31.8827 44.7806C27.6693 46.5423 23.033 47.0033 18.56 46.1051C14.0871 45.207 9.97849 42.9902 6.7537 39.7349C3.5289 36.4797 1.33279 32.3323 0.443074 27.8172C-0.446645 23.302 0.00999095 18.6219 1.75524 14.3688C3.50048 10.1156 6.45595 6.48037 10.2479 3.92275C14.0399 1.36512 18.498 0 23.0585 0C29.174 0 35.0391 2.45231 39.3634 6.81744C43.6877 11.1826 46.1171 17.103 46.1171 23.2762Z" fill="#005FAB"/>
<path d="M46.0535 23.2762C46.0472 27.8609 44.6943 32.3406 42.1658 36.1491C39.6374 39.9576 36.0469 42.9236 31.8485 44.6722C27.65 46.4209 23.0322 46.8735 18.579 45.9728C14.1257 45.0722 10.037 42.8588 6.82995 39.6125C3.62288 36.3663 1.44146 32.2329 0.561556 27.7351C-0.318352 23.2374 0.142768 18.5772 1.88661 14.344C3.63044 10.1108 6.57867 6.49463 10.3585 3.95281C14.1383 1.41099 18.5799 0.0576676 23.1216 0.0639869C26.1387 0.0631313 29.1262 0.663416 31.9129 1.83043C34.6997 2.99743 37.2308 4.70822 39.3612 6.86468C41.4916 9.02115 43.1794 11.5809 44.3278 14.3971C45.4762 17.2134 46.0626 20.2307 46.0535 23.2762Z" fill="#005EAF"/>
<path d="M45.9269 23.2762C45.9269 27.8419 44.5857 32.305 42.0729 36.1012C39.5601 39.8974 35.9885 42.8562 31.8098 44.6034C27.6312 46.3506 23.0331 46.8078 18.597 45.917C14.161 45.0263 10.0862 42.8278 6.88798 39.5993C3.68976 36.3709 1.51175 32.2577 0.629363 27.7798C-0.253022 23.3019 0.19985 18.6604 1.93071 14.4422C3.66157 10.2241 6.59268 6.61885 10.3534 4.08231C14.1141 1.54577 18.5355 0.191895 23.0584 0.191895C29.121 0.200353 34.9328 2.63516 39.2197 6.96249C43.5065 11.2898 45.9186 17.1565 45.9269 23.2762Z" fill="#005FAF"/>
<path d="M45.8636 23.2763C45.8762 27.832 44.5493 32.289 42.0511 36.0831C39.5529 39.8772 35.9956 42.8377 31.8296 44.5899C27.6636 46.3421 23.0763 46.8071 18.6484 45.9261C14.2204 45.0451 10.151 42.8576 6.95534 39.6407C3.75965 36.4238 1.58137 32.3221 0.69628 27.8549C-0.188808 23.3876 0.259095 18.7557 1.98329 14.5455C3.70747 10.3354 6.63042 6.7363 10.3821 4.20395C14.1337 1.67159 18.5454 0.319842 23.0585 0.319824C29.0958 0.319801 34.8868 2.73638 39.1618 7.03972C43.4368 11.3431 45.8468 17.182 45.8636 23.2763Z" fill="#0060B0"/>
<path d="M45.7368 23.2761C45.7368 27.8038 44.4067 32.2298 41.9148 35.9945C39.4228 39.7591 35.881 42.6933 31.737 44.426C27.5931 46.1587 23.0332 46.612 18.634 45.7287C14.2348 44.8454 10.1939 42.6651 7.02226 39.4635C3.85062 36.262 1.69071 32.1829 0.815653 27.7422C-0.0593998 23.3015 0.389709 18.6985 2.10619 14.5155C3.82266 10.3324 6.72942 6.75711 10.4589 4.24164C14.1883 1.72618 18.573 0.383559 23.0583 0.383559C26.0375 0.380194 28.988 0.970029 31.7409 2.11929C34.4939 3.26856 36.9953 4.95468 39.1019 7.08112C41.2084 9.20755 42.8788 11.7325 44.0173 14.5115C45.1558 17.2905 45.7401 20.2688 45.7368 23.2761Z" fill="#0060B0"/>
<path d="M45.6737 23.2761C45.6674 27.7848 44.3368 32.1904 41.8501 35.9358C39.3634 39.6812 35.8323 42.5981 31.7033 44.3176C27.5743 46.0372 23.0329 46.4822 18.6534 45.5964C14.2739 44.7106 10.2529 42.5337 7.099 39.3411C3.94508 36.1485 1.79987 32.0835 0.934624 27.6601C0.069382 23.2368 0.522975 18.6538 2.23804 14.4907C3.95311 10.3276 6.85263 6.77136 10.5699 4.27169C14.2872 1.77203 18.6553 0.441213 23.1219 0.447532C29.1088 0.464461 34.8448 2.87708 39.0723 7.15643C43.2997 11.4358 45.6737 17.2327 45.6737 23.2761Z" fill="#0061B0"/>
<path d="M45.5471 23.2761C45.5471 27.7659 44.2282 32.1548 41.7571 35.8879C39.2861 39.621 35.7739 42.5306 31.6647 44.2488C27.5554 45.967 23.0338 46.4165 18.6715 45.5406C14.3091 44.6647 10.3021 42.5027 7.15702 39.3279C4.01196 36.1532 1.87015 32.1083 1.00243 27.7048C0.134711 23.3013 0.580056 18.7369 2.28215 14.5889C3.98424 10.4409 6.86664 6.89558 10.5648 4.40119C14.263 1.90681 18.6109 0.575439 23.0587 0.575439C29.0225 0.577135 34.7415 2.96935 38.9586 7.22619C43.1756 11.483 45.5454 17.256 45.5471 23.2761Z" fill="#0061B1"/>
<path d="M45.4835 23.2762C45.4898 27.747 44.1826 32.1192 41.7272 35.8401C39.2717 39.5609 35.7784 42.4632 31.689 44.1799C27.5995 45.8967 23.0976 46.3507 18.7525 45.4847C14.4074 44.6187 10.4143 42.4715 7.27807 39.3147C4.14187 36.1578 2.00347 32.1331 1.13327 27.7494C0.263075 23.3658 0.700167 18.8201 2.38928 14.6872C4.07839 10.5543 6.94365 7.01983 10.6227 4.53073C14.3018 2.04163 18.6295 0.709701 23.0585 0.703373C28.996 0.699969 34.6923 3.07504 38.8967 7.30716C43.1011 11.5393 45.4701 17.2826 45.4835 23.2762Z" fill="#0062B1"/>
<path d="M45.357 23.2762C45.357 27.728 44.0492 32.0799 41.599 35.7814C39.1489 39.483 35.6663 42.368 31.5918 44.0716C27.5173 45.7753 23.0339 46.221 18.7084 45.3525C14.383 44.484 10.4098 42.3402 7.2913 39.1923C4.17282 36.0444 2.04911 32.0337 1.18872 27.6674C0.328334 23.3011 0.769915 18.7754 2.45763 14.6624C4.14534 10.5495 7.00337 7.03406 10.6703 4.56076C14.3373 2.08745 18.6484 0.767334 23.0586 0.767334C28.9699 0.775792 34.6368 3.14997 38.8167 7.36936C42.9966 11.5888 45.3486 17.3091 45.357 23.2762Z" fill="#0062B2"/>
<path d="M45.2934 23.2762C45.2996 27.7091 44.0036 32.0443 41.569 35.7335C39.1345 39.4228 35.6709 42.3005 31.6162 44.0028C27.5614 45.705 23.0977 46.1553 18.7895 45.2967C14.4812 44.438 10.522 42.3091 7.41235 39.1791C4.30273 36.0491 2.18243 32.0585 1.31956 27.7121C0.456697 23.3656 0.890027 18.8585 2.56475 14.7607C4.23948 10.6628 7.08038 7.15833 10.7282 4.69031C14.376 2.22228 18.667 0.901606 23.0584 0.895278C28.9466 0.888488 34.5964 3.24225 38.7659 7.43913C42.9354 11.636 45.2833 17.3325 45.2934 23.2762Z" fill="#0063B2"/>
<path d="M45.1668 23.2762C45.1668 27.6901 43.8702 32.0049 41.4409 35.6749C39.0116 39.3449 35.5588 42.2053 31.519 43.8945C27.4792 45.5836 23.034 46.0255 18.7454 45.1644C14.4568 44.3033 10.5175 42.1778 7.42558 39.0568C4.33368 35.9357 2.22806 31.9592 1.37501 27.6301C0.521956 23.301 0.959775 18.8138 2.6331 14.7359C4.30643 10.658 7.14011 7.17255 10.7758 4.72033C14.4115 2.26811 18.6859 0.959237 23.0585 0.959237C25.9625 0.956714 28.8385 1.53224 31.522 2.65288C34.2054 3.77352 36.6436 5.41728 38.697 7.49011C40.7505 9.56294 42.3789 12.0241 43.489 14.7329C44.5992 17.4417 45.1693 20.3448 45.1668 23.2762Z" fill="#0064B2"/>
<path d="M45.1037 23.2763C45.0975 27.6712 43.8003 31.9655 41.3762 35.6162C38.9522 39.267 35.5101 42.1101 31.4853 43.7861C27.4605 45.4621 23.0337 45.8957 18.7648 45.0321C14.4959 44.1685 10.5765 42.0465 7.50232 38.9343C4.42814 35.8222 2.33723 31.8597 1.49398 27.548C0.650738 23.2363 1.09304 18.7691 2.76496 14.7111C4.43688 10.6532 7.26332 7.18681 10.8869 4.75039C14.5104 2.31396 18.7683 1.0169 23.1221 1.02322C28.9578 1.04014 34.5488 3.39213 38.6693 7.56355C42.7899 11.735 45.1037 17.3855 45.1037 23.2763Z" fill="#0064B3"/>
<path d="M44.9767 23.2763C44.9767 27.6522 43.6912 31.9299 41.2828 35.5684C38.8744 39.2068 35.4512 42.0427 31.4462 43.7173C27.4411 45.3919 23.0341 45.83 18.7824 44.9763C14.5306 44.1226 10.6252 42.0154 7.55986 38.9211C4.49453 35.8269 2.40702 31.8846 1.5613 27.5927C0.715579 23.3008 1.14963 18.8522 2.80858 14.8094C4.46752 10.7665 7.27684 7.31103 10.8813 4.87989C14.4857 2.44874 18.7234 1.15112 23.0584 1.15112C28.871 1.15282 34.445 3.4844 38.5551 7.63331C42.6652 11.7822 44.975 17.4089 44.9767 23.2763Z" fill="#0065B3"/>
<path d="M44.9136 23.2761C44.9073 27.6331 43.6213 31.8903 41.2181 35.5095C38.8149 39.1287 35.4025 41.9472 31.4125 43.6087C27.4224 45.2702 23.0339 45.7 18.8018 44.8438C14.5697 43.9876 10.6842 41.8838 7.6366 38.7985C4.589 35.7132 2.51618 31.7849 1.68027 27.5104C0.844361 23.236 1.2829 18.8072 2.94043 14.7843C4.59797 10.7615 7.40005 7.32505 10.9923 4.90971C14.5846 2.49436 18.8058 1.20855 23.122 1.21487C28.9083 1.22842 34.4529 3.55911 38.5385 7.69529C42.6242 11.8315 44.917 17.4351 44.9136 23.2761Z" fill="#0065B4"/>
<path d="M44.7865 23.2761C44.7865 27.6141 43.5122 31.8547 41.1247 35.4616C38.7372 39.0685 35.3437 41.8798 31.3734 43.5399C27.403 45.1999 23.0342 45.6343 18.8193 44.788C14.6045 43.9417 10.7329 41.8527 7.69414 38.7853C4.65539 35.7179 2.58598 31.8097 1.74759 27.5551C0.909201 23.3004 1.33949 18.8904 2.98405 14.8826C4.62861 10.8748 7.41357 7.44927 10.9868 5.03921C14.5599 2.62914 18.7609 1.34277 23.0583 1.34277C28.8179 1.35292 34.3387 3.667 38.4114 7.7781C42.4841 11.8892 44.7765 17.4621 44.7865 23.2761Z" fill="#0066B4"/>
<path d="M44.7234 23.2762C44.7172 27.5952 43.4423 31.8153 41.06 35.403C38.6777 38.9906 35.295 41.7845 31.3396 43.4315C27.3843 45.0785 23.034 45.5045 18.8388 44.6557C14.6436 43.8069 10.7919 41.7214 7.77088 38.6629C4.74986 35.6044 2.69514 31.7103 1.86656 27.4731C1.03798 23.2358 1.47276 18.8457 3.11591 14.8578C4.75906 10.87 7.53678 7.46354 11.0978 5.06927C14.6589 2.675 18.8433 1.40044 23.1219 1.40676C28.8589 1.41693 34.357 3.72632 38.4078 7.82726C42.4585 11.9282 44.7302 17.485 44.7234 23.2762Z" fill="#0067B5"/>
<path d="M44.5969 23.2762C44.5969 27.5762 43.3337 31.7797 40.9671 35.3551C38.6004 38.9305 35.2366 41.7171 31.301 43.3627C27.3654 45.0082 23.0348 45.4388 18.8568 44.5999C14.6788 43.761 10.8411 41.6903 7.82891 38.6497C4.81674 35.6091 2.76542 31.7352 1.93437 27.5177C1.10331 23.3003 1.52984 18.9288 3.16001 14.9561C4.79019 10.9833 7.55079 7.58776 11.0927 5.19877C14.6347 2.80978 18.7989 1.53467 23.0587 1.53467C28.771 1.53467 34.2493 3.82528 38.2885 7.90261C42.3277 11.9799 44.5969 17.51 44.5969 23.2762Z" fill="#0067B5"/>
<path d="M44.5333 23.2762C44.527 27.5573 43.2633 31.7404 40.9019 35.2964C38.5405 38.8525 35.1874 41.6219 31.2668 43.2543C27.3462 44.8868 23.0341 45.309 18.8757 44.4676C14.7174 43.6262 10.8996 41.559 7.90516 38.5273C4.91071 35.4957 2.8741 31.6358 2.05285 27.4357C1.23161 23.2356 1.66262 18.8841 3.29138 14.9313C4.92015 10.9785 7.67352 7.60203 11.2033 5.22884C14.7331 2.85565 18.8807 1.59234 23.1218 1.59866C28.8058 1.61727 34.2508 3.90916 38.264 7.97229C42.2773 12.0354 44.5317 17.5385 44.5333 23.2762Z" fill="#0068B6"/>
<path d="M44.4067 23.2762C44.4067 27.5383 43.1547 31.7047 40.8089 35.2486C38.4632 38.7924 35.1291 41.5545 31.2282 43.1855C27.3273 44.8166 23.0349 45.2433 18.8938 44.4118C14.7527 43.5803 10.9488 41.5279 7.96319 38.5141C4.97759 35.5004 2.94438 31.6606 2.12066 27.4804C1.29693 23.3001 1.7197 18.9672 3.33549 15.0295C4.95128 11.0918 7.68753 7.72624 11.1982 5.35834C14.7089 2.99043 18.8363 1.72656 23.0586 1.72656C28.7195 1.72995 34.1475 4.00144 38.1503 8.04205C42.1531 12.0827 44.4034 17.5619 44.4067 23.2762Z" fill="#0068B6"/>
<path d="M44.3431 23.2763C44.3369 27.5194 43.0843 31.6654 40.7437 35.1899C38.4032 38.7144 35.0799 41.4592 31.194 43.0772C27.3081 44.6951 23.0342 45.1135 18.9127 44.2795C14.7912 43.4455 11.0073 41.3966 8.03944 38.3917C5.07157 35.3869 3.05305 31.5612 2.23914 27.3983C1.42523 23.2355 1.85248 18.9225 3.46686 15.0048C5.08124 11.087 7.81025 7.74051 11.3088 5.3884C14.8073 3.03629 18.9182 1.78423 23.1217 1.79055C28.7563 1.80579 34.1549 4.07639 38.1332 8.10427C42.1116 12.1322 44.3448 17.5884 44.3431 23.2763Z" fill="#0069B6"/>
<path d="M44.2166 23.2763C44.2166 27.5005 42.9757 31.6298 40.6508 35.142C38.3259 38.6543 35.0215 41.3918 31.1554 43.0083C27.2892 44.6249 23.035 45.0478 18.9308 44.2237C14.8265 43.3996 11.0565 41.3655 8.09747 38.3785C5.13845 35.3916 3.12334 31.586 2.30695 27.443C1.49056 23.3 1.90956 19.0056 3.51096 15.103C5.11237 11.2004 7.82426 7.86473 11.3037 5.5179C14.7831 3.17107 18.8738 1.91846 23.0585 1.91846C28.6669 1.9286 34.0427 4.18205 38.0084 8.18522C41.9742 12.1884 44.2066 17.6149 44.2166 23.2763Z" fill="#0069B7"/>
<path d="M44.1535 23.2761C44.1597 27.4813 42.9305 31.5939 40.6213 35.0939C38.3121 38.5939 35.0265 41.3241 31.1802 42.9392C27.3338 44.5543 23.0993 44.9818 19.0123 44.1676C14.9252 43.3534 11.1691 41.3341 8.219 38.3651C5.26885 35.396 3.25715 31.6105 2.43828 27.4874C1.61941 23.3642 2.03016 19.0885 3.61858 15.201C5.207 11.3135 7.90176 7.98873 11.3621 5.64719C14.8224 3.30564 18.8929 2.05247 23.0587 2.04614C28.643 2.04443 33.9999 4.27856 37.9545 8.25848C41.909 12.2384 44.1384 17.6392 44.1535 23.2761Z" fill="#006AB7"/>
<path d="M44.0265 23.2761C44.0265 27.4623 42.7967 31.5546 40.4927 35.0353C38.1887 38.516 34.9139 41.2289 31.0825 42.8309C27.2511 44.4329 23.0351 44.8521 18.9677 44.0354C14.9003 43.2187 11.1642 41.2028 8.23174 38.2427C5.29931 35.2826 3.30229 31.5112 2.49324 27.4054C1.68418 23.2996 2.09942 19.0438 3.68644 15.1762C5.27346 11.3086 7.96099 8.00297 11.4092 5.67722C14.8574 3.35147 18.9113 2.11011 23.0584 2.11011C25.8124 2.10843 28.5398 2.65476 31.0845 3.71785C33.6292 4.78095 35.9414 6.33996 37.8888 8.30574C39.8362 10.2715 41.3806 12.6055 42.4338 15.1742C43.4869 17.743 44.0281 20.4961 44.0265 23.2761Z" fill="#006BB8"/>
<path d="M43.9632 23.2761C43.9632 27.4497 42.7372 31.5296 40.4402 34.9998C38.1431 38.47 34.8783 41.1747 31.0584 42.7719C27.2386 44.369 23.0353 44.7869 18.9802 43.9727C14.9251 43.1585 11.2002 41.1487 8.27667 38.1975C5.35309 35.2463 3.36211 31.4863 2.5555 27.3929C1.74888 23.2995 2.16287 19.0566 3.74509 15.2007C5.32732 11.3448 8.00673 8.04913 11.4445 5.73041C14.8823 3.41169 18.924 2.17407 23.0585 2.17407C25.8038 2.17407 28.5221 2.71989 31.0584 3.78037C33.5947 4.84085 35.8992 6.39521 37.8404 8.35472C39.7816 10.3142 41.3214 12.6405 42.372 15.2007C43.4225 17.7609 43.9632 20.505 43.9632 23.2761Z" fill="#006BB8"/>
<path d="M43.8363 23.2762C43.8363 27.4244 42.6177 31.4796 40.3346 34.9288C38.0515 38.3779 34.8064 41.0663 31.0097 42.6537C27.213 44.2412 23.0353 44.6566 19.0047 43.8473C14.9742 43.038 11.2719 41.0404 8.36602 38.1071C5.46017 35.1738 3.48125 31.4366 2.67953 27.368C1.8778 23.2994 2.28928 19.0822 3.86192 15.2497C5.43455 11.4172 8.09772 8.14145 11.5147 5.83678C14.9316 3.53211 18.9488 2.302 23.0583 2.302C28.5679 2.30539 33.851 4.51625 37.7469 8.44893C41.6428 12.3816 43.833 17.7145 43.8363 23.2762Z" fill="#006CB9"/>
<path d="M43.7731 23.2762C43.7731 27.4118 42.5582 31.4546 40.282 34.8933C38.0059 38.3319 34.7707 41.012 30.9856 42.5947C27.2005 44.1773 23.0354 44.5914 19.0172 43.7846C14.9989 42.9778 11.3079 40.9863 8.41094 38.0619C5.51395 35.1376 3.54107 31.4117 2.74179 27.3555C1.94251 23.2994 2.35273 19.095 3.92057 15.2742C5.48841 11.4533 8.14346 8.18761 11.55 5.88997C14.9565 3.59233 18.9615 2.36597 23.0584 2.36597C28.5518 2.36766 33.8197 4.57124 37.7041 8.49229C41.5884 12.4134 43.7714 17.731 43.7731 23.2762Z" fill="#006CB9"/>
<path d="M43.6467 23.2762C43.6467 27.3866 42.4392 31.4046 40.177 34.8222C37.9147 38.2399 34.6993 40.9036 30.9374 42.4766C27.1754 44.0495 23.0358 44.4611 19.0422 43.6592C15.0485 42.8573 11.3801 40.878 8.50079 37.9715C5.62151 35.0651 3.6607 31.362 2.8663 27.3306C2.07191 23.2993 2.47962 19.1206 4.03788 15.3232C5.59613 11.5257 8.23495 8.27994 11.6206 5.99635C15.0063 3.71276 18.9868 2.4939 23.0587 2.4939C28.519 2.4939 33.7556 4.68346 37.6166 8.5809C41.4776 12.4783 43.6467 17.7644 43.6467 23.2762Z" fill="#006DBA"/>
<path d="M43.5831 23.2763C43.5893 27.3676 42.3936 31.369 40.147 34.7744C37.9004 38.1797 34.7039 40.8361 30.9617 42.4077C27.2195 43.9792 23.0997 44.3953 19.1232 43.6033C15.1468 42.8113 11.4923 40.8468 8.62184 37.9583C5.75142 35.0697 3.79402 31.3868 2.99715 27.3753C2.20028 23.3637 2.59974 19.2038 4.14501 15.4214C5.69028 11.6391 8.31196 8.40419 11.6785 6.12588C15.0451 3.84758 19.0053 2.62816 23.0584 2.62183C28.4915 2.62011 33.7034 4.79361 37.551 8.6656C41.3987 12.5376 43.568 17.792 43.5831 23.2763Z" fill="#006EBA"/>
<path d="M43.4565 23.2763C43.4565 27.3487 42.2602 31.3296 40.0188 34.7157C37.7775 38.1018 34.5918 40.7409 30.8645 42.2994C27.1373 43.8578 23.036 44.2656 19.0791 43.4711C15.1223 42.6766 11.4878 40.7156 8.63507 37.8359C5.78237 34.9563 3.83965 31.2874 3.05259 27.2933C2.26554 23.2991 2.66948 19.1591 4.21335 15.3966C5.75722 11.6342 8.37168 8.41843 11.7261 6.15592C15.0805 3.89341 19.0243 2.68579 23.0586 2.68579C25.7377 2.68411 28.391 3.21555 30.8665 4.24973C33.342 5.2839 35.5914 6.80052 37.4858 8.71286C39.3803 10.6252 40.8827 12.8957 41.9072 15.3946C42.9317 17.8936 43.4582 20.5718 43.4565 23.2763Z" fill="#006EBB"/>
<path d="M43.3932 23.2763C43.4057 27.3388 42.2238 31.3136 39.997 34.6976C37.7703 38.0816 34.5989 40.7225 30.8843 42.2859C27.1698 43.8493 23.0792 44.2649 19.1305 43.4801C15.1818 42.6954 11.5526 40.7454 8.70244 37.8773C5.85226 35.0092 3.90928 31.3518 3.11951 27.3684C2.32975 23.3849 2.72873 19.2544 4.26593 15.4999C5.80312 11.7455 8.40941 8.53588 11.7548 6.27756C15.1001 4.01923 19.0341 2.81374 23.0586 2.81372C28.4387 2.82043 33.5974 4.97643 37.4076 8.81062C41.2178 12.6448 43.3698 17.8455 43.3932 23.2763Z" fill="#006FBB"/>
<path d="M43.2664 23.2761C43.2664 27.3106 42.0812 31.2544 39.8607 34.609C37.6403 37.9635 34.4842 40.578 30.7917 42.122C27.0992 43.6659 23.0361 44.0699 19.1161 43.2828C15.1962 42.4957 11.5955 40.5529 8.76935 37.7001C5.94322 34.8473 4.01861 31.2126 3.23888 27.2557C2.45916 23.2987 2.85934 19.1972 4.38883 15.4699C5.91832 11.7425 8.50841 8.55667 11.8316 6.31524C15.1548 4.0738 19.0617 2.87745 23.0585 2.87745C25.7127 2.87576 28.3412 3.40224 30.7937 4.42677C33.2462 5.45131 35.4745 6.9538 37.3513 8.84832C39.2281 10.7428 40.7166 12.9922 41.7315 15.4679C42.7465 17.9435 43.268 20.5968 43.2664 23.2761Z" fill="#006FBB"/>
<path d="M43.2032 23.2761C43.2032 27.2979 42.0217 31.2294 39.8082 34.5735C37.5947 37.9175 34.4485 40.5238 30.7676 42.0629C27.0867 43.602 23.0363 44.0047 19.1286 43.2201C15.2209 42.4355 11.6315 40.4988 8.81427 37.6549C5.99701 34.811 4.07842 31.1877 3.30114 27.2432C2.52386 23.2987 2.92279 19.21 4.44748 15.4944C5.97218 11.7787 8.55415 8.60283 11.8669 6.36842C15.1797 4.13402 19.0744 2.94141 23.0586 2.94141C28.4002 2.94479 33.5221 5.08828 37.2992 8.90104C41.0764 12.7138 43.1998 17.884 43.2032 23.2761Z" fill="#0070BC"/>
<path d="M43.0762 23.2761C43.0762 27.2727 41.9022 31.1794 39.7026 34.5024C37.503 37.8254 34.3767 40.4154 30.7189 41.9448C27.0611 43.4742 23.0362 43.8744 19.1531 43.0947C15.27 42.315 11.7032 40.3905 8.90363 37.5645C6.10408 34.7385 4.19757 31.138 3.42517 27.2183C2.65278 23.2986 3.0492 19.2356 4.5643 15.5433C6.07941 11.851 8.64514 8.69515 11.9371 6.4748C15.229 4.25444 19.0992 3.06934 23.0584 3.06934C28.3674 3.06934 33.4591 5.19826 37.2131 8.98777C40.9672 12.7773 43.0762 17.917 43.0762 23.2761Z" fill="#0070BC"/>
<path d="M43.0131 23.2762C43.0068 27.2537 41.8323 31.1401 39.6379 34.4438C37.4435 37.7475 34.328 40.3201 30.6852 41.8364C27.0423 43.3527 23.0359 43.7446 19.1725 42.9624C15.3091 42.1802 11.7622 40.2591 8.98037 37.4421C6.19855 34.6251 4.30673 31.0386 3.54415 27.1363C2.78157 23.2339 3.18247 19.1909 4.69616 15.5186C6.20986 11.8462 8.76835 8.70942 12.0481 6.50486C15.3279 4.30031 19.1816 3.12701 23.122 3.13333C28.4032 3.15025 33.4625 5.27991 37.191 9.05559C40.9195 12.8313 43.0131 17.945 43.0131 23.2762Z" fill="#0071BD"/>
<path d="M42.8866 23.2762C42.8866 27.2348 41.7237 31.1045 39.545 34.3959C37.3663 37.6874 34.2696 40.2527 30.6465 41.7676C27.0235 43.2825 23.0368 43.6789 19.1906 42.9066C15.3443 42.1343 11.8114 40.2281 9.03839 37.4289C6.26543 34.6298 4.37701 31.0635 3.61195 27.1809C2.84689 23.2984 3.23955 19.2741 4.74027 15.6168C6.24099 11.9595 8.78237 8.83364 12.043 6.63436C15.3037 4.43509 19.1372 3.26123 23.0588 3.26123C25.6631 3.25955 28.2421 3.77611 30.6485 4.78136C33.0549 5.78661 35.2413 7.26084 37.0829 9.11973C38.9244 10.9786 40.3848 13.1857 41.3807 15.6148C42.3765 18.0439 42.8882 20.6473 42.8866 23.2762Z" fill="#0072BD"/>
<path d="M42.8229 23.2762C42.8229 27.2222 41.6637 31.0795 39.492 34.3604C37.3202 37.6413 34.2334 40.1985 30.6219 41.7086C27.0105 43.2186 23.0365 43.6137 19.2026 42.8439C15.3686 42.0741 11.8469 40.1739 9.08283 37.3837C6.31872 34.5935 4.43634 31.0386 3.67372 27.1685C2.91111 23.2983 3.30251 19.2869 4.79843 15.6413C6.29436 11.9957 8.82762 8.87979 12.0779 6.68755C15.3281 4.4953 19.1494 3.3252 23.0584 3.3252C28.2982 3.33196 33.3215 5.43611 37.0266 9.17619C40.7317 12.9163 42.8162 17.987 42.8229 23.2762Z" fill="#0072BE"/>
<path d="M42.6964 23.2763C42.6964 27.1969 41.5447 31.0295 39.3869 34.2894C37.229 37.5493 34.162 40.0901 30.5737 41.5904C26.9854 43.0908 23.0369 43.4834 19.2275 42.7185C15.4182 41.9536 11.9191 40.0656 9.17267 37.2933C6.42628 34.521 4.55597 30.9889 3.79824 27.1436C3.04051 23.2982 3.42941 19.3125 4.91574 15.6903C6.40208 12.0681 8.9191 8.97212 12.1485 6.79392C15.3779 4.61573 19.1747 3.45313 23.0587 3.45312C28.2669 3.45313 33.2619 5.54163 36.9447 9.25918C40.6274 12.9767 42.6964 18.0188 42.6964 23.2763Z" fill="#0073BE"/>
<path d="M42.6327 23.2763C42.6327 27.1843 41.4847 31.0045 39.3338 34.2539C37.183 37.5033 34.1259 40.0359 30.5491 41.5314C26.9724 43.0269 23.0366 43.4182 19.2395 42.6558C15.4425 41.8934 11.9546 40.0115 9.21711 37.2481C6.47958 34.4848 4.6153 30.964 3.86001 27.1311C3.10473 23.2982 3.49237 19.3253 4.97391 15.7148C6.45545 12.1042 8.96435 9.01828 12.1833 6.84711C15.4023 4.67595 19.1869 3.51709 23.0583 3.51709C28.2487 3.52048 33.2256 5.60333 36.8958 9.30816C40.566 13.013 42.6294 18.0369 42.6327 23.2763Z" fill="#0073BE"/>
<path d="M42.5063 23.2763C42.5063 27.159 41.3657 30.9545 39.2287 34.1829C37.0918 37.4112 34.0545 39.9274 30.5009 41.4133C26.9473 42.8991 23.037 43.2879 19.2645 42.5304C15.492 41.7729 12.0268 39.9032 9.30695 37.1577C6.58714 34.4122 4.73493 30.9143 3.98453 27.1062C3.23414 23.2981 3.61927 19.3509 5.09122 15.7637C6.56317 12.1766 9.05583 9.1106 12.254 6.95349C15.4522 4.79638 19.2122 3.64502 23.0586 3.64502C28.2159 3.64671 33.1615 5.71555 36.8083 9.39676C40.4551 13.078 42.5046 18.0703 42.5063 23.2763Z" fill="#0074BF"/>
<path d="M42.4431 23.2761C42.4431 27.1461 41.3062 30.9293 39.1762 34.1471C37.0462 37.365 34.0188 39.873 30.4768 41.354C26.9347 42.835 23.0372 43.2225 19.277 42.4675C15.5168 41.7124 12.0628 39.8488 9.35187 37.1123C6.64092 34.3758 4.79474 30.8892 4.04679 27.0935C3.29884 23.2978 3.68272 19.3635 5.14987 15.788C6.61703 12.2125 9.10157 9.15652 12.2893 7.00643C15.4771 4.85635 19.2248 3.70874 23.0587 3.70874C25.6043 3.70874 28.1249 4.21486 30.4768 5.19822C32.8286 6.18157 34.9655 7.62289 36.7655 9.43988C38.5655 11.2569 39.9934 13.414 40.9675 15.788C41.9417 18.162 42.4431 20.7065 42.4431 23.2761Z" fill="#0075BF"/>
<path d="M42.3161 23.2761C42.3161 27.1209 41.1867 30.8793 39.0706 34.0761C36.9546 37.2729 33.9469 39.7645 30.4281 41.2358C26.9092 42.7072 23.0371 43.0921 19.3015 42.3421C15.5659 41.592 12.1345 39.7406 9.44123 37.0219C6.748 34.3032 4.91388 30.8395 4.17082 27.0686C3.42776 23.2977 3.80913 19.3891 5.26669 15.837C6.72426 12.2849 9.19256 9.24884 12.3595 7.11281C15.5264 4.97677 19.2497 3.83667 23.0585 3.83667C25.5877 3.83583 28.0922 4.33807 30.429 5.3147C32.7659 6.29133 34.8891 7.72319 36.6776 9.52848C38.466 11.3338 39.8844 13.4771 40.8519 15.836C41.8194 18.1949 42.317 20.7231 42.3161 23.2761Z" fill="#0075C0"/>
<path d="M42.2529 23.2761C42.2529 27.1083 41.1272 30.8543 39.0181 34.0406C36.909 37.2269 33.9112 39.7103 30.4039 41.1768C26.8966 42.6433 23.0373 43.027 19.314 42.2794C15.5906 41.5317 12.1705 39.6864 9.48615 36.9767C6.80178 34.267 4.9737 30.8146 4.23308 27.0561C3.49246 23.2976 3.87257 19.4019 5.32535 15.8615C6.77812 12.3211 9.23831 9.29501 12.3948 7.166C15.5513 5.03699 19.2623 3.90064 23.0586 3.90064C25.5797 3.89896 28.0764 4.39897 30.4059 5.37209C32.7354 6.3452 34.8521 7.77233 36.6347 9.57184C38.4174 11.3714 39.8312 13.508 40.7952 15.8595C41.7592 18.211 42.2546 20.7312 42.2529 23.2761Z" fill="#0076C0"/>
<path d="M42.126 23.2762C42.126 27.083 41.0077 30.8043 38.9125 33.9696C36.8173 37.1348 33.8394 39.6019 30.3552 41.0587C26.8711 42.5155 23.0372 42.8966 19.3385 42.154C15.6397 41.4113 12.2422 39.5781 9.57551 36.8863C6.90885 34.1945 5.09284 30.7649 4.35711 27.0312C3.62138 23.2975 3.99898 19.4275 5.44217 15.9104C6.88535 12.3934 9.3293 9.38733 12.465 7.27237C15.6006 5.15742 19.2871 4.02856 23.0584 4.02856C28.1139 4.03364 32.9609 6.06314 36.5357 9.67167C40.1104 13.2802 42.121 18.173 42.126 23.2762Z" fill="#0076C1"/>
<path d="M42.0628 23.2762C42.0628 27.0704 40.9482 30.7793 38.86 33.9341C36.7718 37.0888 33.8037 39.5476 30.3311 40.9996C26.8585 42.4516 23.0374 42.8315 19.3509 42.0913C15.6645 41.3511 12.2782 39.524 9.62043 36.8411C6.96264 34.1582 5.15265 30.74 4.41937 27.0187C3.68609 23.2975 4.06243 19.4403 5.50082 15.9349C6.93921 12.4296 9.37504 9.43349 12.5003 7.32556C15.6255 5.21763 19.2998 4.09253 23.0585 4.09253C28.0987 4.09253 32.9326 6.11366 36.4965 9.7113C40.0605 13.3089 42.0628 18.1884 42.0628 23.2762Z" fill="#0077C1"/>
<path d="M41.9993 23.2763C41.9993 27.0451 40.8922 30.7294 38.8179 33.8631C36.7436 36.9968 33.7953 39.4392 30.3459 40.8815C26.8965 42.3238 23.1008 42.7012 19.4389 41.9659C15.777 41.2306 12.4133 39.4157 9.77327 36.7507C7.13319 34.0857 5.33527 30.6903 4.60688 26.9939C3.87848 23.2974 4.25232 19.4659 5.68112 15.9839C7.10992 12.5019 9.52951 9.52584 12.6339 7.43196C15.7383 5.33809 19.3881 4.22049 23.1217 4.22049C25.6019 4.21627 28.0586 4.70629 30.3508 5.66244C32.643 6.61859 34.7257 8.02207 36.4795 9.7924C38.2333 11.5627 39.6236 13.6651 40.5709 15.979C41.5181 18.2928 42.0035 20.7726 41.9993 23.2763Z" fill="#0078C2"/>
<path d="M41.8726 23.2763C41.8726 27.0325 40.7692 30.7044 38.7019 33.8276C36.6345 36.9507 33.6961 39.385 30.2583 40.8224C26.8204 42.2599 23.0375 42.636 19.3879 41.9032C15.7383 41.1704 12.3859 39.3616 9.75471 36.7055C7.12349 34.0495 5.33161 30.6654 4.60566 26.9814C3.87971 23.2973 4.25229 19.4787 5.6763 16.0084C7.1003 12.5381 9.51177 9.57198 12.6058 7.48513C15.6997 5.39828 19.3373 4.28442 23.0584 4.28442C28.0482 4.28442 32.8337 6.28534 36.3621 9.847C39.8904 13.4087 41.8726 18.2393 41.8726 23.2763Z" fill="#0078C2"/>
<path d="M41.8095 23.2762C41.8158 27.0134 40.724 30.6686 38.6723 33.7796C36.6207 36.8905 33.7012 39.3174 30.2831 40.7534C26.865 42.1895 23.1018 42.5701 19.4694 41.8472C15.8371 41.1243 12.4986 39.3303 9.87625 36.6922C7.2539 34.054 5.46542 30.6901 4.73699 27.0259C4.00856 23.3617 4.3729 19.5617 5.78392 16.1065C7.19494 12.6513 9.58927 9.69611 12.6641 7.61455C15.739 5.53298 19.3563 4.41857 23.0586 4.41224C25.5183 4.40298 27.9555 4.88412 30.2305 5.82805C32.5055 6.77199 34.5734 8.16013 36.3155 9.91282C38.0577 11.6655 39.4399 13.7482 40.3827 16.0415C41.3255 18.3347 41.8104 20.7933 41.8095 23.2762Z" fill="#0079C3"/>
<path d="M41.6826 23.2761C41.6763 26.9881 40.5798 30.6148 38.5316 33.6976C36.4834 36.7805 33.5756 39.181 30.1759 40.5957C26.7761 42.0104 23.0372 42.3756 19.4318 41.6452C15.8264 40.9149 12.5166 39.1217 9.92081 36.4925C7.32504 33.8633 5.55992 30.5161 4.84867 26.8742C4.13741 23.2323 4.51197 19.4594 5.92498 16.0324C7.33799 12.6054 9.72598 9.67833 12.787 7.62133C15.848 5.56433 19.4445 4.46978 23.1217 4.4761C28.0512 4.48965 32.7741 6.47675 36.2538 10.0013C39.7335 13.5259 41.686 18.3001 41.6826 23.2761Z" fill="#007AC3"/>
<path d="M41.6195 23.2761C41.6195 26.9691 40.5347 30.5792 38.5021 33.6498C36.4696 36.7204 33.5807 39.1136 30.2007 40.5269C26.8207 41.9401 23.1015 42.3099 19.5133 41.5894C15.9252 40.869 12.6292 39.0906 10.0423 36.4793C7.45539 33.8679 5.69367 30.5409 4.97994 26.9189C4.26621 23.2968 4.63253 19.5425 6.03256 16.1306C7.43259 12.7187 9.80346 9.80254 12.8454 7.75082C15.8873 5.6991 19.4636 4.604 23.122 4.604C28.0263 4.60908 32.7283 6.57795 36.1962 10.0785C39.664 13.5791 41.6145 18.3255 41.6195 23.2761Z" fill="#007AC3"/>
<path d="M41.4927 23.2762C41.5053 26.9592 40.4348 30.5632 38.4168 33.6317C36.3989 36.7002 33.5243 39.0952 30.157 40.5134C26.7897 41.9316 23.0813 42.3093 19.5012 41.5985C15.9212 40.8877 12.6306 39.1205 10.0462 36.5207C7.46181 33.9209 5.69983 30.6053 4.98339 26.994C4.26695 23.3826 4.62829 19.6379 6.02165 16.2339C7.41501 12.83 9.77771 9.92002 12.8105 7.87249C15.8434 5.82496 19.4099 4.73197 23.0586 4.73195C27.9387 4.72516 32.6218 6.6747 36.0785 10.1521C39.5352 13.6294 41.4826 18.35 41.4927 23.2762Z" fill="#007BC4"/>
<path d="M41.4292 23.2762C41.4543 26.9492 40.3982 30.5471 38.3949 33.6134C36.3916 36.6798 33.5313 39.0765 30.1768 40.4997C26.8223 41.9229 23.1246 42.3085 19.5527 41.6074C15.9808 40.9064 12.6956 39.1504 10.1137 36.5621C7.53181 33.9738 5.76954 30.6698 5.05037 27.0692C4.3312 23.4685 4.68753 19.7333 6.07417 16.3374C7.46081 12.9414 9.8153 10.0376 12.839 7.99423C15.8628 5.95085 19.4196 4.85995 23.0584 4.85986C27.9087 4.85975 32.5623 6.79594 36.0039 10.246C39.4455 13.6961 41.3957 18.3802 41.4292 23.2762Z" fill="#007BC4"/>
<path d="M41.3027 23.2762C41.3027 26.9186 40.2327 30.4792 38.228 33.5078C36.2233 36.5363 33.374 38.8968 30.0403 40.2907C26.7066 41.6846 23.0383 42.0493 19.4993 41.3387C15.9603 40.6281 12.7095 38.8741 10.158 36.2985C7.60655 33.7229 5.86897 30.4415 5.16502 26.869C4.46106 23.2966 4.82236 19.5937 6.20321 16.2286C7.58407 12.8634 9.92246 9.98719 12.9227 7.96357C15.9229 5.93996 19.4502 4.85986 23.0586 4.85986C27.8967 4.86156 32.5362 6.80239 35.9573 10.2558C39.3783 13.7091 41.301 18.3924 41.3027 23.2762Z" fill="#007CC5"/>
<path d="M41.2392 23.2762C41.2392 26.8933 40.1767 30.4292 38.1859 33.4367C36.1951 36.4443 33.3656 38.7883 30.0551 40.1725C26.7445 41.5567 23.1017 41.9189 19.5873 41.2133C16.0729 40.5076 12.8446 38.7658 10.3109 36.2081C7.77711 33.6504 6.05159 30.3917 5.35252 26.8441C4.65346 23.2965 5.01224 19.6193 6.38351 16.2775C7.75477 12.9358 10.0769 10.0795 13.0563 8.06995C16.0357 6.06039 19.5385 4.98779 23.1218 4.98779C25.5013 4.98695 27.8576 5.45942 30.056 6.37821C32.2545 7.29699 34.2521 8.64407 35.9346 10.3425C37.6171 12.0409 38.9516 14.0573 39.8618 16.2766C40.772 18.4958 41.2401 20.8743 41.2392 23.2762Z" fill="#007DC5"/>
<path d="M41.1125 23.2763C41.1125 26.8807 40.0537 30.4042 38.0699 33.4012C36.0861 36.3982 33.2664 38.7341 29.9675 40.1135C26.6685 41.4929 23.0384 41.8538 19.5363 41.1506C16.0342 40.4474 12.8172 38.7117 10.2923 36.1629C7.76741 33.6142 6.04793 30.3669 5.35131 26.8317C4.65469 23.2965 5.01222 19.6321 6.37869 16.302C7.74516 12.9719 10.0592 10.1257 13.0282 8.12314C15.9971 6.12061 19.4877 5.05176 23.0585 5.05176C25.4296 5.05092 27.7777 5.52174 29.9684 6.4373C32.1592 7.35287 34.1498 8.69525 35.8265 10.3877C37.5031 12.0802 38.8329 14.0896 39.74 16.301C40.647 18.5125 41.1134 20.8827 41.1125 23.2763Z" fill="#007DC6"/>
<path d="M41.0494 23.2761C41.0557 26.8616 40.0085 30.3684 38.0404 33.3531C36.0722 36.3379 33.2715 38.6664 29.9923 40.0444C26.7131 41.4223 23.1028 41.7878 19.6178 41.0945C16.1329 40.4012 12.9299 38.6803 10.4139 36.1494C7.89781 33.6186 6.18174 30.3915 5.48264 26.8761C4.78354 23.3607 5.13282 19.7151 6.48631 16.4001C7.83979 13.0851 10.1367 10.2497 13.0866 8.25247C16.0364 6.25522 19.5067 5.18581 23.0587 5.17948C25.4174 5.17444 27.7539 5.63862 29.9347 6.54548C32.1156 7.45235 34.098 8.78413 35.7688 10.4647C37.4396 12.1453 38.7659 14.1418 39.6719 16.34C40.578 18.5382 41.0461 20.8952 41.0494 23.2761Z" fill="#007EC6"/>
<path d="M40.9224 23.2761C40.9224 26.8426 39.8747 30.329 37.9118 33.2945C35.9488 36.2599 33.1589 38.5712 29.8946 39.9361C26.6304 41.3009 23.0386 41.658 19.5733 40.9622C16.108 40.2664 12.9249 38.549 10.4266 36.0271C7.92827 33.5052 6.22688 30.2921 5.5376 26.7941C4.84831 23.2961 5.20208 19.6703 6.55416 16.3753C7.90625 13.0802 10.1959 10.2639 13.1337 8.28247C16.0714 6.30102 19.5252 5.24342 23.0584 5.24342C25.405 5.24089 27.7291 5.7056 29.8976 6.61093C32.0661 7.51626 34.0364 8.84444 35.6957 10.5194C37.355 12.1944 38.6708 14.1833 39.5677 16.3723C40.4645 18.5612 40.9249 20.9073 40.9224 23.2761Z" fill="#007EC7"/>
<path d="M40.8594 23.2761C40.8594 26.8173 39.8192 30.279 37.8702 33.2235C35.9212 36.1679 33.151 38.4628 29.9099 39.8179C26.6688 41.1731 23.1024 41.5277 19.6617 40.8368C16.221 40.146 13.0605 38.4407 10.5799 35.9367C8.09931 33.4327 6.40999 30.2423 5.72559 26.7691C5.04119 23.296 5.39245 19.6959 6.73495 16.4242C8.07744 13.1526 10.3509 10.3562 13.2678 8.38883C16.1847 6.42143 19.614 5.37134 23.1221 5.37134C27.8263 5.37134 32.3379 7.25773 35.6643 10.6155C38.9907 13.9733 40.8594 18.5275 40.8594 23.2761Z" fill="#007FC7"/>
<path d="M40.7327 23.2761C40.7327 26.8047 39.6962 30.254 37.7541 33.1879C35.8121 36.1219 33.0518 38.4086 29.8223 39.7589C26.5928 41.1092 23.0392 41.4625 19.6107 40.7741C16.1823 40.0857 13.0331 38.3866 10.5614 35.8915C8.08961 33.3964 6.40633 30.2175 5.72437 26.7567C5.04242 23.2959 5.39242 19.7087 6.73013 16.4487C8.06783 13.1888 10.3331 10.4024 13.2396 8.44202C16.1461 6.48165 19.5632 5.4353 23.0588 5.4353C27.7457 5.437 32.2401 7.31719 35.5543 10.6626C38.8684 14.0081 40.7311 18.545 40.7327 23.2761Z" fill="#0080C7"/>
<path d="M40.6691 23.2763C40.6754 26.7859 39.6505 30.2185 37.7241 33.1402C35.7977 36.0618 33.0563 38.3412 29.8466 39.6901C26.6369 41.039 23.103 41.3969 19.6918 40.7184C16.2806 40.0399 13.1453 38.3555 10.6824 35.8783C8.21953 33.4012 6.53965 30.2424 5.85522 26.8014C5.17079 23.3605 5.51254 19.792 6.83726 16.5471C8.16197 13.3022 10.4102 10.5268 13.2975 8.57167C16.1849 6.61658 19.5817 5.56968 23.0585 5.56335C25.3682 5.55493 27.6568 6.00688 29.793 6.89327C31.9293 7.77966 33.8711 9.08305 35.5073 10.7287C37.1434 12.3743 38.4416 14.3298 39.3274 16.483C40.2132 18.6362 40.6691 20.9448 40.6691 23.2763Z" fill="#0080C8"/>
<path d="M40.5426 23.2762C40.5426 26.7668 39.5172 30.1791 37.596 33.0814C35.6749 35.9838 32.9442 38.2459 29.7495 39.5817C26.5547 40.9175 23.0393 41.267 19.6477 40.586C16.2562 39.905 13.1408 38.2241 10.6956 35.7559C8.25047 33.2876 6.58529 30.1429 5.91066 26.7193C5.23604 23.2958 5.58228 19.7471 6.9056 16.5222C8.22892 13.2973 10.4699 10.5409 13.3451 8.60159C16.2203 6.66229 19.6007 5.6272 23.0587 5.6272C25.3549 5.62636 27.6288 6.08229 29.7505 6.96894C31.8721 7.85558 33.7998 9.15556 35.4235 10.7946C37.0472 12.4336 38.3351 14.3796 39.2134 16.5212C40.0918 18.6629 40.5434 20.9582 40.5426 23.2762Z" fill="#0081C8"/>
<path d="M40.4791 23.2762C40.4791 26.7416 39.4612 30.1291 37.5539 33.0104C35.6467 35.8917 32.9359 38.1375 29.7642 39.4636C26.5926 40.7897 23.1026 41.1367 19.7357 40.4606C16.3687 39.7846 13.2759 38.1159 10.8485 35.6655C8.42102 33.2151 6.7679 30.0932 6.09817 26.6944C5.42844 23.2957 5.77217 19.7727 7.0859 16.5712C8.39963 13.3696 10.6243 10.6332 13.4787 8.70796C16.3331 6.78272 19.689 5.75513 23.1219 5.75513C27.7233 5.76189 32.1343 7.61003 35.3879 10.8944C38.6416 14.1788 40.4724 18.6314 40.4791 23.2762Z" fill="#0081C9"/>
<path d="M40.3525 23.2762C40.3525 26.7289 39.3382 30.1041 37.4379 32.9749C35.5376 35.8457 32.8367 38.0832 29.6766 39.4045C26.5166 40.7258 23.0394 41.0715 19.6847 40.398C16.33 39.7244 13.2485 38.0617 10.8299 35.6203C8.41133 33.1789 6.76424 30.0683 6.09695 26.682C5.42966 23.2956 5.77214 19.7856 7.08108 16.5957C8.39001 13.4058 10.6066 10.6794 13.4506 8.76116C16.2945 6.84295 19.6381 5.8191 23.0586 5.8191C25.3303 5.81658 27.5803 6.2664 29.6796 7.14281C31.7789 8.01922 33.6864 9.305 35.2928 10.9266C36.8992 12.5481 38.1729 14.4736 39.0411 16.5927C39.9093 18.7118 40.355 20.983 40.3525 23.2762Z" fill="#0082C9"/>
<path d="M40.289 23.2763C40.289 26.7037 39.2822 30.0541 37.3958 32.9039C35.5095 35.7537 32.8283 37.9748 29.6914 39.2864C26.5545 40.598 23.1028 40.9412 19.7726 40.2726C16.4425 39.6039 13.3836 37.9535 10.9828 35.5299C8.58188 33.1064 6.94686 30.0186 6.28446 26.6571C5.62206 23.2955 5.96203 19.8112 7.26137 16.6447C8.56072 13.4782 10.7611 10.7717 13.5842 8.86755C16.4073 6.96338 19.7264 5.94704 23.1218 5.94704C25.3772 5.94367 27.611 6.38961 29.6954 7.25929C31.7797 8.12898 33.6735 9.40531 35.2683 11.0152C36.8631 12.625 38.1275 14.5367 38.989 16.6407C39.8506 18.7447 40.2923 20.9996 40.289 23.2763Z" fill="#0083CA"/>
<path d="M40.1623 23.2763C40.1623 26.691 39.1592 30.0291 37.2798 32.8684C35.4004 35.7076 32.7291 37.9206 29.6038 39.2274C26.4785 40.5341 23.0395 40.876 19.7217 40.2098C16.4038 39.5437 13.3562 37.8993 10.9642 35.4847C8.57218 33.0701 6.9432 29.9937 6.28324 26.6446C5.62329 23.2954 5.962 19.824 7.25655 16.6691C8.5511 13.5143 10.7433 10.8179 13.5561 8.92071C16.3688 7.02358 19.6756 6.01099 23.0585 6.01099C27.5947 6.01099 31.9451 7.83 35.1527 11.0679C38.3603 14.3057 40.1623 18.6972 40.1623 23.2763Z" fill="#0083CA"/>
<path d="M40.0989 23.2761C40.0989 26.6655 39.1032 29.9789 37.2377 32.7971C35.3722 35.6154 32.7207 37.8119 29.6186 39.109C26.5164 40.4061 23.1029 40.7455 19.8096 40.0842C16.5164 39.423 13.4913 37.7908 11.117 35.3941C8.74274 32.9974 7.12582 29.9438 6.47075 26.6194C5.81568 23.2951 6.15189 19.8493 7.43685 16.7179C8.72181 13.5864 10.8978 10.9099 13.6897 9.02685C16.4816 7.14376 19.7639 6.13867 23.1217 6.13867C27.6243 6.13867 31.9425 7.94422 35.1264 11.1581C38.3102 14.372 40.0989 18.731 40.0989 23.2761Z" fill="#0084CB"/>
<path d="M39.9722 23.2761C39.9722 26.6529 38.9802 29.9539 37.1217 32.7616C35.2632 35.5693 32.6216 37.7577 29.531 39.0499C26.4404 40.3422 23.0396 40.6803 19.7586 40.0215C16.4777 39.3627 13.4639 37.7366 11.0985 35.3489C8.73304 32.9611 7.12216 29.9189 6.46953 26.607C5.81691 23.295 6.15186 19.8621 7.43203 16.7424C8.71219 13.6226 10.8801 10.9561 13.6615 9.08004C16.443 7.20398 19.7131 6.20264 23.0584 6.20264C25.2797 6.2018 27.4795 6.64284 29.532 7.50057C31.5844 8.35829 33.4493 9.61588 35.0201 11.2015C36.5908 12.7871 37.8367 14.6695 38.6864 16.7414C39.5361 18.8132 39.973 21.0338 39.9722 23.2761Z" fill="#0084CB"/>
<path d="M39.9092 23.2762C39.9092 26.6277 38.9247 29.9039 37.0801 32.6906C35.2355 35.4773 32.6137 37.6493 29.5462 38.9318C26.4788 40.2144 23.1035 40.55 19.8471 39.8961C16.5907 39.2423 13.5995 37.6284 11.2518 35.2585C8.90408 32.8886 7.30526 29.8692 6.65753 26.5821C6.00979 23.2949 6.34223 19.8878 7.61281 16.7914C8.88339 13.695 11.035 11.0484 13.7957 9.18642C16.5563 7.32441 19.8019 6.33057 23.1221 6.33057C25.3271 6.32889 27.5108 6.76605 29.5482 7.61705C31.5857 8.46805 33.4369 9.71619 34.9961 11.2901C36.5552 12.8639 37.7917 14.7327 38.6348 16.7894C39.4778 18.8461 39.9109 21.0504 39.9092 23.2762Z" fill="#0085CB"/>
<path d="M39.7825 23.2762C39.7825 26.615 38.8017 29.8789 36.964 32.6551C35.1264 35.4313 32.5145 37.595 29.4586 38.8728C26.4028 40.1505 23.0402 40.4848 19.7961 39.8334C16.552 39.182 13.5721 37.5742 11.2332 35.2133C8.89439 32.8524 7.3016 29.8443 6.65631 26.5696C6.01102 23.2949 6.34221 19.9006 7.60799 16.8159C8.87377 13.7311 11.0173 11.0946 13.7675 9.23961C16.5177 7.38463 19.7511 6.39454 23.0587 6.39454C25.2556 6.39202 27.4315 6.82695 29.4616 7.67444C31.4918 8.52193 33.3364 9.76532 34.8898 11.3334C36.4432 12.9015 37.675 14.7636 38.5146 16.8129C39.3541 18.8622 39.785 21.0585 39.7825 23.2762Z" fill="#0085CC"/>
<path d="M39.7191 23.2762C39.7191 26.5898 38.7457 29.829 36.922 32.5841C35.0982 35.3392 32.5061 37.4866 29.4734 38.7547C26.4407 40.0227 23.1036 40.3545 19.8841 39.708C16.6645 39.0616 13.7072 37.466 11.3861 35.1229C9.06494 32.7799 7.48422 29.7946 6.84382 26.5447C6.20342 23.2948 6.53209 19.9262 7.78829 16.8648C9.04448 13.8035 11.1718 11.1869 13.9011 9.34599C16.6305 7.50507 19.8394 6.52248 23.122 6.52248C25.3025 6.51911 27.4622 6.95016 29.4774 7.79092C31.4925 8.63168 33.3235 9.86563 34.8653 11.422C36.4072 12.9784 37.6296 14.8267 38.4625 16.8609C39.2954 18.895 39.7224 21.0751 39.7191 23.2762Z" fill="#0086CC"/>
<path d="M39.5922 23.2762C39.6048 26.5799 38.6458 29.8129 36.8367 32.566C35.0275 35.319 32.4497 37.4681 29.4297 38.7411C26.4097 40.0141 23.0833 40.3538 19.872 39.7171C16.6606 39.0803 13.7086 37.4958 11.39 35.1643C9.07136 32.8327 7.49038 29.859 6.84727 26.6198C6.20416 23.3806 6.52786 20.0215 7.77738 16.9681C9.02689 13.9147 11.146 11.3044 13.8663 9.46763C16.5866 7.63089 19.7858 6.65041 23.0585 6.65039C27.4316 6.65372 31.6255 8.40441 34.7236 11.5198C37.8217 14.6352 39.5722 18.862 39.5922 23.2762Z" fill="#0087CD"/>
<path d="M39.529 23.2763C39.5416 26.5673 38.5863 29.788 36.7841 32.5305C34.982 35.273 32.414 37.4139 29.4056 38.6821C26.3972 39.9503 23.0835 40.2887 19.8844 39.6544C16.6853 39.0201 13.7447 37.4417 11.4349 35.1191C9.12514 32.7965 7.55019 29.8342 6.90953 26.6074C6.26886 23.3805 6.59131 20.0344 7.83603 16.9927C9.08075 13.951 11.1917 11.3506 13.9016 9.52085C16.6115 7.69113 19.7984 6.71441 23.0586 6.71439C25.2174 6.71018 27.3559 7.13524 29.3519 7.96528C31.3479 8.79532 33.1624 10.0141 34.6919 11.552C36.2213 13.0899 37.4356 14.9169 38.2656 16.9285C39.0956 18.9402 39.5249 21.0971 39.529 23.2763Z" fill="#0087CD"/>
<path d="M39.4022 23.2763C39.4022 26.5393 38.4437 29.729 36.6478 32.4421C34.8519 35.1551 32.2994 37.2697 29.313 38.5184C26.3266 39.7671 23.0404 40.0938 19.87 39.4572C16.6997 38.8207 13.7875 37.2494 11.5018 34.9421C9.2161 32.6348 7.65952 29.6952 7.02889 26.4949C6.39827 23.2946 6.72193 19.9774 7.95894 16.9628C9.19595 13.9482 11.2908 11.3715 13.9785 9.55873C16.6662 7.74591 19.8261 6.77832 23.0585 6.77832C25.2048 6.77832 27.3301 7.20505 29.313 8.03415C31.2959 8.86325 33.0976 10.0785 34.6153 11.6105C36.1329 13.1424 37.3368 14.9612 38.1581 16.9628C38.9795 18.9644 39.4022 21.1097 39.4022 23.2763Z" fill="#0088CE"/>
<path d="M39.3388 23.2761C39.3388 26.5138 38.3877 29.6788 36.6057 32.3708C34.8238 35.0628 32.291 37.161 29.3278 38.4C26.3645 39.6391 23.1038 39.9632 19.958 39.3316C16.8122 38.7 13.9226 37.1409 11.6546 34.8515C9.38665 32.5621 7.84213 29.6452 7.2164 26.4697C6.59066 23.2942 6.91181 20.0028 8.13924 17.0115C9.36666 14.0203 11.4452 11.4636 14.1121 9.66486C16.779 7.86609 19.9144 6.90601 23.1218 6.90601C25.2517 6.90517 27.3608 7.32802 29.3287 8.15039C31.2966 8.97277 33.0847 10.1785 34.5908 11.6988C36.0968 13.2191 37.2913 15.024 38.106 17.0105C38.9207 18.997 39.3396 21.1261 39.3388 23.2761Z" fill="#0089CE"/>
<path d="M39.2121 23.2761C39.2121 26.5011 38.2647 29.6538 36.4897 32.3353C34.7147 35.0168 32.1919 37.1068 29.2402 38.341C26.2885 39.5752 23.0405 39.8981 19.907 39.2689C16.7735 38.6397 13.8952 37.0867 11.6361 34.8063C9.37696 32.5258 7.83847 29.6203 7.21518 26.4573C6.59189 23.2942 6.91178 20.0156 8.13442 17.036C9.35705 14.0565 11.4275 11.5098 14.084 9.71805C16.7404 7.92631 19.8635 6.96998 23.0584 6.96998C25.1802 6.96829 27.2815 7.38892 29.2421 8.20778C31.2027 9.02664 32.9842 10.2277 34.4845 11.7422C35.9848 13.2567 37.1746 15.0549 37.9858 17.034C38.7971 19.0131 39.2137 21.1343 39.2121 23.2761Z" fill="#0089CF"/>
<path d="M39.149 23.2761C39.1552 26.4822 38.2195 29.6181 36.4602 32.2874C34.7008 34.9566 32.1969 37.0393 29.265 38.2721C26.333 39.5048 23.1048 39.8322 19.9885 39.213C16.8723 38.5937 14.0079 37.0555 11.7576 34.793C9.50736 32.5304 7.97229 29.6451 7.34652 26.5019C6.72075 23.3586 7.03239 20.0987 8.24204 17.1342C9.45168 14.1698 11.505 11.634 14.1423 9.84755C16.7797 8.0611 19.8826 7.1042 23.0587 7.09787C25.1694 7.08691 27.2614 7.49742 29.2143 8.30578C31.1673 9.11414 32.9425 10.3044 34.438 11.808C35.9335 13.3116 37.1196 15.099 37.9281 17.0671C38.7366 19.0353 39.1515 21.1454 39.149 23.2761Z" fill="#008ACF"/>
<path d="M39.0219 23.2761C39.0219 26.4633 38.0857 29.5788 36.3316 32.2288C34.5775 34.8787 32.0843 36.9442 29.1673 38.1638C26.2504 39.3835 23.0406 39.7026 19.944 39.0808C16.8474 38.459 14.0029 36.9243 11.7704 34.6707C9.53781 32.417 8.01743 29.5458 7.40147 26.4199C6.78551 23.294 7.10164 20.054 8.30989 17.1095C9.51814 14.165 11.5642 11.6483 14.1894 9.87761C16.8146 8.10695 19.901 7.16187 23.0583 7.16187C27.2911 7.16525 31.3496 8.86409 34.3426 11.8854C37.3356 14.9067 39.0186 19.0034 39.0219 23.2761Z" fill="#008AD0"/>
<path d="M38.959 23.2762C38.959 26.438 38.0301 29.5288 36.29 32.1578C34.5498 34.7867 32.0764 36.8357 29.1826 38.0457C26.2888 39.2557 23.1045 39.5723 20.0324 38.9554C16.9604 38.3386 14.1385 36.816 11.9237 34.5803C9.70885 32.3445 8.20054 29.496 7.58947 26.395C6.97839 23.2939 7.29202 20.0796 8.49068 17.1585C9.68933 14.2373 11.7192 11.7406 14.3236 9.98399C16.9279 8.22738 19.9898 7.28979 23.1221 7.28979C27.3223 7.28979 31.3505 8.97407 34.3204 11.9721C37.2904 14.9701 38.959 19.0363 38.959 23.2762Z" fill="#008BD0"/>
<path d="M38.8323 23.2762C38.8323 26.4254 37.9072 29.5038 36.174 32.1222C34.4407 34.7407 31.9772 36.7815 29.095 37.9866C26.2128 39.1918 23.0412 39.5071 19.9815 38.8927C16.9217 38.2783 14.1111 36.7619 11.9051 34.5351C9.69916 32.3083 8.19687 29.4712 7.58825 26.3825C6.97962 23.2939 7.29199 20.0924 8.48585 17.183C9.67972 14.2735 11.7015 11.7868 14.2954 10.0372C16.8893 8.28759 19.939 7.35376 23.0587 7.35376C27.2421 7.35376 31.2542 9.0313 34.2123 12.0173C37.1704 15.0034 38.8323 19.0533 38.8323 23.2762Z" fill="#008CD0"/>
<path d="M38.7688 23.2763C38.7688 26.4001 37.8512 29.4538 36.1319 32.0512C34.4126 34.6486 31.9688 36.6731 29.1098 37.8685C26.2507 39.064 23.1046 39.3768 20.0694 38.7673C17.0342 38.1579 14.2462 36.6536 12.058 34.4447C9.86971 32.2358 8.37949 29.4215 7.77575 26.3576C7.17202 23.2938 7.48188 20.118 8.66615 17.2319C9.85042 14.3459 11.8559 11.8791 14.429 10.1436C17.0021 8.40803 20.0273 7.48169 23.122 7.48169C25.177 7.48085 27.212 7.88882 29.1107 8.68227C31.0095 9.47572 32.7347 10.6391 34.1878 12.1059C35.6409 13.5728 36.7934 15.3143 37.5795 17.2309C38.3655 19.1476 38.7697 21.2018 38.7688 23.2763Z" fill="#008CD1"/>
<path d="M38.6421 23.2763C38.6421 26.3875 37.7282 29.4288 36.0158 32.0157C34.3035 34.6026 31.8697 36.6189 29.0222 37.8095C26.1747 39.0001 23.0413 39.3116 20.0184 38.7046C16.9955 38.0977 14.2188 36.5995 12.0394 34.3995C9.86002 32.1995 8.37583 29.3966 7.77454 26.3452C7.17324 23.2937 7.48185 20.1308 8.66133 17.2564C9.84081 14.382 11.8382 11.9252 14.4009 10.1967C16.9636 8.46824 19.9765 7.54566 23.0586 7.54566C25.1055 7.54398 27.1327 7.94971 29.0241 8.73966C30.9156 9.5296 32.6341 10.6882 34.0815 12.1493C35.5289 13.6104 36.6767 15.3452 37.4593 17.2544C38.2419 19.1637 38.6438 21.21 38.6421 23.2763Z" fill="#008DD1"/>
<path d="M38.5787 23.2761C38.5787 26.362 37.6722 29.3786 35.9737 31.9445C34.2753 34.5103 31.8613 36.5102 29.0369 37.6911C26.2126 38.872 23.1047 39.181 20.1064 38.579C17.1081 37.977 14.3539 36.4909 12.1922 34.3089C10.0306 32.1268 8.55845 29.3466 7.96204 26.32C7.36564 23.2934 7.67174 20.1562 8.84163 17.3052C10.0115 14.4541 11.9927 12.0173 14.5345 10.3029C17.0764 8.58843 20.0648 7.67335 23.1219 7.67335C25.1524 7.67083 27.1635 8.07268 29.0399 8.8559C30.9163 9.63911 32.6213 10.7883 34.0571 12.2377C35.4929 13.687 36.6313 15.408 37.4072 17.3022C38.1831 19.1963 38.5812 21.2264 38.5787 23.2761Z" fill="#008DD2"/>
<path d="M38.452 23.2761C38.452 26.3494 37.5492 29.3536 35.8577 31.909C34.1663 34.4643 31.7621 36.4559 28.9493 37.632C26.1366 38.8081 23.0414 39.1158 20.0554 38.5163C17.0694 37.9167 14.3265 36.4368 12.1737 34.2637C10.0209 32.0905 8.55479 29.3218 7.96083 26.3075C7.36687 23.2933 7.67171 20.169 8.8368 17.3296C10.0019 14.4903 11.9749 12.0635 14.5064 10.3561C17.0378 8.64864 20.014 7.7373 23.0585 7.7373C27.1396 7.74238 31.052 9.38113 33.9378 12.2941C36.8235 15.2071 38.447 19.1565 38.452 23.2761Z" fill="#008ED2"/>
<path d="M38.3889 23.2762C38.3951 26.3305 37.504 29.3181 35.8282 31.8612C34.1524 34.4042 31.7672 36.3886 28.9741 37.5632C26.1811 38.7379 23.1058 39.0502 20.1369 38.4605C17.1681 37.8708 14.4392 36.4057 12.2952 34.2505C10.1513 32.0953 8.68861 29.3467 8.09217 26.3523C7.49573 23.3579 7.79232 20.2522 8.94443 17.428C10.0965 14.6038 12.0524 12.1878 14.5647 10.4857C17.0771 8.78356 20.033 7.87167 23.0587 7.86534C25.0687 7.85777 27.0604 8.25075 28.9196 9.02174C30.7787 9.79274 32.4689 10.9266 33.8931 12.3583C35.3173 13.79 36.4475 15.4914 37.219 17.3649C37.9905 19.2385 38.388 21.2473 38.3889 23.2762Z" fill="#008FD3"/>
<path d="M38.2618 23.2761C38.2618 26.3115 37.3702 29.2786 35.6996 31.8024C34.029 34.3262 31.6546 36.2933 28.8765 37.4549C26.0985 38.6164 23.0415 38.9204 20.0924 38.3282C17.1432 37.736 14.4342 36.2744 12.308 34.1281C10.1817 31.9818 8.73374 29.2472 8.14712 26.2702C7.56049 23.2932 7.86157 20.2074 9.01228 17.4031C10.163 14.5988 12.1117 12.202 14.6118 10.5156C17.112 8.82928 20.0515 7.9292 23.0584 7.9292C27.0906 7.9292 30.9577 9.5461 33.8089 12.4242C36.6601 15.3023 38.2618 19.2059 38.2618 23.2761Z" fill="#008FD3"/>
<path d="M38.1984 23.2762C38.1984 26.2862 37.3142 29.2287 35.6575 31.7314C34.0009 34.2342 31.6462 36.1849 28.8913 37.3367C26.1364 38.4886 23.1049 38.79 20.1803 38.2028C17.2557 37.6156 14.5693 36.1661 12.4608 34.0377C10.3523 31.9092 8.91636 29.1975 8.33462 26.2453C7.75288 23.2931 8.05145 20.233 9.19258 17.4521C10.3337 14.6712 12.2661 12.2943 14.7455 10.622C17.2248 8.94971 20.1398 8.05713 23.1217 8.05713C25.1018 8.05629 27.0627 8.44937 28.8923 9.2139C30.7218 9.97843 32.3842 11.0994 33.7844 12.5128C35.1845 13.9262 36.2951 15.6043 37.0524 17.4511C37.8098 19.2979 38.1992 21.2773 38.1984 23.2762Z" fill="#0090D3"/>
<path d="M38.0717 23.2762C38.0717 26.2736 37.1912 29.2037 35.5415 31.6959C33.8918 34.1882 31.547 36.1306 28.8037 37.2777C26.0603 38.4247 23.0417 38.7249 20.1293 38.1401C17.217 37.5553 14.5419 36.112 12.4422 33.9925C10.3426 31.873 8.9127 29.1726 8.33341 26.2328C7.75411 23.293 8.05143 20.2458 9.18775 17.4766C10.3241 14.7074 12.2484 12.3405 14.7173 10.6752C17.1863 9.00993 20.0889 8.1211 23.0583 8.1211C25.0301 8.12025 26.9828 8.51168 28.8047 9.273C30.6266 10.0343 32.2819 11.1506 33.6762 12.558C35.0705 13.9655 36.1764 15.6365 36.9306 17.4756C37.6848 19.3147 38.0725 21.2858 38.0717 23.2762Z" fill="#0091D4"/>
<path d="M38.0087 23.2762C38.0087 26.2483 37.1356 29.1537 35.4999 31.6249C33.8641 34.0961 31.5391 36.0222 28.8189 37.1596C26.0988 38.297 23.1055 38.5945 20.2178 38.0147C17.3301 37.4349 14.6775 36.0037 12.5956 33.9021C10.5136 31.8005 9.09581 29.1229 8.5214 26.2079C7.947 23.2929 8.2418 20.2714 9.36854 17.5256C10.4953 14.7797 12.4033 12.4328 14.8514 10.7816C17.2995 9.13037 20.1777 8.24904 23.122 8.24904C25.0777 8.24651 27.0146 8.63348 28.8219 9.38777C30.6292 10.1421 32.2713 11.2489 33.6541 12.6448C35.037 14.0407 36.1334 15.6983 36.8806 17.5226C37.6279 19.3469 38.0112 21.3021 38.0087 23.2762Z" fill="#0091D4"/>
<path d="M37.882 23.2763C37.882 26.2357 37.0127 29.1287 35.3839 31.5894C33.755 34.0501 31.44 35.968 28.7313 37.1005C26.0227 38.233 23.0423 38.5294 20.1668 37.952C17.2914 37.3746 14.6501 35.9495 12.577 33.8569C10.5039 31.7642 9.09215 29.098 8.52018 26.1954C7.94822 23.2929 8.24177 20.2842 9.36372 17.5501C10.4857 14.8159 12.3856 12.4789 14.8233 10.8348C17.261 9.19057 20.1269 8.31299 23.0587 8.31299C26.9886 8.31806 30.756 9.89618 33.5348 12.7012C36.3137 15.5063 37.877 19.3093 37.882 23.2763Z" fill="#0092D5"/>
<path d="M37.8186 23.2763C37.8186 26.2105 36.9566 29.0787 35.3418 31.5184C33.7269 33.958 31.4316 35.8595 28.7461 36.9824C26.0606 38.1052 23.1056 38.399 20.2548 37.8266C17.4039 37.2542 14.7852 35.8413 12.7298 33.7665C10.6745 31.6917 9.27476 29.0483 8.70769 26.1705C8.14062 23.2927 8.43166 20.3099 9.54402 17.599C10.6564 14.8882 12.5401 12.5713 14.9569 10.9411C17.3738 9.311 20.2152 8.44092 23.1219 8.44092C27.0187 8.4443 30.7549 10.0084 33.5103 12.7898C36.2658 15.5713 37.8152 19.3427 37.8186 23.2763Z" fill="#0092D5"/>
<path d="M37.6919 23.2762C37.6919 26.1977 36.8337 29.0536 35.2257 31.4828C33.6178 33.9119 31.3324 35.8052 28.6585 36.9232C25.9846 38.0412 23.0424 38.3338 20.2038 37.7638C17.3652 37.1938 14.7578 35.787 12.7113 33.7212C10.6648 31.6554 9.2711 29.0233 8.70647 26.158C8.14185 23.2926 8.43163 20.3226 9.53919 17.6234C10.6468 14.9243 12.5223 12.6173 14.9288 10.9942C17.3352 9.37111 20.1644 8.50478 23.0586 8.50478C24.9826 8.49632 26.8892 8.87261 28.6684 9.61195C30.4476 10.3513 32.0641 11.439 33.4246 12.8124C34.7851 14.1857 35.8626 15.8175 36.5951 17.6134C37.3275 19.4094 37.7003 21.334 37.6919 23.2762Z" fill="#0093D6"/>
<path d="M37.6285 23.2761C37.6411 26.1877 36.7972 29.0375 35.2039 31.4645C33.6106 33.8915 31.3395 35.7866 28.6783 36.9096C26.0171 38.0325 23.0856 38.3329 20.2552 37.7727C17.4247 37.2124 14.8227 35.8168 12.7787 33.7624C10.7347 31.7081 9.34074 29.0876 8.7734 26.2329C8.20607 23.3782 8.49088 20.4178 9.59176 17.7266C10.6926 15.0354 12.56 12.7347 14.9574 11.1157C17.3548 9.49681 20.1742 8.6326 23.0586 8.63257C26.9118 8.63253 30.6082 10.1733 33.3388 12.9177C36.0694 15.662 37.6118 19.3865 37.6285 23.2761Z" fill="#0094D6"/>
<path d="M37.5018 23.2761C37.5018 26.1597 36.6547 28.9785 35.0676 31.3761C33.4806 33.7737 31.2249 35.6424 28.5857 36.7459C25.9465 37.8494 23.0425 38.1381 20.2408 37.5756C17.439 37.013 14.8655 35.6244 12.8456 33.5855C10.8256 31.5465 9.45006 28.9486 8.89276 26.1205C8.33547 23.2923 8.62149 20.3608 9.71467 17.6968C10.8078 15.0327 12.6591 12.7557 15.0343 11.1536C17.4094 9.55161 20.2019 8.69653 23.0585 8.69653C24.9554 8.69569 26.834 9.07223 28.5867 9.80463C30.3394 10.537 31.9319 11.6109 33.2733 12.9649C34.6146 14.3189 35.6785 15.9265 36.404 17.6958C37.1296 19.465 37.5026 21.3613 37.5018 23.2761Z" fill="#0094D6"/>
<path d="M37.4386 23.2762C37.4449 26.1435 36.6079 28.9482 35.0337 31.3349C33.4595 33.7216 31.219 35.583 28.5959 36.6832C25.9728 37.7834 23.0852 38.0729 20.299 37.5151C17.5128 36.9572 14.9532 35.5771 12.9447 33.5496C10.9362 31.5221 9.56897 28.9385 9.01635 26.1259C8.46373 23.3134 8.75054 20.3986 9.84045 17.7507C10.9304 15.1029 12.7743 12.8412 15.1387 11.2521C17.5031 9.66306 20.2816 8.81818 23.1221 8.8245C25.0026 8.82282 26.865 9.19547 28.6027 9.92114C30.3405 10.6468 31.9194 11.7113 33.2491 13.0536C34.5789 14.3959 35.6334 15.9897 36.3522 17.7438C37.0711 19.4979 37.4403 21.3779 37.4386 23.2762Z" fill="#0095D7"/>
<path d="M37.3116 23.2762C37.3116 26.1218 36.4757 28.9035 34.9095 31.2696C33.3433 33.6356 31.1173 35.4798 28.5129 36.5687C25.9084 37.6577 23.0426 37.9426 20.2777 37.3875C17.5129 36.8323 14.9732 35.462 12.9799 33.4499C10.9865 31.4377 9.62902 28.874 9.07905 26.0831C8.52909 23.2921 8.81135 20.3992 9.89014 17.7702C10.9689 15.1412 12.7958 12.8941 15.1397 11.3132C17.4837 9.73226 20.2394 8.88843 23.0584 8.88843C26.837 8.8935 30.4595 10.411 33.1314 13.1081C35.8033 15.8052 37.3066 19.4619 37.3116 23.2762Z" fill="#0095D7"/>
<path d="M37.2485 23.2763C37.2547 26.1056 36.4289 28.8732 34.8756 31.2284C33.3223 33.5836 31.1114 35.4203 28.523 36.506C25.9347 37.5917 23.0853 37.8774 20.336 37.327C17.5866 36.7765 15.0609 35.4147 13.079 33.414C11.097 31.4134 9.74793 28.8639 9.20264 26.0886C8.65735 23.3132 8.9404 20.437 10.0159 17.8242C11.0914 15.2114 12.911 12.9796 15.2442 11.4117C17.5773 9.8437 20.3191 9.01007 23.122 9.01639C26.8675 9.01978 30.4587 10.5232 33.1072 13.1968C35.7557 15.8703 37.2451 19.4953 37.2485 23.2763Z" fill="#0096D8"/>
<path d="M37.1215 23.2763C37.1215 26.084 36.2967 28.8286 34.7514 31.1631C33.2061 33.4976 31.0097 35.3171 28.44 36.3916C25.8703 37.466 23.0427 37.7472 20.3147 37.1994C17.5867 36.6517 15.0809 35.2996 13.1141 33.3143C11.1474 31.329 9.80797 28.7995 9.26534 26.0458C8.72271 23.292 9.00121 20.4377 10.0656 17.8437C11.13 15.2498 12.9325 13.0327 15.2452 11.4728C17.5579 9.91293 20.2769 9.08036 23.0583 9.08036C24.9063 9.07614 26.7369 9.44045 28.445 10.1524C30.1531 10.8643 31.705 11.9098 33.0118 13.2288C34.3185 14.5479 35.3542 16.1145 36.0595 17.8387C36.7647 19.563 37.1256 21.4109 37.1215 23.2763Z" fill="#0097D8"/>
<path d="M37.0583 23.2761C37.0646 26.0675 36.2499 28.798 34.7175 31.1216C33.1851 33.4452 31.0038 35.2574 28.4502 36.3286C25.8966 37.3997 23.0854 37.6817 20.3729 37.1386C17.6604 36.5956 15.1686 35.2521 13.2133 33.2782C11.2579 31.3044 9.92688 28.7891 9.38893 26.051C8.85098 23.3128 9.13026 20.4752 10.1914 17.8974C11.2525 15.3197 13.0478 13.1179 15.3497 11.571C17.6516 10.0241 20.3565 9.20172 23.1219 9.20804C26.818 9.20804 30.3628 10.6902 32.9764 13.3285C35.59 15.9667 37.0583 19.545 37.0583 23.2761Z" fill="#0097D9"/>
<path d="M36.9318 23.2763C36.9318 26.046 36.1182 28.7536 34.5938 31.0566C33.0694 33.3595 30.9027 35.1544 28.3677 36.2144C25.8327 37.2743 23.0433 37.5516 20.3522 37.0113C17.661 36.4709 15.1891 35.1372 13.2489 33.1787C11.3087 31.2202 9.98742 28.7249 9.45212 26.0084C8.91682 23.2918 9.19156 20.4761 10.2416 17.9172C11.2916 15.3583 13.0698 13.1711 15.3512 11.6323C17.6326 10.0935 20.3148 9.27222 23.0587 9.27222C24.8808 9.27138 26.6851 9.63303 28.3687 10.3365C30.0522 11.04 31.5819 12.0715 32.8703 13.372C34.1587 14.6726 35.1806 16.2167 35.8775 17.9162C36.5744 19.6156 36.9326 21.437 36.9318 23.2763Z" fill="#0098D9"/>
<path d="M36.8682 23.2761C36.8619 26.0269 36.0477 28.714 34.5286 30.9977C33.0094 33.2813 30.8535 35.059 28.3335 36.1058C25.8135 37.1526 23.0425 37.4216 20.3711 36.8787C17.6996 36.3359 15.2476 35.0056 13.3252 33.056C11.4027 31.1065 10.0961 28.6252 9.57062 25.9261C9.04513 23.2269 9.32435 20.4311 10.373 17.8922C11.4216 15.3532 13.1925 13.1852 15.4618 11.6622C17.731 10.1392 20.3967 9.32966 23.1218 9.33597C24.9328 9.33426 26.7263 9.69413 28.399 10.3949C30.0717 11.0956 31.5905 12.1234 32.8682 13.419C34.1458 14.7147 35.157 16.2526 35.8435 17.9443C36.53 19.636 36.8782 21.448 36.8682 23.2761Z" fill="#0099DA"/>
<path d="M36.7417 23.2761C36.7417 26.0079 35.9392 28.6784 34.4356 30.9498C32.9321 33.2212 30.7951 34.9915 28.2949 36.037C25.7946 37.0824 23.0434 37.3559 20.3891 36.823C17.7349 36.29 15.2968 34.9745 13.3832 33.0428C11.4696 31.1112 10.1664 28.6501 9.63841 25.9707C9.11045 23.2914 9.38142 20.5143 10.4171 17.9904C11.4527 15.4665 13.2065 13.3094 15.4567 11.7916C17.7068 10.2739 20.3523 9.46387 23.0586 9.46387C26.6855 9.47063 30.162 10.928 32.7266 13.5168C35.2912 16.1057 36.735 19.615 36.7417 23.2761Z" fill="#0099DA"/>
<path d="M36.678 23.2762C36.6718 25.989 35.8687 28.639 34.3704 30.8911C32.8722 33.1432 30.7459 34.8963 28.2607 35.9286C25.7754 36.9609 23.0426 37.2261 20.4081 36.6907C17.7735 36.1552 15.3553 34.8432 13.4594 32.9204C11.5636 30.9977 10.2751 28.5507 9.75691 25.8887C9.23875 23.2268 9.51421 20.4695 10.5484 17.9656C11.5827 15.4617 13.3292 13.3236 15.5672 11.8217C17.8052 10.3198 20.4342 9.52155 23.1217 9.52787C24.9068 9.52954 26.674 9.88676 28.3222 10.5791C29.9703 11.2713 31.4669 12.2851 32.7262 13.5623C33.9855 14.8394 34.9828 16.3549 35.661 18.0217C36.3391 19.6886 36.6847 21.4742 36.678 23.2762Z" fill="#009ADA"/>
<path d="M36.5515 23.2762C36.5515 25.9701 35.7602 28.6034 34.2775 30.8433C32.7949 33.0832 30.6876 34.8289 28.222 35.8598C25.7565 36.8907 23.0435 37.1604 20.4261 36.6349C17.8087 36.1094 15.4045 34.8121 13.5175 32.9073C11.6304 31.0024 10.3453 28.5755 9.8247 25.9334C9.30407 23.2913 9.57128 20.5527 10.5925 18.0639C11.6138 15.5751 13.3432 13.4479 15.5621 11.9513C17.7811 10.4546 20.3898 9.6558 23.0585 9.6558C24.8316 9.65158 26.588 10.001 28.227 10.684C29.8659 11.367 31.355 12.3701 32.6088 13.6357C33.8626 14.9013 34.8563 16.4045 35.5329 18.0589C36.2095 19.7133 36.5557 21.4864 36.5515 23.2762Z" fill="#009BDB"/>
<path d="M36.4884 23.2762C36.4821 25.9511 35.6902 28.564 34.2128 30.7846C32.7354 33.0052 30.6389 34.7336 28.1883 35.7514C25.7378 36.7692 23.0432 37.0306 20.4455 36.5026C17.8478 35.9745 15.4635 34.6807 13.5942 32.7848C11.7249 30.8889 10.4545 28.4761 9.94369 25.8514C9.43287 23.2266 9.70456 20.508 10.7244 18.0391C11.7442 15.5703 13.4664 13.4621 15.6732 11.9813C17.88 10.5005 20.4722 9.71345 23.122 9.71976C26.6733 9.73499 30.074 11.1702 32.5792 13.711C35.0844 16.2519 36.4901 19.6914 36.4884 23.2762Z" fill="#009BDB"/>
<path d="M36.3614 23.2762C36.3614 25.9321 35.5812 28.5284 34.1194 30.7367C32.6577 32.9451 30.58 34.6662 28.1492 35.6826C25.7184 36.699 23.0436 36.9649 20.4631 36.4468C17.8826 35.9286 15.5122 34.6497 13.6517 32.7717C11.7913 30.8936 10.5243 28.5009 10.011 25.896C9.49769 23.2911 9.76114 20.5911 10.768 18.1373C11.7749 15.6836 13.48 13.5863 15.6676 12.1108C17.8553 10.6352 20.4273 9.84766 23.0584 9.84766C26.5865 9.84766 29.9702 11.2624 32.465 13.7808C34.9598 16.2991 36.3614 19.7147 36.3614 23.2762Z" fill="#009CDC"/>
<path d="M36.2982 23.2763C36.292 25.9132 35.5112 28.4891 34.0547 30.6781C32.5982 32.8671 30.5313 34.571 28.1155 35.5743C25.6997 36.5775 23.0434 36.8351 20.4825 36.3145C17.9216 35.7938 15.5712 34.5183 13.7285 32.6493C11.8858 30.7802 10.6335 28.4015 10.13 25.814C9.62649 23.2265 9.89442 20.5464 10.8999 18.1126C11.9053 15.6788 13.6032 13.6006 15.7787 12.1409C17.9542 10.6811 20.5097 9.90534 23.1219 9.91166C26.6239 9.92351 29.9781 11.3374 32.4484 13.843C34.9187 16.3487 36.3033 19.7413 36.2982 23.2763Z" fill="#009CDC"/>
<path d="M36.1717 23.2763C36.1717 25.8943 35.4027 28.4535 33.9618 30.6302C32.5209 32.807 30.473 34.5036 28.0769 35.5054C25.6808 36.5073 23.0442 36.7694 20.5006 36.2587C17.9569 35.7479 15.6204 34.4873 13.7865 32.6361C11.9526 30.7849 10.7037 28.4263 10.1978 25.8586C9.6918 23.291 9.95148 20.6295 10.944 18.2108C11.9365 15.7921 13.6172 13.7248 15.7736 12.2703C17.93 10.8159 20.4653 10.0396 23.0588 10.0396C26.5345 10.0463 29.8659 11.4431 32.3236 13.924C34.7813 16.4049 36.165 19.7678 36.1717 23.2763Z" fill="#009DDD"/>
<path d="M36.1081 23.2761C36.1018 25.8751 35.3322 28.4139 33.8966 30.5713C32.4609 32.7288 30.4238 34.4081 28.0427 35.3968C25.6616 36.3856 23.0435 36.6394 20.5195 36.1261C17.9955 35.6129 15.6789 34.3557 13.8628 32.5134C12.0466 30.6712 10.8124 28.3267 10.3163 25.7764C9.82011 23.2261 10.0843 20.5846 11.0754 18.1858C12.0664 15.7871 13.7399 13.7389 15.8842 12.3002C18.0284 10.8615 20.5471 10.097 23.1218 10.1033C26.5713 10.1219 29.8733 11.5177 32.3065 13.9859C34.7398 16.4541 36.1065 19.794 36.1081 23.2761Z" fill="#009EDD"/>
<path d="M35.9816 23.2761C35.9816 25.8562 35.2237 28.3783 33.8037 30.5235C32.3837 32.6687 30.3654 34.3407 28.004 35.328C25.6427 36.3154 23.0443 36.5737 20.5375 36.0704C18.0307 35.567 15.7281 34.3246 13.9208 32.5003C12.1135 30.6759 10.8827 28.3515 10.3841 25.8211C9.88542 23.2906 10.1413 20.6677 11.1194 18.2841C12.0976 15.9004 13.7539 13.8631 15.8791 12.4297C18.0042 10.9963 20.5027 10.2312 23.0587 10.2312C24.7567 10.2279 26.4386 10.563 28.008 11.2173C29.5774 11.8717 31.0033 12.8325 32.204 14.0445C33.4047 15.2565 34.3564 16.6959 35.0047 18.2801C35.6529 19.8643 35.9849 21.5621 35.9816 23.2761Z" fill="#009EDD"/>
<path d="M35.918 23.2762C35.9117 25.8372 35.1532 28.3389 33.7385 30.4648C32.3237 32.5907 30.3162 34.2454 27.9698 35.2197C25.6234 36.1939 23.0436 36.4439 20.5564 35.938C18.0693 35.4322 15.7866 34.1932 13.997 32.3778C12.2075 30.5624 10.9914 28.2521 10.5026 25.739C10.0137 23.2259 10.2741 20.623 11.2508 18.2593C12.2275 15.8956 13.8766 13.8773 15.9896 12.4597C18.1026 11.0422 20.5846 10.2889 23.1217 10.2952C26.5218 10.3104 29.7774 11.685 32.1757 14.1179C34.5741 16.5509 35.9197 19.8439 35.918 23.2762Z" fill="#009FDE"/>
<path d="M35.7914 23.2762C35.7914 25.8183 35.0447 28.3033 33.6456 30.4169C32.2464 32.5306 30.2578 34.178 27.9312 35.1508C25.6046 36.1237 23.0444 36.3782 20.5745 35.8823C18.1046 35.3863 15.8358 34.1622 14.0551 32.3646C12.2743 30.5671 11.0616 28.2769 10.5703 25.7837C10.079 23.2904 10.3312 20.7061 11.2949 18.3575C12.2586 16.0089 13.8906 14.0015 15.9846 12.5892C18.0785 11.1769 20.5402 10.4231 23.0586 10.4231C26.4355 10.4231 29.6742 11.7773 32.0621 14.1877C34.4499 16.5981 35.7914 19.8673 35.7914 23.2762Z" fill="#009FDE"/>
<path d="M35.7282 23.2761C35.7282 25.8083 34.9835 28.2834 33.5885 30.3879C32.1936 32.4925 30.2111 34.1316 27.8924 35.0977C25.5736 36.0638 23.023 36.3133 20.5636 35.8146C18.1042 35.3159 15.8469 34.0915 14.0776 32.2965C12.3082 30.5015 11.1066 28.2167 10.6249 25.7317C10.1433 23.2467 10.4032 20.6732 11.3719 18.3374C12.3405 16.0017 13.9742 14.0087 16.0661 12.6112C18.1579 11.2136 20.6136 10.4743 23.122 10.487C26.4712 10.5039 29.6775 11.8588 32.0398 14.2554C34.4021 16.6519 35.7283 19.8953 35.7282 23.2761Z" fill="#00A0DF"/>
<path d="M35.6013 23.2762C35.6013 25.7804 34.8657 28.2283 33.4874 30.3104C32.1092 32.3925 30.1503 34.0154 27.8584 34.9737C25.5665 35.932 23.0445 36.1827 20.6115 35.6942C18.1784 35.2056 15.9435 33.9998 14.1893 32.229C12.4352 30.4583 11.2406 28.2023 10.7566 25.7463C10.2727 23.2903 10.5211 20.7445 11.4704 18.431C12.4197 16.1174 14.0274 14.14 16.09 12.7488C18.1527 11.3576 20.5777 10.615 23.0585 10.615C26.3825 10.6234 29.5679 11.9601 31.9183 14.3327C34.2688 16.7053 35.5929 19.9208 35.6013 23.2762Z" fill="#00A1DF"/>
<path d="M35.5382 23.2763C35.5319 25.7614 34.7957 28.1889 33.4227 30.2518C32.0497 32.3146 30.1016 33.9201 27.8247 34.8653C25.5477 35.8105 23.0443 36.0529 20.6309 35.5618C18.2175 35.0708 16.0025 33.8684 14.2661 32.1066C12.5297 30.3449 11.3498 28.1029 10.8756 25.6643C10.4015 23.2256 10.6543 20.6998 11.6023 18.4062C12.5502 16.1126 14.1506 14.1543 16.2011 12.7789C18.2516 11.4034 20.6601 10.6727 23.122 10.679C24.7567 10.6832 26.3745 11.0124 27.8832 11.6477C29.3918 12.283 30.7617 13.2121 31.9147 14.3819C33.0676 15.5517 33.981 16.9392 34.6028 18.4653C35.2245 19.9914 35.5423 21.6262 35.5382 23.2763Z" fill="#00A1E0"/>
<path d="M35.4111 23.2763C35.4111 25.7425 34.6867 28.1533 33.3293 30.2039C31.972 32.2545 30.0427 33.8527 27.7856 34.7965C25.5284 35.7403 23.0447 35.9872 20.6484 35.5061C18.2522 35.025 16.0512 33.8374 14.3236 32.0935C12.5961 30.3496 11.4196 28.1278 10.9429 25.709C10.4663 23.2901 10.7109 20.783 11.6459 18.5045C12.5808 16.226 14.1641 14.2785 16.1955 12.9084C18.2269 11.5382 20.6152 10.8069 23.0584 10.8069C24.6815 10.8035 26.2893 11.1238 27.7895 11.7492C29.2897 12.3747 30.6528 13.293 31.8005 14.4516C32.9483 15.6102 33.858 16.9861 34.4776 18.5005C35.0972 20.0149 35.4145 21.6378 35.4111 23.2763Z" fill="#00A2E0"/>
<path d="M35.348 23.2761C35.3417 25.7233 34.6167 28.1137 33.2646 30.145C31.9125 32.1763 29.994 33.7572 27.7518 34.6879C25.5096 35.6185 23.0444 35.8571 20.6679 35.3735C18.2913 34.8899 16.1102 33.7057 14.4004 31.9708C12.6905 30.2359 11.5287 28.0281 11.0619 25.6267C10.5951 23.2252 10.8442 20.738 11.7777 18.4794C12.7113 16.2209 14.2873 14.2926 16.3066 12.9382C18.3258 11.5838 20.6976 10.8643 23.1219 10.8706C26.3693 10.8909 29.4769 12.2064 31.7673 14.5303C34.0576 16.8543 35.3447 19.998 35.348 23.2761Z" fill="#00A3E0"/>
<path d="M35.2215 23.2761C35.2215 25.7044 34.5082 28.0781 33.1717 30.0971C31.8352 32.1162 29.9357 33.6898 27.7132 34.6191C25.4908 35.5483 23.0452 35.7915 20.6859 35.3177C18.3266 34.844 16.1594 33.6747 14.4584 31.9576C12.7574 30.2406 11.599 28.0529 11.1297 25.6713C10.6604 23.2897 10.9013 20.8211 11.8218 18.5777C12.7424 16.3342 14.3013 14.4167 16.3015 13.0677C18.3016 11.7186 20.6532 10.9985 23.0587 10.9985C24.656 10.9985 26.2376 11.3161 27.7132 11.9331C29.1889 12.5501 30.5297 13.4545 31.6591 14.5945C32.7885 15.7346 33.6844 17.0881 34.2957 18.5777C34.9069 20.0673 35.2215 21.6638 35.2215 23.2761Z" fill="#00A3E1"/>
<path d="M35.1581 23.2761C35.1706 25.6944 34.4717 28.0621 33.1499 30.079C31.828 32.0959 29.9427 33.6713 27.733 34.6055C25.5233 35.5397 23.0885 35.7908 20.7373 35.3267C18.3861 34.8627 16.2243 33.7046 14.5258 31.999C12.8273 30.2935 11.6687 28.1174 11.1966 25.7464C10.7246 23.3755 10.9605 20.9165 11.8744 18.681C12.7883 16.4455 14.339 14.5342 16.3301 13.1894C18.3212 11.8445 20.663 11.1265 23.0587 11.1265C26.2567 11.1264 29.3247 12.4044 31.592 14.6811C33.8592 16.9578 35.1414 20.048 35.1581 23.2761Z" fill="#00A4E1"/>
<path d="M35.0313 23.2761C35.0313 25.6665 34.3292 28.0031 33.0136 29.9906C31.698 31.9781 29.8281 33.5271 27.6404 34.4419C25.4527 35.3566 23.0454 35.596 20.7229 35.1296C18.4004 34.6633 16.2671 33.5123 14.5927 31.822C12.9183 30.1318 11.778 27.9783 11.316 25.634C10.854 23.2896 11.0911 20.8595 11.9973 18.6511C12.9035 16.4428 14.4381 14.5552 16.407 13.2272C18.3759 11.8992 20.6907 11.1904 23.0586 11.1904C26.2314 11.1989 29.2719 12.4749 31.5154 14.7396C33.7589 17.0043 35.023 20.0734 35.0313 23.2761Z" fill="#00A4E2"/>
<path d="M34.9677 23.2762C34.974 25.6475 34.2835 27.9675 32.9836 29.9427C31.6836 31.9179 29.8327 33.4597 27.6647 34.373C25.4967 35.2863 23.1092 35.5302 20.8039 35.0737C18.4987 34.6173 16.3793 33.4811 14.7137 31.8088C13.0482 30.1364 11.9113 28.0031 11.4469 25.6786C10.9824 23.354 11.2113 20.9427 12.1045 18.7494C12.9976 16.5561 14.5151 14.6795 16.4649 13.3568C18.4146 12.0341 20.7092 11.3247 23.0584 11.3184C26.207 11.315 29.2286 12.5717 31.4609 14.8131C33.6933 17.0545 34.9543 20.0979 34.9677 23.2762Z" fill="#00A5E2"/>
<path d="M34.8412 23.2762C34.8412 25.6286 34.1502 27.9282 32.8555 29.8841C31.5608 31.8401 29.7206 33.3645 27.5676 34.2647C25.4146 35.165 23.0455 35.4005 20.7599 34.9416C18.4742 34.4826 16.3748 33.3499 14.7269 31.6865C13.0791 30.0231 11.9569 27.9038 11.5023 25.5966C11.0476 23.2894 11.281 20.898 12.1728 18.7246C13.0646 16.5513 14.5748 14.6937 16.5124 13.3868C18.4501 12.0799 20.7282 11.3824 23.0585 11.3824C24.6068 11.379 26.1405 11.6843 27.5715 12.2809C29.0026 12.8774 30.3028 13.7533 31.3976 14.8585C32.4924 15.9636 33.3601 17.2761 33.9511 18.7207C34.542 20.1652 34.8445 21.7134 34.8412 23.2762Z" fill="#00A6E3"/>
<path d="M34.778 23.2762C34.778 25.616 34.0907 27.9032 32.8029 29.8486C31.5152 31.794 29.6849 33.3103 27.5435 34.2057C25.402 35.101 23.0457 35.3353 20.7723 34.8788C18.499 34.4224 16.4108 33.2957 14.7719 31.6412C13.1329 29.9868 12.0167 27.8789 11.5645 25.5841C11.1124 23.2893 11.3444 20.9107 12.2314 18.7491C13.1184 16.5875 14.6205 14.7399 16.5478 13.44C18.475 12.1401 20.7408 11.4463 23.0587 11.4463C26.1658 11.4497 29.1447 12.6971 31.3418 14.9149C33.5388 17.1327 34.7746 20.1398 34.778 23.2762Z" fill="#00A6E3"/>
<path d="M34.6511 23.2763C34.6511 25.5907 33.9712 27.8532 32.6973 29.7776C31.4235 31.702 29.613 33.2018 27.4947 34.0875C25.3765 34.9732 23.0456 35.205 20.7968 34.7534C18.5481 34.3019 16.4825 33.1874 14.8612 31.5509C13.24 29.9143 12.1359 27.8292 11.6886 25.5592C11.2413 23.2892 11.4708 20.9364 12.3483 18.7981C13.2257 16.6598 14.7115 14.8322 16.6179 13.5464C18.5243 12.2605 20.7656 11.5742 23.0584 11.5742C26.1325 11.5759 29.0801 12.8093 31.2538 15.0035C33.4275 17.1977 34.6494 20.1732 34.6511 23.2763Z" fill="#00A7E3"/>
<path d="M34.5878 23.2763C34.5878 25.5781 33.9117 27.8282 32.6448 29.7421C31.3779 31.6559 29.5773 33.1476 27.4706 34.0285C25.3639 34.9093 23.0458 35.1398 20.8093 34.6908C18.5729 34.2417 16.5185 33.1333 14.9061 31.5057C13.2937 29.878 12.1957 27.8043 11.7508 25.5468C11.306 23.2892 11.5343 20.9492 12.4069 18.8226C13.2795 16.696 14.7573 14.8784 16.6533 13.5996C18.5492 12.3207 20.7783 11.6382 23.0586 11.6382C24.5726 11.6382 26.0718 11.9392 27.4706 12.5241C28.8694 13.1089 30.1404 13.9662 31.211 15.0469C32.2816 16.1276 33.1308 17.4106 33.7102 18.8226C34.2896 20.2346 34.5878 21.7479 34.5878 23.2763Z" fill="#00A8E4"/>
<path d="M34.4609 23.2761C34.4609 25.5526 33.7922 27.778 32.5392 29.6708C31.2863 31.5636 29.5055 33.0389 27.4219 33.9101C25.3384 34.7813 23.0457 35.0092 20.8338 34.5651C18.6219 34.121 16.5902 33.0247 14.9955 31.415C13.4008 29.8053 12.3148 27.7544 11.8749 25.5216C11.4349 23.2888 11.6607 20.9745 12.5237 18.8713C13.3868 16.7681 14.8483 14.9704 16.7234 13.7057C18.5986 12.4409 20.8031 11.7659 23.0583 11.7659C26.0799 11.7743 28.9753 12.9897 31.1119 15.1465C33.2485 17.3032 34.4525 20.226 34.4609 23.2761Z" fill="#00A8E4"/>
<path d="M34.3977 23.2761C34.3977 25.54 33.7327 27.753 32.4867 29.6353C31.2407 31.5176 29.4698 32.9847 27.3978 33.8511C25.3258 34.7174 23.0459 34.9441 20.8463 34.5024C18.6467 34.0608 16.6262 32.9706 15.0404 31.3698C13.4546 29.769 12.3746 27.7295 11.9371 25.5092C11.4996 23.2888 11.7242 20.9873 12.5824 18.8958C13.4406 16.8043 14.894 15.0166 16.7587 13.7589C18.6235 12.5012 20.8158 11.8298 23.0585 11.8298C24.548 11.8282 26.0233 12.1231 27.3998 12.6977C28.7763 13.2723 30.027 14.1154 31.0802 15.1786C32.1335 16.2418 32.9687 17.5043 33.5379 18.8938C34.1072 20.2833 34.3994 21.7725 34.3977 23.2761Z" fill="#00A9E5"/>
<path d="M34.2712 23.2761C34.2712 25.5147 33.6136 27.703 32.3816 29.5643C31.1496 31.4256 29.3984 32.8763 27.3496 33.733C25.3008 34.5896 23.0463 34.8138 20.8713 34.377C18.6962 33.9403 16.6984 32.8623 15.1303 31.2794C13.5622 29.6965 12.4943 27.6798 12.0616 25.4843C11.629 23.2887 11.8511 21.013 12.6997 18.9448C13.5483 16.8766 14.9855 15.1089 16.8294 13.8653C18.6733 12.6216 20.8411 11.9578 23.0587 11.9578C24.5319 11.9553 25.991 12.2463 27.3525 12.8142C28.714 13.3821 29.9511 14.2157 30.9928 15.2672C32.0344 16.3187 32.8603 17.5675 33.4228 18.9418C33.9854 20.3162 34.2738 21.7891 34.2712 23.2761Z" fill="#00AAE5"/>
<path d="M34.2075 23.2762C34.2075 25.5021 33.5537 27.678 32.3286 29.5288C31.1035 31.3796 29.3622 32.8221 27.325 33.6739C25.2877 34.5257 23.046 34.7486 20.8833 34.3143C18.7205 33.8801 16.7339 32.8082 15.1747 31.2342C13.6155 29.6603 12.5536 27.6549 12.1234 25.4718C11.6932 23.2886 11.914 21.0257 12.7579 18.9693C13.6017 16.9128 15.0307 15.1551 16.8642 13.9184C18.6977 12.6818 20.8533 12.0217 23.0584 12.0217C26.0138 12.0268 28.8467 13.2142 30.9365 15.3237C33.0263 17.4332 34.2025 20.2929 34.2075 23.2762Z" fill="#00AAE6"/>
<path d="M34.0811 23.2762C34.0811 25.4768 33.4347 27.628 32.2235 29.4578C31.0123 31.2875 29.2908 32.7136 27.2767 33.5558C25.2627 34.3979 23.0464 34.6182 20.9082 34.1889C18.7701 33.7596 16.8061 32.6999 15.2645 31.1438C13.723 29.5878 12.6732 27.6052 12.2479 25.4469C11.8226 23.2885 12.0409 21.0514 12.8752 19.0182C13.7094 16.9851 15.1222 15.2474 16.9349 14.0248C18.7475 12.8022 20.8786 12.1497 23.0586 12.1497C25.9815 12.1514 28.7841 13.3242 30.8508 15.4104C32.9176 17.4967 34.0794 20.3258 34.0811 23.2762Z" fill="#00ABE6"/>
<path d="M34.0179 23.2762C34.0179 25.4642 33.3751 27.603 32.1709 29.4222C30.9667 31.2415 29.2551 32.6594 27.2526 33.4967C25.2501 34.334 23.0466 34.5531 20.9207 34.1262C18.7949 33.6994 16.8421 32.6458 15.3095 31.0986C13.7768 29.5515 12.7331 27.5803 12.3102 25.4344C11.8873 23.2885 12.1044 21.0642 12.9338 19.0427C13.7633 17.0213 15.168 15.2936 16.9702 14.078C18.7724 12.8624 20.8912 12.2136 23.0588 12.2136C25.9648 12.2153 28.7513 13.3814 30.8062 15.4556C32.861 17.5299 34.0162 20.3427 34.0179 23.2762Z" fill="#00ABE6"/>
<path d="M33.891 23.2763C33.891 25.4389 33.2556 27.553 32.0654 29.3512C30.8751 31.1494 29.1833 32.551 27.2039 33.3786C25.2245 34.2062 23.0465 34.4228 20.9452 34.0008C18.8439 33.5789 16.9138 32.5375 15.3988 31.0082C13.8839 29.479 12.8522 27.5306 12.4342 25.4095C12.0162 23.2884 12.2308 21.0898 13.0506 19.0917C13.8705 17.0937 15.259 15.3859 17.0403 14.1844C18.8217 12.9829 20.9161 12.3416 23.0585 12.3416C24.4813 12.3407 25.8903 12.623 27.2049 13.1722C28.5195 13.7214 29.714 14.5268 30.7201 15.5424C31.7261 16.5579 32.524 17.7637 33.0681 19.0907C33.6122 20.4178 33.8918 21.84 33.891 23.2763Z" fill="#00ACE7"/>
<path d="M33.8277 23.2763C33.8277 25.4263 33.1961 27.528 32.0128 29.3157C30.8295 31.1034 29.1476 32.4967 27.1798 33.3195C25.212 34.1423 23.0467 34.3576 20.9577 33.9381C18.8687 33.5187 16.9498 32.4833 15.4438 30.963C13.9377 29.4427 12.912 27.5058 12.4965 25.397C12.081 23.2883 12.2942 21.1026 13.1093 19.1162C13.9244 17.1298 15.3047 15.4321 17.0757 14.2376C18.8466 13.0431 20.9287 12.4055 23.0587 12.4055C25.9148 12.4055 28.654 13.5508 30.6735 15.5895C32.6931 17.6281 33.8277 20.3932 33.8277 23.2763Z" fill="#00ADE7"/>
<path d="M33.7008 23.2761C33.7008 25.4008 33.0767 27.4778 31.9073 29.2445C30.7379 31.0111 29.0757 32.3881 27.1311 33.2012C25.1864 34.0143 23.0466 34.227 20.9822 33.8125C18.9178 33.398 17.0215 32.3748 15.5331 30.8724C14.0447 29.37 13.0312 27.4558 12.6205 25.3719C12.2099 23.288 12.4206 21.128 13.2261 19.165C14.0316 17.202 15.3957 15.5242 17.1458 14.3437C18.896 13.1633 20.9536 12.5332 23.0584 12.5332C24.4567 12.5307 25.8417 12.8068 27.1341 13.3458C28.4264 13.8848 29.6006 14.676 30.5893 15.6741C31.5781 16.6722 32.3619 17.8575 32.8958 19.162C33.4298 20.4665 33.7033 21.8646 33.7008 23.2761Z" fill="#00ADE8"/>
<path d="M33.6376 23.2761C33.6376 25.3882 33.0172 27.4528 31.8547 29.209C30.6923 30.9651 29.04 32.3338 27.107 33.1421C25.1739 33.9504 23.0468 34.1618 20.9947 33.7498C18.9425 33.3377 17.0575 32.3207 15.578 30.8272C14.0985 29.3337 13.091 27.4309 12.6828 25.3594C12.2746 23.2879 12.4841 21.1408 13.2848 19.1894C14.0855 17.2381 15.4414 15.5703 17.1811 14.3969C18.9209 13.2235 20.9662 12.5972 23.0585 12.5972C25.8627 12.6022 28.5507 13.729 30.5335 15.7305C32.5164 17.7321 33.6326 20.4454 33.6376 23.2761Z" fill="#00AEE8"/>
<path d="M33.5107 23.2761C33.5107 25.3629 32.8977 27.4028 31.7491 29.138C30.6006 30.8731 28.9682 32.2254 27.0583 33.024C25.1483 33.8226 23.0467 34.0315 21.0192 33.6244C18.9916 33.2173 17.1292 32.2124 15.6674 30.7368C14.2056 29.2612 13.2101 27.3812 12.8068 25.3345C12.4035 23.2878 12.6105 21.1664 13.4016 19.2384C14.1927 17.3105 15.5324 15.6626 17.2513 14.5033C18.9702 13.3439 20.991 12.7251 23.0583 12.7251C25.8294 12.7285 28.4861 13.8412 30.4455 15.8192C32.405 17.7971 33.5073 20.4789 33.5107 23.2761Z" fill="#00AFE8"/>
<path d="M33.4475 23.2761C33.4475 25.3503 32.8382 27.3779 31.6966 29.1024C30.555 30.827 28.9325 32.1712 27.0342 32.9649C25.1358 33.7587 23.0469 33.9664 21.0317 33.5617C19.0164 33.1571 17.1652 32.1583 15.7123 30.6916C14.2594 29.225 13.2699 27.3564 12.8691 25.3221C12.4682 23.2878 12.6739 21.1792 13.4603 19.2629C14.2466 17.3466 15.5782 15.7088 17.2866 14.5565C18.9951 13.4041 21.0037 12.7891 23.0584 12.7891C25.8133 12.7908 28.4548 13.8962 30.4027 15.8625C32.3507 17.8289 33.4458 20.4953 33.4475 23.2761Z" fill="#00AFE9"/>
<path d="M33.321 23.2762C33.321 25.325 32.7191 27.3279 31.5915 29.0314C30.4639 30.735 28.8611 32.0628 26.9859 32.8468C25.1107 33.6309 23.0473 33.836 21.0566 33.4363C19.0659 33.0366 17.2374 32.05 15.8022 30.6012C14.3669 29.1525 13.3896 27.3066 12.9936 25.2972C12.5976 23.2877 12.8008 21.2048 13.5776 19.3119C14.3543 17.419 15.6696 15.8011 17.3573 14.6628C19.0449 13.5245 21.029 12.917 23.0587 12.917C25.7804 12.917 28.3907 14.0084 30.3153 15.9511C32.2398 17.8939 33.321 20.5287 33.321 23.2762Z" fill="#00B0E9"/>
<path d="M33.2576 23.2762C33.2701 25.3151 32.6827 27.3118 31.5696 29.0133C30.4566 30.7147 28.8682 32.0442 27.0057 32.8332C25.1432 33.6223 23.0906 33.8353 21.108 33.4453C19.1255 33.0553 17.3023 32.0799 15.8696 30.6426C14.4369 29.2054 13.4592 27.3711 13.0605 25.3723C12.6618 23.3735 12.8601 21.3002 13.6301 19.4153C14.4002 17.5303 15.7073 15.9186 17.3859 14.7845C19.0644 13.6504 21.0388 13.045 23.0586 13.0449C25.7531 13.0432 28.3387 14.1185 30.2499 16.0358C32.1611 17.9531 33.2425 20.5563 33.2576 23.2762Z" fill="#00B1EA"/>
<path d="M33.1309 23.2762C33.1309 25.2872 32.5401 27.2529 31.4334 28.9249C30.3266 30.5969 28.7536 31.9001 26.9131 32.6696C25.0726 33.4392 23.0474 33.6405 21.0936 33.2482C19.1398 32.8559 17.3451 31.8876 15.9364 30.4656C14.5278 29.0437 13.5685 27.2321 13.1799 25.2598C12.7912 23.2875 12.9907 21.2432 13.753 19.3854C14.5154 17.5275 15.8064 15.9396 17.4627 14.8224C19.1191 13.7052 21.0665 13.1089 23.0586 13.1089C24.3818 13.1072 25.6923 13.369 26.9151 13.8794C28.1378 14.3898 29.2489 15.1386 30.1845 16.0831C31.1201 17.0275 31.862 18.1491 32.3676 19.3834C32.8732 20.6177 33.1325 21.9406 33.1309 23.2762Z" fill="#00B1EA"/>
<path d="M33.0677 23.2763C33.0677 25.2745 32.4806 27.2279 31.3808 28.8894C30.2811 30.5509 28.7179 31.8459 26.889 32.6106C25.0601 33.3753 23.0476 33.5754 21.1061 33.1855C19.1645 32.7957 17.3811 31.8334 15.9814 30.4204C14.5816 29.0075 13.6283 27.2072 13.2421 25.2473C12.8559 23.2875 13.0541 21.256 13.8117 19.4098C14.5692 17.5637 15.8521 15.9858 17.4981 14.8756C19.144 13.7654 21.0792 13.1729 23.0587 13.1729C25.7117 13.1779 28.2546 14.244 30.1306 16.1377C32.0065 18.0313 33.0626 20.5982 33.0677 23.2763Z" fill="#00B2EB"/>
<path d="M33.0042 23.2763C33.0042 25.2493 32.4246 27.1779 31.3387 28.8184C30.2529 30.4589 28.7095 31.7374 26.9037 32.4925C25.098 33.2475 23.111 33.445 21.1941 33.0601C19.2771 32.6752 17.5162 31.7251 16.1342 30.33C14.7521 28.9349 13.8109 27.1575 13.4296 25.2224C13.0483 23.2874 13.244 21.2816 13.992 19.4588C14.74 17.636 16.0066 16.0781 17.6317 14.982C19.2568 13.8858 21.1675 13.3008 23.122 13.3008C25.7419 13.3042 28.2535 14.3562 30.1061 16.2263C31.9586 18.0963 33.0009 20.6317 33.0042 23.2763Z" fill="#00B2EB"/>
<path d="M32.8775 23.2763C32.8775 25.2366 32.3016 27.1529 31.2227 28.7829C30.1438 30.4128 28.6103 31.6832 26.8162 32.4334C25.022 33.1836 23.0477 33.3799 21.1431 32.9974C19.2384 32.615 17.4888 31.671 16.1156 30.2848C14.7424 28.8987 13.8073 27.1326 13.4284 25.21C13.0496 23.2873 13.244 21.2944 13.9872 19.4833C14.7303 17.6722 15.9888 16.1242 17.6036 15.0351C19.2183 13.946 21.1166 13.3647 23.0586 13.3647C25.6622 13.3664 28.1587 14.4112 29.9998 16.2696C31.8408 18.1281 32.8758 20.6481 32.8775 23.2763Z" fill="#00B3EB"/>
<path d="M32.8139 23.2761C32.8201 25.2174 32.256 27.117 31.1927 28.7347C30.1294 30.3524 28.6148 31.6154 26.8405 32.3642C25.0661 33.1129 23.1116 33.3138 21.2241 32.9412C19.3367 32.5687 17.601 31.6395 16.2367 30.2713C14.8724 28.903 13.9406 27.1571 13.5593 25.2543C13.1779 23.3515 13.3641 21.3773 14.0943 19.5813C14.8245 17.7853 16.0659 16.2482 17.6614 15.1644C19.257 14.0806 21.1352 13.4987 23.0583 13.4924C24.3365 13.484 25.6036 13.7308 26.7868 14.2187C27.9701 14.7066 29.046 15.4259 29.9527 16.3353C30.8595 17.2446 31.5791 18.326 32.0701 19.5172C32.5611 20.7084 32.8139 21.9859 32.8139 23.2761Z" fill="#00B4EC"/>
<path d="M32.6872 23.2761C32.6997 25.2012 32.1457 27.0867 31.0953 28.6934C30.0449 30.3002 28.5455 31.556 26.7872 32.3015C25.0289 33.0469 23.0909 33.2486 21.219 32.8808C19.347 32.513 17.6254 31.5924 16.2724 30.2356C14.9195 28.8789 13.9961 27.1471 13.6194 25.26C13.2427 23.3728 13.4296 21.4152 14.1565 19.6354C14.8834 17.8557 16.1175 16.3339 17.7023 15.263C19.2871 14.1921 21.1512 13.6204 23.0583 13.6204C25.6016 13.6186 28.0422 14.6333 29.8465 16.4427C31.6508 18.2521 32.6721 20.7089 32.6872 23.2761Z" fill="#00B4EC"/>
<path d="M32.6239 23.2762C32.6239 25.1732 32.0666 27.0277 31.0225 28.6051C29.9784 30.1825 28.4944 31.4119 26.7581 32.1379C25.0218 32.8638 23.1112 33.0538 21.268 32.6837C19.4248 32.3136 17.7316 31.4001 16.4027 30.0586C15.0738 28.7172 14.1689 27.0081 13.8022 25.1474C13.4356 23.2868 13.6237 21.3582 14.3429 19.6055C15.0621 17.8528 16.28 16.3548 17.8427 15.3008C19.4053 14.2469 21.2424 13.6843 23.1218 13.6843C25.6419 13.6843 28.0588 14.6949 29.8408 16.4937C31.6228 18.2925 32.6239 20.7322 32.6239 23.2762Z" fill="#00B7EC"/>
<path d="M34.9681 23.2762C34.9681 25.6539 34.2697 27.9781 32.961 29.9551C31.6524 31.9321 29.7924 33.4729 27.6163 34.3828C25.4401 35.2927 23.0456 35.5308 20.7354 35.0669C18.4252 34.6031 16.3031 33.4581 14.6376 31.7768C12.972 30.0956 11.8378 27.9535 11.3783 25.6215C10.9187 23.2895 11.1546 20.8723 12.056 18.6756C12.9574 16.4789 14.4838 14.6014 16.4423 13.2804C18.4008 11.9595 20.7033 11.2544 23.0588 11.2544C24.6232 11.2527 26.1726 11.5625 27.6183 12.1661C29.0639 12.7696 30.3775 13.6551 31.4837 14.7717C32.5899 15.8884 33.4671 17.2143 34.065 18.6736C34.6629 20.133 34.9698 21.697 34.9681 23.2762Z" fill="#040000"/>
<path d="M20.398 11.8939C20.398 12.9436 20.0897 13.9698 19.5119 14.8426C18.9342 15.7154 18.113 16.3957 17.1523 16.7974C16.1915 17.1991 15.1343 17.3042 14.1144 17.0994C13.0945 16.8946 12.1576 16.3891 11.4223 15.6469C10.687 14.9046 10.1862 13.9589 9.98335 12.9294C9.78048 11.8998 9.8846 10.8327 10.2826 9.86284C10.6805 8.89302 11.3544 8.06411 12.2191 7.48091C13.0837 6.89772 14.1003 6.58644 15.1402 6.58644C15.8311 6.58475 16.5156 6.72089 17.1542 6.98701C17.7929 7.25314 18.3732 7.64402 18.8618 8.13721C19.3503 8.63039 19.7376 9.21615 20.0012 9.86084C20.2648 10.5055 20.3997 11.1965 20.398 11.8939Z" fill="white"/>
<path d="M75.8906 25.0668C73.4541 25.8661 70.9138 26.297 68.3523 26.3457C64.2347 26.3457 61.3207 25.3226 59.2936 23.4042C58.3448 22.4913 57.5955 21.3883 57.0936 20.166C56.5918 18.9437 56.3486 17.629 56.3796 16.3062C56.3796 9.7838 61.4474 5.75523 68.7957 5.75523C70.957 5.7023 73.108 6.07142 75.1305 6.8423L74.1169 10.6151C72.3927 9.89553 70.5327 9.56805 68.669 9.65591C64.5514 9.65591 61.384 11.894 61.384 15.9865C61.384 19.9511 64.2347 22.5729 68.5423 22.5729C69.4409 22.6233 70.3412 22.5151 71.2029 22.2532V18.1607H67.6555V14.5158H75.8273L75.8906 25.0668Z" fill="#005FAB"/>
<path d="M83.4923 4.66797H79.6914V26.0897H83.4923V4.66797Z" fill="#005FAB"/>
<path d="M94.7049 23.7238C92.3611 23.7238 90.6507 21.7414 90.6507 18.8639C90.6507 16.3061 91.9177 13.9401 94.7683 13.9401C97.6189 13.9401 98.8225 16.434 98.8225 18.8C98.8225 21.9972 96.9855 23.7238 94.7049 23.7238ZM94.7049 26.4734C98.8859 26.4734 102.813 23.8517 102.813 18.6721C102.813 14.3877 99.6461 11.1904 94.9583 11.1904C90.0806 11.1904 86.7231 14.3238 86.7231 18.9918C86.7231 23.5319 90.2073 26.4734 94.7049 26.4734Z" fill="#005FAB"/>
<path d="M109.845 18.0326C109.852 17.7091 109.894 17.3874 109.972 17.0734C110.173 16.2283 110.652 15.477 111.331 14.9426C112.01 14.4083 112.848 14.1224 113.709 14.1319C116.433 14.1319 117.827 16.2421 117.827 18.7999C117.827 21.7414 116.18 23.5319 113.646 23.5319C112.805 23.5367 111.985 23.2646 111.31 22.7569C110.636 22.2492 110.144 21.5336 109.908 20.7183C109.856 20.4446 109.835 20.1656 109.845 19.887V18.0326ZM106.044 21.9972C106.044 23.5959 105.981 25.1945 105.917 26.1537H109.148L109.338 23.8516H109.402C110.542 25.834 112.506 26.5374 114.533 26.5374C118.08 26.5374 121.754 23.9156 121.754 18.6721C121.818 14.1959 118.904 11.2544 115.103 11.2544C112.696 11.2544 110.922 12.2775 109.972 13.7482H109.908V4.66797H106.108V21.9972H106.044Z" fill="#005FAB"/>
<path d="M133.284 20.8462C133.303 21.1293 133.259 21.4133 133.157 21.6775C132.892 22.3174 132.442 22.8614 131.865 23.238C131.289 23.6147 130.613 23.8063 129.926 23.7877C128.596 23.7877 127.646 23.0843 127.646 21.7414C127.646 19.6312 130.179 18.9918 133.22 19.0557V20.8462H133.284ZM136.958 17.521C136.958 14.3238 135.501 11.1904 130.56 11.1904C128.588 11.1293 126.638 11.616 124.922 12.5972L125.682 15.0911C127 14.3504 128.481 13.9546 129.989 13.9401C132.903 13.9401 133.157 15.6666 133.157 16.4979V16.6897C127.139 16.6258 123.845 18.6081 123.845 22.253C123.845 24.3632 125.492 26.6013 128.722 26.6013C129.596 26.6339 130.466 26.4669 131.267 26.1125C132.067 25.7582 132.779 25.2258 133.347 24.555H133.41L133.664 26.2176H137.084C136.918 25.0313 136.833 23.8348 136.831 22.6367V17.521H136.958Z" fill="#005FAB"/>
<path d="M144.94 4.66797H141.139V26.0897H144.94V4.66797Z" fill="#005FAB"/>
<path d="M149.501 21.1659C151.224 22.0682 153.134 22.55 155.075 22.5727C157.229 22.5727 158.369 21.7414 158.369 20.3985C158.369 19.2475 157.419 18.4802 154.759 17.7128C151.211 16.6897 148.677 14.9632 148.677 11.638C148.677 8.12098 151.781 5.56316 156.659 5.56316C158.634 5.52738 160.595 5.89723 162.424 6.65023L161.283 10.423C159.81 9.75185 158.212 9.40316 156.596 9.39989C154.505 9.39989 153.555 10.2951 153.555 11.3183C153.555 12.5972 154.822 13.1727 157.546 14.0679C161.41 15.2829 163.247 17.0734 163.247 20.2067C163.247 23.4679 160.713 26.5373 154.695 26.5373C152.527 26.5452 150.385 26.0646 148.424 25.1305L149.501 21.1659Z" fill="#005FAB"/>
<path d="M166.668 11.5743H170.469V26.1538H166.668V11.5743ZM168.568 9.27221C168.28 9.29488 167.99 9.25714 167.717 9.16137C167.444 9.06561 167.194 8.91387 166.981 8.71571C166.769 8.51754 166.6 8.27723 166.484 8.00985C166.368 7.74248 166.309 7.45382 166.309 7.16201C166.309 6.8702 166.368 6.58154 166.484 6.31417C166.6 6.04679 166.769 5.80647 166.981 5.60831C167.194 5.41014 167.444 5.25841 167.717 5.16264C167.99 5.06688 168.28 5.02914 168.568 5.0518C168.854 5.03047 169.141 5.06944 169.411 5.16623C169.681 5.26302 169.929 5.41551 170.137 5.614C170.346 5.8125 170.511 6.05264 170.623 6.31915C170.734 6.58566 170.79 6.8727 170.785 7.16201C170.796 7.45299 170.744 7.74283 170.635 8.01218C170.525 8.28153 170.36 8.52418 170.15 8.72393C169.94 8.92367 169.691 9.0759 169.418 9.17045C169.145 9.265 168.855 9.2997 168.568 9.27221Z" fill="#005FAB"/>
<path d="M185.165 19.4394C185.169 19.8941 185.105 20.3468 184.975 20.7823C184.74 21.5102 184.282 22.144 183.667 22.5922C183.053 23.0404 182.313 23.2799 181.554 23.2761C178.894 23.2761 177.563 21.102 177.563 18.8639C177.563 15.7945 179.337 14.1319 181.554 14.1319C182.335 14.11 183.1 14.358 183.722 14.8348C184.344 15.3116 184.786 15.9886 184.975 16.7537C185.048 17.0685 185.091 17.3897 185.102 17.7129L185.165 19.4394ZM188.966 15.6027C188.966 13.6204 189.029 12.4693 189.093 11.5741H185.735L185.609 13.6204H185.545C184.785 12.3414 183.328 11.1904 180.857 11.1904C177.057 11.1904 173.699 14.1959 173.699 18.9278C173.699 23.1483 176.613 26.0258 180.414 26.0258C181.331 26.0563 182.242 25.863 183.069 25.4622C183.896 25.0614 184.615 24.4651 185.165 23.7238H185.228V25.0027C185.228 28.2639 183.138 29.5428 180.604 29.5428C178.956 29.5487 177.337 29.107 175.916 28.2639L175.093 31.2054C176.423 32.0367 178.64 32.4843 180.667 32.4843C182.695 32.4843 184.975 32.1006 186.685 30.6299C188.396 29.1591 188.966 26.7932 188.966 23.8517V15.6027Z" fill="#005FAB"/>
<path d="M193.21 15.9865C193.21 14.2599 193.147 12.8531 193.083 11.5742H196.441L196.631 13.9402H196.758C197.291 13.0945 198.032 12.4026 198.909 11.9319C199.786 11.4613 200.769 11.2279 201.762 11.2545C204.296 11.2545 207.4 12.7892 207.4 17.8409V26.2177H203.599V18.2246C203.599 15.9225 202.712 14.2599 200.495 14.2599C199.793 14.2518 199.106 14.4709 198.536 14.8852C197.966 15.2994 197.543 15.8871 197.328 16.562C197.203 16.9107 197.139 17.2784 197.138 17.649V26.0899H193.337V15.9865H193.21Z" fill="#005FAB"/>
<path d="M207.527 7.4177C207.527 9.59185 209.997 11.1905 212.278 9.46396C213.988 7.22586 212.405 4.66804 210.251 4.66804C209.892 4.66549 209.537 4.73487 209.205 4.87215C208.874 5.00943 208.573 5.21187 208.319 5.46771C208.066 5.72355 207.865 6.02768 207.729 6.36244C207.593 6.69719 207.524 7.05589 207.527 7.4177ZM207.844 7.4177C207.844 5.49933 210.061 4.09253 212.025 5.62722C213.545 7.60953 212.151 9.84763 210.251 9.84763C209.935 9.84763 209.622 9.78478 209.33 9.66266C209.038 9.54055 208.772 9.36156 208.549 9.13592C208.325 8.91028 208.148 8.6424 208.027 8.34759C207.906 8.05278 207.844 7.7368 207.844 7.4177Z" fill="#040000"/>
<path d="M209.491 6.13883H210.504C210.681 6.13449 210.857 6.17868 211.011 6.26672C211.071 6.30991 211.12 6.36754 211.154 6.43448C211.187 6.50141 211.203 6.57559 211.201 6.6504C211.201 6.77829 211.201 6.84223 211.138 6.90618C211.065 6.98517 210.98 7.05018 210.884 7.09802C210.744 7.15519 210.592 7.17713 210.441 7.16196H209.554L209.491 6.13883ZM209.491 9.01638V7.60958H210.251C210.314 7.60958 210.377 7.67353 210.441 7.67353L210.631 7.86536C210.694 7.99325 210.821 8.12115 210.948 8.31298L211.391 8.95244H211.898L211.328 8.0572C211.201 7.86536 211.074 7.73747 211.011 7.60958C210.981 7.57058 210.942 7.53886 210.899 7.51673C210.855 7.49461 210.807 7.48264 210.758 7.48169C211.018 7.45542 211.263 7.34304 211.454 7.16196C211.522 7.08371 211.574 6.99246 211.607 6.89362C211.64 6.79477 211.652 6.69033 211.644 6.58645C211.632 6.40973 211.589 6.23654 211.518 6.07489C211.446 5.93885 211.336 5.82752 211.201 5.75516C210.995 5.69531 210.781 5.67365 210.567 5.69121H209.174V8.88849H209.491V9.01638Z" fill="#040000"/>
</g>
<defs>
<clipPath id="clip0_49_1929">
<rect width="213" height="47" fill="white"/>
</clipPath>
</defs>
</svg>
