<svg width="70" height="70" viewBox="0 0 70 70" fill="none" xmlns="http://www.w3.org/2000/svg">
<path d="M13.125 41.2174L45.1027 8.90112C46.4578 7.53166 48.6598 7.53166 50.0223 8.90112L67.2337 26.2948C68.5888 27.6642 68.5888 29.8896 67.2337 31.2665L37.7158 61.0969C36.3607 62.4664 34.1587 62.4664 32.7962 61.0969L13.125 41.2174Z" fill="#FFEA00"/>
<path d="M32.6075 61.0913L2.7771 31.2673C1.40763 29.8978 1.40763 27.6723 2.7771 26.2954L20.1707 8.90115C21.5402 7.53165 23.7656 7.53165 25.1425 8.90115L54.9729 38.7326C56.3424 40.1021 56.3424 42.3276 54.9729 43.7045L37.5793 61.0913C36.2024 62.4683 33.9844 62.4683 32.6075 61.0913Z" fill="#536DFE"/>
<path d="M22.7238 50.749L2.78003 31.0479C1.40666 29.6912 1.40666 27.4867 2.78003 26.1226L20.2234 8.89152C21.5968 7.53486 23.8285 7.53486 25.2093 8.89152L55.125 38.4432L22.7238 50.749Z" fill="#3D5AFE"/>
<path d="M18.8777 22.8271C18.2074 22.1508 18.2074 21.0483 18.8777 20.372L27.3646 11.8087C31.4077 7.72914 37.9569 7.72914 42 11.8087L31.0799 22.8271C27.707 26.223 22.2433 26.223 18.8777 22.8271Z" fill="#FFEA00"/>
</svg>
