<svg width="48" height="48" viewBox="0 0 48 48" fill="none" xmlns="http://www.w3.org/2000/svg">
<rect width="48" height="48" rx="24" fill="#155DFC"/>
<path d="M33.8011 22.0005C34.2578 24.2418 33.9323 26.5719 32.879 28.6023C31.8256 30.6326 30.108 32.2405 28.0126 33.1578C25.9172 34.0751 23.5707 34.2463 21.3644 33.6428C19.1581 33.0394 17.2253 31.6979 15.8884 29.8419C14.5515 27.9859 13.8912 25.7277 14.0178 23.4439C14.1443 21.16 15.05 18.9886 16.5838 17.2916C18.1175 15.5947 20.1867 14.4749 22.4462 14.1189C24.7056 13.763 27.0189 14.1923 29.0001 15.3355" stroke="white" stroke-width="2" stroke-linecap="round" stroke-linejoin="round"/>
<path d="M21 23L24 26L34 16" stroke="white" stroke-width="2" stroke-linecap="round" stroke-linejoin="round"/>
</svg>
