<svg width="70" height="70" viewBox="0 0 70 70" fill="none" xmlns="http://www.w3.org/2000/svg">
<path d="M24.001 11.1562C24.124 11.1016 24.2539 11.04 24.377 10.9854C24.2539 11.04 24.1309 11.1016 24.001 11.1562ZM24.7803 10.8145C24.7188 10.8418 24.6641 10.8691 24.6025 10.8896C27.6855 9.55664 31.0693 8.80469 34.6309 8.75684C31.2197 8.79785 27.9043 9.48828 24.7803 10.8145ZM18.1426 14.875C18.2725 14.7656 18.4023 14.6631 18.5322 14.5537C18.4023 14.6631 18.2725 14.7725 18.1426 14.875ZM18.5596 14.5332C20.0225 13.3574 21.6084 12.3389 23.2969 11.498C21.6152 12.332 20.0293 13.3506 18.5596 14.5332ZM24.377 59.0146C24.2539 58.96 24.124 58.9053 24.001 58.8438C24.1309 58.8984 24.2539 58.96 24.377 59.0146ZM17.7256 15.2305C17.8076 15.1553 17.8896 15.0869 17.9785 15.0117C17.8965 15.0869 17.8145 15.1621 17.7256 15.2305ZM24.7803 59.1855C27.9043 60.5049 31.2129 61.1953 34.6309 61.2432C31.0693 61.1953 27.6855 60.4365 24.6025 59.1104C24.6641 59.1377 24.7256 59.165 24.7803 59.1855ZM45.2197 59.1855C45.2812 59.1582 45.3359 59.1309 45.3975 59.1104C42.3145 60.4434 38.9307 61.1953 35.3691 61.2432C38.7803 61.2021 42.0957 60.5117 45.2197 59.1855ZM18.5322 55.4463C18.4023 55.3438 18.2725 55.2344 18.1426 55.125C18.2725 55.2275 18.4023 55.3369 18.5322 55.4463ZM23.3037 58.5088C21.6084 57.668 20.0225 56.6426 18.5664 55.4736C20.0293 56.6494 21.6152 57.668 23.3037 58.5088ZM17.9785 54.9814C17.8965 54.9131 17.8076 54.8379 17.7256 54.7627C17.8145 54.8379 17.8965 54.9131 17.9785 54.9814ZM10.8145 24.7803C9.49512 27.9043 8.80469 31.2129 8.75684 34.6309C8.80469 31.0693 9.56348 27.6855 10.8896 24.6025C10.8623 24.6641 10.835 24.7256 10.8145 24.7803ZM10.9854 24.3838C11.04 24.2607 11.1016 24.1309 11.1562 24.0078C11.1016 24.1309 11.04 24.2539 10.9854 24.3838ZM11.4912 23.3037C12.332 21.6084 13.3574 20.0225 14.5264 18.5664C13.3506 20.0293 12.332 21.6152 11.4912 23.3037ZM14.5332 51.4404C13.3574 49.9775 12.3389 48.3916 11.498 46.7031C12.332 48.3848 13.3506 49.9707 14.5332 51.4404ZM10.8145 45.2197C10.8418 45.2812 10.8691 45.3359 10.8896 45.3975C9.55664 42.3145 8.80469 38.9307 8.75684 35.3691C8.79785 38.7803 9.48828 42.0957 10.8145 45.2197ZM15.0186 17.9785C15.0869 17.8965 15.1621 17.8076 15.2373 17.7256C15.1621 17.8145 15.0869 17.8965 15.0186 17.9785ZM15.6064 52.6914C15.5654 52.6504 15.5313 52.6094 15.4902 52.5684C15.5313 52.6025 15.5654 52.6436 15.6064 52.6914ZM14.875 51.8574C14.7656 51.7275 14.6631 51.5977 14.5537 51.4678C14.6631 51.5977 14.7725 51.7275 14.875 51.8574ZM14.5537 18.5322C14.6562 18.4023 14.7656 18.2725 14.875 18.1426C14.7725 18.2725 14.6631 18.4023 14.5537 18.5322ZM17.3086 15.6064C17.3496 15.5654 17.3906 15.5313 17.4316 15.4902C17.3975 15.5313 17.3564 15.5654 17.3086 15.6064ZM15.2305 52.2744C15.1553 52.1924 15.0869 52.1104 15.0117 52.0215C15.0869 52.1035 15.1621 52.1855 15.2305 52.2744ZM58.5088 46.6963C57.668 48.3916 56.6426 49.9775 55.4736 51.4336C56.6494 49.9707 57.668 48.3848 58.5088 46.6963ZM59.0146 45.623C58.96 45.7461 58.9053 45.876 58.8438 45.999C58.8984 45.8691 58.96 45.7461 59.0146 45.623ZM52.6914 54.3936C52.6504 54.4346 52.6094 54.4688 52.5684 54.5098C52.6025 54.4688 52.6436 54.4346 52.6914 54.3936ZM52.2744 54.7695C52.1924 54.8447 52.1104 54.9131 52.0215 54.9883C52.1035 54.9131 52.1855 54.8379 52.2744 54.7695ZM61.25 34.6377C61.2363 33.79 61.1885 32.9424 61.0928 32.1084C61.1816 32.9424 61.2363 33.7832 61.25 34.6377ZM37.8984 8.90723C37.0576 8.81836 36.2168 8.76367 35.3623 8.75C36.2168 8.76367 37.0645 8.81836 37.8984 8.90723ZM11.1562 45.999C11.1016 45.876 11.04 45.7461 10.9854 45.623C11.04 45.7461 11.1016 45.8691 11.1562 45.999ZM55.4463 51.4678C55.3438 51.5977 55.2344 51.7275 55.125 51.8574C55.2275 51.7275 55.3369 51.5977 55.4463 51.4678ZM51.8574 55.125C51.7275 55.2344 51.5977 55.3369 51.4678 55.4463C51.5977 55.3369 51.7275 55.2275 51.8574 55.125ZM54.9814 52.0215C54.9131 52.1035 54.8379 52.1924 54.7627 52.2744C54.8379 52.1855 54.9131 52.1035 54.9814 52.0215ZM45.999 58.8438C45.876 58.8984 45.7461 58.96 45.623 59.0146C45.7461 58.96 45.8691 58.8984 45.999 58.8438ZM51.4404 55.4668C49.9775 56.6426 48.3916 57.6611 46.7031 58.502C48.3848 57.668 49.9707 56.6494 51.4404 55.4668ZM59.1855 45.2197C60.5049 42.0957 61.1953 38.7871 61.2432 35.3691C61.1953 38.9307 60.4365 42.3145 59.1104 45.3975C59.1377 45.3359 59.165 45.2744 59.1855 45.2197Z" fill="#3D5AFE"/>
<path d="M48.0293 33.5576C48.084 34.0293 48.1113 34.5146 48.1113 35C48.1113 42.2393 42.2393 48.1113 35 48.1113C27.7607 48.1113 21.8887 42.2393 21.8887 35C21.8887 27.7607 27.7607 21.8887 35 21.8887C35.4922 21.8887 35.9707 21.916 36.4492 21.9707L37.8984 8.90723C37.0645 8.81836 36.2168 8.76367 35.3623 8.75H34.6377C31.0762 8.79785 27.6924 9.55664 24.6094 10.8828L24.3838 10.9854C24.2607 11.04 24.1309 11.0947 24.0078 11.1562C23.9531 11.1836 23.8916 11.2109 23.8369 11.2383C23.6865 11.3066 23.5361 11.3818 23.3857 11.457C23.3584 11.4707 23.3379 11.4844 23.3105 11.4912C21.6152 12.332 20.0293 13.3574 18.5732 14.5264C18.5664 14.5332 18.5527 14.54 18.5459 14.5469C18.416 14.6494 18.2861 14.7588 18.1563 14.8682C18.1016 14.916 18.0469 14.957 17.9922 15.0049C17.9102 15.0732 17.8213 15.1484 17.7393 15.2236C17.6436 15.3057 17.5479 15.3945 17.4453 15.4834C17.4043 15.5244 17.3633 15.5586 17.3223 15.5996C17.1924 15.7227 17.0625 15.8389 16.9326 15.9619L16.8984 15.9961C16.748 16.1396 16.5977 16.2832 16.4541 16.4336C16.3105 16.584 16.1602 16.7275 16.0166 16.8779L15.9824 16.9121C15.8594 17.042 15.7363 17.1719 15.6201 17.3018C15.5791 17.3428 15.5449 17.3838 15.5039 17.4248C15.415 17.5205 15.333 17.6162 15.2441 17.7188C15.1689 17.8008 15.1006 17.8828 15.0254 17.9717C14.9775 18.0264 14.9297 18.0811 14.8887 18.1357C14.7793 18.2656 14.6768 18.3955 14.5674 18.5254C14.5605 18.5322 14.5537 18.5459 14.54 18.5527C13.3643 20.0156 12.3457 21.6016 11.5049 23.29C11.4912 23.3174 11.4775 23.3379 11.4707 23.3652C11.3955 23.5156 11.3203 23.666 11.252 23.8164C11.2246 23.8711 11.1973 23.9326 11.1699 23.9873C11.1152 24.1104 11.0537 24.2402 10.999 24.3633L10.8965 24.5889C9.56348 27.6719 8.81152 31.0557 8.76367 34.6172V35.3418C8.81152 38.9033 9.57031 42.2871 10.8965 45.3701L10.999 45.5957C11.0537 45.7188 11.1084 45.8486 11.1699 45.9717C11.1973 46.0264 11.2246 46.0879 11.252 46.1426C11.3203 46.293 11.3955 46.4434 11.4707 46.5938C11.4844 46.6211 11.498 46.6416 11.5049 46.6689C12.3457 48.3574 13.3711 49.9502 14.54 51.4062C14.5469 51.4131 14.5537 51.4268 14.5674 51.4336C14.6699 51.5635 14.7793 51.6934 14.8887 51.8232C14.9365 51.8779 14.9775 51.9326 15.0254 51.9873C15.0938 52.0693 15.1689 52.1582 15.2441 52.2402C15.3262 52.3359 15.415 52.4316 15.5039 52.5342C15.5449 52.5752 15.5791 52.6162 15.6201 52.6572C15.7432 52.7871 15.8594 52.917 15.9824 53.0469L16.0166 53.0811C16.1602 53.2314 16.3037 53.3818 16.4541 53.5254C16.6045 53.6689 16.748 53.8193 16.8984 53.9629L16.9326 53.9971C17.0625 54.1201 17.1924 54.2432 17.3223 54.3594C17.3633 54.4004 17.4043 54.4346 17.4453 54.4756C17.541 54.5645 17.6367 54.6465 17.7393 54.7354C17.8213 54.8105 17.9033 54.8789 17.9922 54.9541C18.0469 55.002 18.1016 55.0498 18.1563 55.0908C18.2861 55.2002 18.416 55.3027 18.5459 55.4121C18.5527 55.4189 18.5664 55.4258 18.5732 55.4326C20.0361 56.6084 21.6221 57.627 23.3105 58.4678C23.3379 58.4814 23.3584 58.4951 23.3857 58.502C23.5361 58.5771 23.6865 58.6523 23.8369 58.7207C23.8916 58.748 23.9531 58.7754 24.0078 58.8027C24.1309 58.8574 24.2607 58.9189 24.3838 58.9736L24.6094 59.0762C27.6924 60.4092 31.0762 61.1611 34.6377 61.209H35.3623C38.9238 61.1611 42.3076 60.4023 45.3906 59.0762L45.6162 58.9736C45.7393 58.9189 45.8691 58.8643 45.9922 58.8027C46.0469 58.7754 46.1084 58.748 46.1631 58.7207C46.3135 58.6523 46.4639 58.5771 46.6143 58.502C46.6416 58.4883 46.6621 58.4746 46.6895 58.4678C48.3848 57.627 49.9707 56.6016 51.4268 55.4326C51.4336 55.4258 51.4473 55.4189 51.4541 55.4121C51.584 55.3096 51.7139 55.2002 51.8438 55.0908C51.8984 55.043 51.9531 55.002 52.0078 54.9541C52.0898 54.8857 52.1787 54.8105 52.2607 54.7354C52.3564 54.6533 52.4521 54.5645 52.5547 54.4756C52.5957 54.4346 52.6367 54.4004 52.6777 54.3594C52.8076 54.2363 52.9375 54.1201 53.0674 53.9971L53.1016 53.9629C53.252 53.8193 53.4023 53.6758 53.5459 53.5254C53.6895 53.375 53.8398 53.2314 53.9834 53.0811L54.0176 53.0469C54.1406 52.917 54.2637 52.7871 54.3799 52.6572C54.4209 52.6162 54.4551 52.5752 54.4961 52.5342C54.585 52.4385 54.667 52.3428 54.7559 52.2402C54.8311 52.1582 54.8994 52.0762 54.9746 51.9873C55.0225 51.9326 55.0703 51.8779 55.1113 51.8232C55.2207 51.6934 55.3232 51.5635 55.4326 51.4336C55.4395 51.4268 55.4463 51.4131 55.4531 51.4062C56.6289 49.9434 57.6475 48.3574 58.4883 46.6689C58.5019 46.6416 58.5156 46.6211 58.5225 46.5938C58.5977 46.4434 58.6729 46.293 58.7412 46.1426C58.7686 46.0879 58.7959 46.0264 58.8232 45.9717C58.8779 45.8486 58.9395 45.7188 58.9941 45.5957L59.0967 45.3701C60.4297 42.2871 61.1816 38.9033 61.2295 35.3418V35.3145V34.9795V34.6445V34.6172C61.2158 33.7627 61.168 32.9219 61.0723 32.0879L48.0293 33.5576Z" fill="#3D5AFE"/>
<path d="M61.0928 32.1084C61.1816 32.9424 61.2363 33.79 61.25 34.6377V35.3623C61.2021 38.7803 60.5117 42.0889 59.1924 45.2129C59.165 45.2744 59.1377 45.3291 59.1172 45.3906L59.0146 45.6162C58.96 45.7393 58.8984 45.8691 58.8438 45.9922C58.8164 46.0469 58.7891 46.1084 58.7617 46.1631C58.6934 46.3135 58.6182 46.4639 58.543 46.6143C58.5293 46.6416 58.5156 46.6621 58.5088 46.6895C57.668 48.3779 56.6494 49.9639 55.4736 51.4268C55.4668 51.4336 55.46 51.4473 55.4531 51.4541C55.3506 51.584 55.2412 51.7139 55.1318 51.8438C55.084 51.8984 55.043 51.9531 54.9951 52.0078C54.9268 52.0898 54.8516 52.1787 54.7764 52.2607C54.6943 52.3564 54.6055 52.4521 54.5166 52.5547C54.4756 52.5957 54.4414 52.6367 54.4004 52.6777C54.2773 52.8076 54.1611 52.9375 54.0381 53.0674L54.0039 53.1016C53.7168 53.4023 53.4229 53.6963 53.1221 53.9834L53.0879 54.0176C52.958 54.1406 52.8281 54.2637 52.6982 54.3799C52.6572 54.4209 52.6162 54.4551 52.5752 54.4961C52.4795 54.585 52.3838 54.667 52.2812 54.7559C52.1992 54.8311 52.1172 54.8994 52.0283 54.9746C51.9736 55.0225 51.9189 55.0703 51.8643 55.1113C51.7344 55.2207 51.6045 55.3232 51.4746 55.4326C51.4678 55.4395 51.4541 55.4463 51.4473 55.4531C49.9775 56.6357 48.3916 57.6543 46.71 58.4883C46.6826 58.502 46.6621 58.5156 46.6348 58.5225C46.4844 58.5977 46.334 58.6729 46.1836 58.7412C46.1289 58.7686 46.0674 58.7959 46.0127 58.8232C45.8896 58.8779 45.7598 58.9395 45.6367 58.9941L45.4111 59.0967C45.3496 59.124 45.2949 59.1514 45.2334 59.1719C42.1094 60.4912 38.8008 61.1816 35.3828 61.2295H34.6582C31.2402 61.1816 27.9316 60.4912 24.8076 59.1719C24.7461 59.1445 24.6914 59.1172 24.6299 59.0967L24.4043 58.9941C24.2812 58.9395 24.1514 58.8779 24.0283 58.8232C23.9736 58.7959 23.9121 58.7686 23.8574 58.7412C23.707 58.6729 23.5566 58.5977 23.4062 58.5225C23.3789 58.5088 23.3584 58.4951 23.3311 58.4883C21.6426 57.6475 20.0566 56.6289 18.5938 55.4531C18.5869 55.4463 18.5732 55.4395 18.5664 55.4326C18.4365 55.3301 18.3066 55.2207 18.1768 55.1113C18.1221 55.0635 18.0674 55.0225 18.0127 54.9746C17.9307 54.9062 17.8418 54.8311 17.7598 54.7559C17.6641 54.6738 17.5684 54.585 17.4658 54.4961C17.4248 54.4551 17.3838 54.4209 17.3428 54.3799C17.2129 54.2568 17.083 54.1406 16.9531 54.0176L16.9189 53.9834C16.6182 53.6963 16.3242 53.4023 16.0371 53.1016L16.0029 53.0674C15.8799 52.9375 15.7568 52.8076 15.6406 52.6777C15.5996 52.6367 15.5654 52.5957 15.5244 52.5547C15.4355 52.459 15.3535 52.3633 15.2646 52.2607C15.1895 52.1787 15.1211 52.0967 15.0459 52.0078C14.998 51.9531 14.9502 51.8984 14.9092 51.8438C14.7998 51.7139 14.6973 51.584 14.5879 51.4541C14.5811 51.4473 14.5742 51.4336 14.5605 51.4268C13.3779 49.957 12.3594 48.3779 11.5254 46.6895C11.5117 46.6621 11.498 46.6416 11.4912 46.6143C11.416 46.4639 11.3408 46.3135 11.2725 46.1631C11.2451 46.1084 11.2178 46.0469 11.1904 45.9922C11.1357 45.8691 11.0742 45.7393 11.0195 45.6162L10.917 45.3906C10.8896 45.3291 10.8623 45.2744 10.8418 45.2129C9.52246 42.0889 8.83203 38.7803 8.78418 35.3623V35.335V35V34.665V34.6377C8.83203 31.2197 9.52246 27.9111 10.8418 24.7871C10.8691 24.7256 10.8965 24.6709 10.917 24.6094L11.0195 24.3838C11.0742 24.2607 11.1357 24.1309 11.1904 24.0078C11.2178 23.9531 11.2451 23.8916 11.2725 23.8369C11.3408 23.6865 11.416 23.5361 11.4912 23.3857C11.5049 23.3584 11.5186 23.3379 11.5254 23.3105C12.3662 21.6221 13.3848 20.0361 14.5605 18.5732C14.5674 18.5664 14.5742 18.5527 14.5879 18.5459C14.6904 18.416 14.7998 18.2861 14.9092 18.1562C14.957 18.1016 14.998 18.0469 15.0459 17.9922C15.1143 17.9102 15.1895 17.8213 15.2646 17.7393C15.3467 17.6436 15.4355 17.5479 15.5244 17.4453C15.5654 17.4043 15.5996 17.3633 15.6406 17.3223C15.7637 17.1924 15.8799 17.0625 16.0029 16.9326L16.0371 16.8984C16.3242 16.5977 16.6182 16.3037 16.9189 16.0166L16.9531 15.9824C17.083 15.8594 17.2129 15.7363 17.3428 15.6201C17.3838 15.5791 17.4248 15.5449 17.4658 15.5039C17.5615 15.415 17.6572 15.333 17.7598 15.2441C17.8418 15.1689 17.9238 15.1006 18.0127 15.0254C18.0674 14.9775 18.1221 14.9297 18.1768 14.8887C18.3066 14.7793 18.4365 14.6768 18.5664 14.5674C18.5732 14.5605 18.5869 14.5537 18.5938 14.5469C20.0635 13.3643 21.6494 12.3457 23.3311 11.5117C23.3584 11.498 23.3789 11.4844 23.4062 11.4775C23.5566 11.4023 23.707 11.3271 23.8574 11.2588C23.9121 11.2314 23.9736 11.2041 24.0283 11.1768C24.1514 11.1221 24.2812 11.0605 24.4043 11.0059L24.6299 10.9033C24.6914 10.876 24.7461 10.8486 24.8076 10.8281C27.9316 9.50879 31.2402 8.81836 34.6582 8.77051H35.3828C36.2373 8.78418 37.0781 8.83203 37.9189 8.92773L38.4043 4.58008C37.2695 4.43652 36.1416 4.375 35 4.375C18.0879 4.375 4.375 18.0879 4.375 35C4.375 51.9121 18.0879 65.625 35 65.625C51.9121 65.625 65.625 51.9121 65.625 35C65.625 33.8584 65.5635 32.7305 65.4404 31.623L61.0928 32.1084Z" fill="#8C9EFF"/>
<path d="M11.2383 46.1699C11.2109 46.1152 11.1836 46.0537 11.1562 45.999C11.1836 46.0537 11.2109 46.1084 11.2383 46.1699ZM58.543 46.6211C58.5293 46.6484 58.5156 46.6689 58.5088 46.6963C58.5156 46.6758 58.5293 46.6484 58.543 46.6211ZM11.4912 46.6963C11.4775 46.6689 11.4639 46.6484 11.457 46.6211C11.4707 46.6484 11.4844 46.6758 11.4912 46.6963ZM59.1104 45.3906L59.0078 45.6162C59.0488 45.541 59.0762 45.4658 59.1104 45.3906ZM58.8438 45.999C58.8164 46.0537 58.7891 46.1152 58.7617 46.1699C58.7891 46.1084 58.8164 46.0537 58.8438 45.999ZM23.3789 58.543C23.3516 58.5293 23.3311 58.5156 23.3037 58.5088C23.3242 58.5156 23.3516 58.5293 23.3789 58.543ZM45.623 59.0146L45.3975 59.1172C45.4658 59.0762 45.541 59.0488 45.623 59.0146ZM46.6963 58.5088C46.6689 58.5225 46.6484 58.5361 46.6211 58.543C46.6484 58.5293 46.6758 58.5156 46.6963 58.5088ZM24.001 58.8438C23.9463 58.8164 23.8848 58.7891 23.8301 58.7617C23.8916 58.7891 23.9463 58.8164 24.001 58.8438ZM46.1699 58.7617C46.1152 58.7891 46.0537 58.8164 45.999 58.8438C46.0537 58.8164 46.1084 58.7891 46.1699 58.7617ZM24.6094 59.1104L24.3838 59.0078C24.459 59.0488 24.5342 59.0762 24.6094 59.1104ZM18.1426 55.125C18.0879 55.0771 18.0332 55.0361 17.9785 54.9883C18.0332 55.0293 18.0879 55.0771 18.1426 55.125ZM54.7695 52.2744C54.6875 52.3701 54.5986 52.4658 54.5098 52.5684C54.5986 52.4658 54.6807 52.3701 54.7695 52.2744ZM55.125 51.8574C55.0771 51.9121 55.0361 51.9668 54.9883 52.0215C55.0293 51.9668 55.0771 51.9121 55.125 51.8574ZM54.3936 52.6914C54.2705 52.8213 54.1543 52.9512 54.0312 53.0811C54.1543 52.9512 54.2773 52.8213 54.3936 52.6914ZM17.7256 54.7695C17.6299 54.6875 17.5342 54.5986 17.4316 54.5098C17.5342 54.5986 17.6299 54.6807 17.7256 54.7695ZM17.3086 54.3936C17.1787 54.2705 17.0488 54.1543 16.9189 54.0312C17.0488 54.1543 17.1787 54.2773 17.3086 54.3936ZM24.377 10.9854L24.6025 10.8828C24.5342 10.9238 24.459 10.9512 24.377 10.9854ZM23.3037 11.4912C23.3311 11.4775 23.3516 11.4639 23.3789 11.457C23.3516 11.4707 23.3242 11.4844 23.3037 11.4912ZM23.8301 11.2383C23.8848 11.2109 23.9463 11.1836 24.001 11.1562C23.9463 11.1836 23.8916 11.2109 23.8301 11.2383ZM16.8848 16.0029C16.584 16.29 16.29 16.584 16.0029 16.8848C16.1465 16.7344 16.29 16.584 16.4404 16.4404C16.5908 16.2969 16.7344 16.1465 16.8848 16.0029ZM10.9854 45.623L10.8828 45.3975C10.9238 45.4658 10.9512 45.541 10.9854 45.623ZM53.1152 53.9971C53.416 53.71 53.71 53.416 53.9971 53.1152C53.8535 53.2656 53.71 53.416 53.5596 53.5596C53.4092 53.7031 53.2656 53.8535 53.1152 53.9971ZM16.0029 53.1152C16.29 53.416 16.584 53.71 16.8848 53.9971C16.7344 53.8535 16.584 53.71 16.4404 53.5596C16.2969 53.4092 16.1465 53.2656 16.0029 53.1152ZM10.8896 24.6094L10.9922 24.3838C10.9512 24.459 10.9238 24.5342 10.8896 24.6094ZM11.457 23.3789C11.4707 23.3516 11.4844 23.3311 11.4912 23.3037C11.4844 23.3242 11.4707 23.3516 11.457 23.3789ZM11.1562 24.001C11.1836 23.9463 11.2109 23.8848 11.2383 23.8301C11.2109 23.8916 11.1836 23.9463 11.1562 24.001ZM15.2305 17.7256C15.3125 17.6299 15.4014 17.5342 15.4902 17.4316C15.4014 17.5342 15.3193 17.6299 15.2305 17.7256ZM14.875 18.1426C14.9229 18.0879 14.9639 18.0332 15.0117 17.9785C14.9707 18.0332 14.9229 18.0879 14.875 18.1426ZM15.6064 17.3086C15.7295 17.1787 15.8457 17.0488 15.9688 16.9189C15.8457 17.0488 15.7227 17.1787 15.6064 17.3086Z" fill="#3D5AFE"/>
<path d="M58.8437 24.001C58.8984 24.124 58.96 24.2539 59.0146 24.377C58.96 24.2539 58.8984 24.1309 58.8437 24.001ZM55.4668 18.5596C56.6426 20.0225 57.6611 21.6084 58.5088 23.2969C57.668 21.6152 56.6494 20.0293 55.4668 18.5596ZM59.1104 24.6094C59.7529 26.1064 60.2656 27.6719 60.6279 29.292C60.2861 27.7539 59.8076 26.25 59.1855 24.7871C59.165 24.7256 59.1377 24.6641 59.1104 24.6094ZM45.3906 10.8896C45.3291 10.8623 45.2744 10.835 45.2129 10.8145C43.7432 10.1924 42.2324 9.71387 40.6875 9.37207C42.3213 9.72754 43.8936 10.2402 45.3906 10.8896ZM54.3936 17.3086C54.4346 17.3496 54.4688 17.3906 54.5098 17.4316C54.4688 17.3975 54.4346 17.3564 54.3936 17.3086ZM46.6963 11.4912C48.3916 12.332 49.9775 13.3574 51.4336 14.5264C49.9707 13.3506 48.3848 12.332 46.6963 11.4912ZM52.0215 15.0186C52.1035 15.0869 52.1924 15.1621 52.2744 15.2373C52.1855 15.1621 52.1035 15.0869 52.0215 15.0186ZM51.4678 14.5537C51.5977 14.6562 51.7275 14.7656 51.8574 14.875C51.7275 14.7725 51.5977 14.6631 51.4678 14.5537ZM54.7695 17.7256C54.8447 17.8076 54.9131 17.8896 54.9883 17.9785C54.9131 17.8965 54.8379 17.8145 54.7695 17.7256ZM45.623 10.9854C45.7461 11.04 45.876 11.0947 45.999 11.1562C45.8691 11.1016 45.7461 11.04 45.623 10.9854ZM55.125 18.1426C55.2344 18.2725 55.3369 18.4023 55.4463 18.5322C55.3369 18.4023 55.2275 18.2725 55.125 18.1426Z" fill="#FFEA00"/>
<path d="M59.0146 24.3838C58.96 24.2607 58.8984 24.1309 58.8437 24.0078C58.8164 23.9531 58.7891 23.8916 58.7617 23.8369C58.6934 23.6865 58.6182 23.5361 58.543 23.3857C58.5293 23.3584 58.5156 23.3379 58.5088 23.3105C57.668 21.6152 56.6426 20.0293 55.4668 18.5732C55.46 18.5664 55.4531 18.5527 55.4463 18.5459C55.3437 18.416 55.2344 18.2861 55.125 18.1562C55.0771 18.1016 55.0361 18.0469 54.9883 17.9922C54.9199 17.9102 54.8447 17.8213 54.7695 17.7393C54.6875 17.6436 54.5986 17.5479 54.5098 17.4453C54.4688 17.4043 54.4346 17.3633 54.3936 17.3223C54.2705 17.1924 54.1543 17.0625 54.0312 16.9326L53.9971 16.8984C53.8535 16.748 53.71 16.5977 53.5596 16.4541C53.4092 16.3105 53.2656 16.1602 53.1152 16.0166L53.0811 15.9824C52.9512 15.8594 52.8213 15.7363 52.6914 15.6201C52.6504 15.5791 52.6094 15.5449 52.5684 15.5039C52.4727 15.415 52.377 15.333 52.2744 15.2441C52.1924 15.1689 52.1104 15.1006 52.0215 15.0254C51.9668 14.9775 51.9121 14.9297 51.8574 14.8887C51.7275 14.7793 51.5977 14.6768 51.4678 14.5674C51.4609 14.5605 51.4473 14.5537 51.4404 14.5469C49.9775 13.3711 48.3916 12.3525 46.7031 11.5117C46.6758 11.498 46.6553 11.4844 46.6279 11.4775C46.4775 11.4023 46.3271 11.3271 46.1768 11.2588C46.1221 11.2314 46.0605 11.2041 46.0059 11.1768C45.8828 11.1221 45.7529 11.0605 45.6299 11.0059L45.4043 10.9033C43.9072 10.2539 42.335 9.74121 40.7012 9.38574L37.8506 22.2168C42.8066 23.3105 46.71 27.2139 47.8037 32.1631L60.6348 29.3057C60.2725 27.6855 59.7666 26.1201 59.1172 24.623C59.0762 24.5342 59.0488 24.459 59.0146 24.3838Z" fill="#FFEA00"/>
<path d="M45.3906 10.8896L45.6162 10.9922C45.7393 11.0469 45.8691 11.1084 45.9922 11.1631C46.0469 11.1904 46.1084 11.2178 46.1631 11.2451C46.3135 11.3135 46.4639 11.3887 46.6143 11.4639C46.6416 11.4775 46.6621 11.4912 46.6895 11.498C48.3779 12.3389 49.9639 13.3574 51.4268 14.5332C51.4336 14.54 51.4473 14.5469 51.4541 14.5537C51.584 14.6562 51.7139 14.7656 51.8438 14.875C51.8984 14.9229 51.9531 14.9639 52.0078 15.0117C52.0898 15.0801 52.1787 15.1553 52.2607 15.2305C52.3564 15.3125 52.4521 15.4014 52.5547 15.4902C52.5957 15.5312 52.6367 15.5654 52.6777 15.6064C52.8076 15.7295 52.9375 15.8457 53.0674 15.9688L53.1016 16.0029C53.4023 16.29 53.6963 16.584 53.9834 16.8848L54.0176 16.9189C54.1406 17.0488 54.2637 17.1787 54.3799 17.3086C54.4209 17.3496 54.4551 17.3906 54.4961 17.4316C54.585 17.5273 54.667 17.623 54.7559 17.7256C54.8311 17.8076 54.8994 17.8896 54.9746 17.9785C55.0225 18.0332 55.0703 18.0879 55.1113 18.1426C55.2207 18.2725 55.3232 18.4023 55.4326 18.5322C55.4395 18.5391 55.4463 18.5527 55.4531 18.5596C56.6357 20.0293 57.6543 21.6152 58.4951 23.2969C58.5088 23.3242 58.5225 23.3447 58.5293 23.3721C58.6045 23.5225 58.6797 23.6729 58.7481 23.8232C58.7754 23.8779 58.8027 23.9395 58.8301 23.9941C58.8848 24.1172 58.9463 24.2471 59.001 24.3701L59.1035 24.5957C59.1309 24.6572 59.1582 24.7119 59.1787 24.7734C59.8008 26.2363 60.2793 27.7402 60.6211 29.2783L64.8867 28.3281C62.3301 16.7686 53.2178 7.65625 41.6377 5.09961L40.6943 9.36523C42.2393 9.70703 43.75 10.1855 45.2197 10.8076C45.2744 10.835 45.3359 10.8623 45.3906 10.8896Z" fill="#FFFF8D"/>
<path d="M45.3906 10.8896L45.6162 10.9922C45.541 10.9512 45.4658 10.9238 45.3906 10.8896ZM51.8574 14.875C51.9121 14.9229 51.9668 14.9639 52.0215 15.0117C51.9668 14.9707 51.9121 14.9229 51.8574 14.875ZM45.999 11.1562C46.0537 11.1836 46.1152 11.2109 46.1699 11.2383C46.1084 11.2109 46.0537 11.1836 45.999 11.1562ZM46.6211 11.457C46.6484 11.4707 46.6689 11.4844 46.6963 11.4912C46.6758 11.4844 46.6484 11.4707 46.6211 11.457ZM58.7617 23.8301C58.7891 23.8848 58.8164 23.9463 58.8437 24.001C58.8164 23.9463 58.7891 23.8916 58.7617 23.8301ZM59.0146 24.3838L59.1172 24.6094C59.0762 24.5342 59.0488 24.459 59.0146 24.3838ZM58.5088 23.3037C58.5225 23.3311 58.5361 23.3516 58.543 23.3789C58.5293 23.3516 58.5156 23.3242 58.5088 23.3037ZM52.2744 15.2305C52.3701 15.3125 52.4658 15.4014 52.5684 15.4902C52.4658 15.4014 52.3701 15.3193 52.2744 15.2305ZM53.9971 16.8848C53.71 16.584 53.416 16.29 53.1152 16.0029C53.2656 16.1465 53.416 16.29 53.5596 16.4404C53.7031 16.5908 53.8535 16.7344 53.9971 16.8848ZM52.6914 15.6064C52.8213 15.7295 52.9512 15.8457 53.0811 15.9688C52.9512 15.8457 52.8213 15.7227 52.6914 15.6064Z" fill="#FFEA00"/>
</svg>
