<svg width="70" height="70" viewBox="0 0 70 70" fill="none" xmlns="http://www.w3.org/2000/svg">
<path d="M32.293 5.23622C28.9229 7.8954 22.4355 12.7216 12.749 13.1112C10.5957 13.2001 8.8252 14.8954 8.75684 17.0487V45.8485C8.75684 47.2704 9.44727 48.6102 10.6162 49.4306L32.5869 64.8798C34.0566 65.8573 35.9707 65.8573 37.4404 64.8798L59.3975 49.4306C60.5596 48.6102 61.2568 47.2772 61.2568 45.8554V17.3495V17.1991C61.1816 15.0526 59.418 13.3642 57.2783 13.2753C47.585 12.872 41.1045 7.91591 37.7275 5.24989C36.2236 4.06044 33.79 4.05361 32.293 5.23622Z" fill="#3D5AFE"/>
<path d="M48.125 34.9932C48.125 22.5107 40.6533 11.7715 29.9414 7C26.2432 9.61816 20.5215 12.79 12.7354 13.1045C10.5889 13.1865 8.8252 14.8955 8.75 17.042V45.8418C8.75 47.2637 9.44043 48.6035 10.6094 49.4238L29.9209 63C40.6465 58.2353 48.125 47.4893 48.125 34.9932Z" fill="#536DFE"/>
<path d="M43.7568 39.375H26.2568C23.8438 39.375 21.8818 37.4131 21.8818 35C21.8818 32.5869 23.8438 30.625 26.2568 30.625H43.7637C46.1768 30.625 48.1387 32.5869 48.1387 35C48.1318 37.4131 46.1768 39.375 43.7568 39.375Z" fill="#FFFF00"/>
<path d="M39.375 24.0693V45.9307C39.375 48.3438 37.4131 50.3057 35 50.3057C32.5869 50.3057 30.625 48.3438 30.625 45.9307V24.0693C30.625 21.6562 32.5869 19.6943 35 19.6943C37.4131 19.6943 39.375 21.6494 39.375 24.0693Z" fill="#FFEA00"/>
</svg>
