<svg width="80" height="80" viewBox="0 0 80 80" fill="none" xmlns="http://www.w3.org/2000/svg">
<path d="M67 17.8462V60.1538C67 62.2752 65.2703 64 63.1429 64H16.8571C14.7297 64 13 62.2752 13 60.1538V17.8462C13 15.7248 14.7297 14 16.8571 14H63.1429C65.2703 14 67 15.7248 67 17.8462Z" fill="#3D5AFE"/>
<path d="M55 36C55 23.3058 47.1727 12.449 36.0934 8H16.3C13.9283 8 12 9.93173 12 12.3077V59.6923C12 62.0683 13.9283 64 16.3 64H36.0934C47.1727 59.551 55 48.6942 55 36Z" fill="#536DFE"/>
<path d="M7.94531 72.0547C8.57031 72.3359 9.26563 72.5 10 72.5H70C70.7344 72.5 71.4297 72.3438 72.0547 72.0547L40 40L7.94531 72.0547Z" fill="#8C9EFF"/>
<path d="M53 35.8525C53 28.7569 47.1771 23 40 23C32.8229 23 27 28.7569 27 35.8525C27 39.6614 28.6724 43.0754 31.3333 45.4317L40 54L48.6667 45.4317C51.3276 43.0754 53 39.6547 53 35.8525ZM40 40.1367C37.6099 40.1367 35.6667 38.2155 35.6667 35.8525C35.6667 33.4895 37.6099 31.5683 40 31.5683C42.3901 31.5683 44.3333 33.4895 44.3333 35.8525C44.3333 38.2155 42.3901 40.1367 40 40.1367Z" fill="#FFEA00"/>
</svg>
