<svg width="60" height="80" viewBox="0 0 60 80" fill="none" xmlns="http://www.w3.org/2000/svg">
<path d="M17.3682 50.9803H42.6313V80L30.7892 72.9411L17.3682 80V50.9803Z" fill="#0055A5"/>
<path d="M35.5259 50.9803H37.1048V76.7028L35.5259 75.753V50.9803Z" fill="white"/>
<path d="M22.8945 50.9803H24.4735V76.2671L22.8945 77.095V50.9803Z" fill="white"/>
<path d="M30 0L32.1419 2.76596L34.693 0.366936L36.3731 3.43172L39.2705 1.45871L40.4473 4.74686L43.6197 3.24843L44.2642 6.67898L47.6336 5.69204L47.7299 9.18052L51.2132 8.72937L50.7591 12.1899L54.2705 12.2856L53.2771 15.6329L56.7302 16.2732L55.2219 19.4249L58.5317 20.594L56.5457 23.4725L59.6306 25.1416L57.2158 27.676L60 29.8039L57.2158 31.9319L59.6306 34.4663L56.5457 36.1353L58.5317 39.0138L55.2219 40.1829L56.7302 43.3346L53.2771 43.9749L54.2705 47.3222L50.7591 47.418L51.2132 50.8785L47.7299 50.4273L47.6336 53.9158L44.2642 52.9289L43.6197 56.3594L40.4473 54.861L39.2705 58.1491L36.3731 56.1761L34.693 59.2409L32.1419 56.8419L30 59.6078L27.8581 56.8419L25.307 59.2409L23.6269 56.1761L20.7295 58.1491L19.5527 54.861L16.3803 56.3594L15.7358 52.9289L12.3664 53.9158L12.2701 50.4273L8.7868 50.8785L9.24092 47.418L5.72949 47.3222L6.72293 43.9749L3.2698 43.3346L4.77809 40.1829L1.4683 39.0138L3.4543 36.1353L0.36935 34.4663L2.78416 31.9319L0 29.8039L2.78416 27.676L0.36935 25.1416L3.4543 23.4725L1.4683 20.594L4.77809 19.4249L3.2698 16.2732L6.72293 15.6329L5.72949 12.2856L9.24092 12.1899L8.7868 8.72937L12.2701 9.18052L12.3664 5.69204L15.7358 6.67898L16.3803 3.24843L19.5527 4.74686L20.7295 1.45871L23.6269 3.43172L25.307 0.366936L27.8581 2.76596L30 0Z" fill="url(#paint0_linear_46_707)"/>
<g filter="url(#filter0_d_46_707)">
<path d="M15.8972 31.4933C15.4004 31.4933 14.9878 31.4469 14.6593 31.3543C14.3309 31.2533 14.0657 31.0975 13.8635 30.8869C13.6614 30.6764 13.5099 30.4027 13.4088 30.0659C13.3078 29.7206 13.2404 29.2996 13.2067 28.8027C13.173 28.3059 13.1562 27.7206 13.1562 27.0469C13.1562 26.3733 13.173 25.788 13.2067 25.2912C13.2488 24.7943 13.3204 24.3733 13.4214 24.028C13.5225 23.6827 13.6741 23.4048 13.8762 23.1943C14.0783 22.9838 14.3435 22.8322 14.672 22.7396C15.0088 22.6469 15.4172 22.6006 15.8972 22.6006C16.0909 22.6006 16.2846 22.6133 16.4783 22.6385C16.672 22.6554 16.853 22.6764 17.0214 22.7017C17.1899 22.7269 17.3246 22.7606 17.4257 22.8027V24.3312C17.2572 24.3143 17.1014 24.3017 16.9583 24.2933C16.8235 24.2764 16.7014 24.268 16.592 24.268C16.4825 24.2596 16.3857 24.2554 16.3014 24.2554C16.0909 24.2554 15.9141 24.268 15.7709 24.2933C15.6278 24.3185 15.5141 24.3817 15.4299 24.4827C15.3457 24.5754 15.2825 24.7227 15.2404 24.9248C15.2067 25.1269 15.1814 25.4006 15.1646 25.7459C15.1562 26.0827 15.152 26.5164 15.152 27.0469C15.152 27.5775 15.1562 28.0154 15.1646 28.3606C15.1814 28.7059 15.2067 28.9796 15.2404 29.1817C15.2825 29.3754 15.3457 29.5227 15.4299 29.6238C15.5141 29.7164 15.6235 29.7754 15.7583 29.8006C15.9014 29.8259 16.0825 29.8385 16.3014 29.8385C16.5288 29.8385 16.7351 29.8343 16.9204 29.8259C17.1141 29.8091 17.2909 29.788 17.4509 29.7627V31.2785C17.333 31.3206 17.1857 31.3585 17.0088 31.3922C16.832 31.4259 16.6467 31.4512 16.453 31.468C16.2593 31.4848 16.0741 31.4933 15.8972 31.4933ZM18.3774 31.3922V22.7017H22.7605V24.3564H20.3732V26.1754H22.4068V27.8175H20.3732V29.7375H22.7605V31.3922H18.3774ZM23.768 31.3922V22.7017H26.8501C27.3469 22.7017 27.7427 22.7648 28.0375 22.8912C28.3406 23.0175 28.5638 23.2027 28.7069 23.4469C28.8585 23.6912 28.9596 23.9901 29.0101 24.3438C29.0606 24.6975 29.0859 25.1017 29.0859 25.5564C29.0859 25.9185 29.0648 26.2638 29.0227 26.5922C28.989 26.9122 28.9132 27.1943 28.7954 27.4385C28.6775 27.6827 28.5006 27.8848 28.2648 28.0448L29.2754 31.3922H27.2164L26.3954 28.1838L26.6859 28.3606C26.6438 28.3775 26.5932 28.3901 26.5343 28.3985C26.4838 28.3985 26.408 28.3985 26.3069 28.3985H25.7638V31.3922H23.768ZM25.7638 26.8196H26.3448C26.5217 26.8196 26.6564 26.8027 26.749 26.7691C26.8501 26.7269 26.9217 26.6596 26.9638 26.5669C27.0143 26.4743 27.0438 26.348 27.0522 26.188C27.069 26.0196 27.0775 25.8133 27.0775 25.5691C27.0775 25.308 27.069 25.0975 27.0522 24.9375C27.0438 24.7775 27.0185 24.6554 26.9764 24.5712C26.9343 24.4869 26.8627 24.428 26.7617 24.3943C26.6606 24.3606 26.5217 24.3438 26.3448 24.3438H25.7638V26.8196ZM31.1957 31.3922V24.4069H29.6041V22.7017H34.783V24.4069H33.1914V31.3922H31.1957ZM38.2533 31.4933C37.807 31.4933 37.4281 31.4554 37.1165 31.3796C36.8049 31.3038 36.5439 31.1733 36.3333 30.988C36.1312 30.8027 35.9712 30.5459 35.8533 30.2175C35.7355 29.8806 35.6512 29.4554 35.6007 28.9417C35.5586 28.4196 35.5376 27.788 35.5376 27.0469C35.5376 26.3059 35.5586 25.6785 35.6007 25.1648C35.6512 24.6512 35.7355 24.2259 35.8533 23.8891C35.9797 23.5522 36.1439 23.2912 36.346 23.1059C36.5481 22.9206 36.8049 22.7901 37.1165 22.7143C37.4365 22.6385 37.8239 22.6006 38.2786 22.6006C38.4976 22.6006 38.7291 22.6133 38.9733 22.6385C39.226 22.6554 39.466 22.6848 39.6933 22.7269C39.9291 22.7606 40.1312 22.8027 40.2997 22.8533V23.7248C40.0807 23.6827 39.8702 23.6491 39.6681 23.6238C39.4744 23.5901 39.2933 23.5691 39.1249 23.5606C38.9649 23.5438 38.8176 23.5354 38.6828 23.5354C38.3376 23.5354 38.0428 23.5522 37.7986 23.5859C37.5544 23.6112 37.3523 23.6785 37.1923 23.788C37.0407 23.8975 36.9228 24.0785 36.8386 24.3312C36.7544 24.5754 36.6955 24.9164 36.6618 25.3543C36.6281 25.7922 36.6112 26.3564 36.6112 27.0469C36.6112 27.6533 36.6197 28.1669 36.6365 28.588C36.6618 29.0006 36.7039 29.3417 36.7628 29.6112C36.8302 29.8722 36.9228 30.0743 37.0407 30.2175C37.1586 30.3522 37.3144 30.4448 37.5081 30.4954C37.7102 30.5459 37.9544 30.5712 38.2407 30.5712C38.367 30.5712 38.4891 30.5712 38.607 30.5712C38.7249 30.5627 38.8386 30.5501 38.9481 30.5333C39.066 30.5164 39.1797 30.4996 39.2891 30.4827V27.6027H38.0765V26.6933H40.3249V31.2533C40.1228 31.2954 39.8997 31.3375 39.6555 31.3796C39.4112 31.4133 39.167 31.4385 38.9228 31.4554C38.687 31.4806 38.4639 31.4933 38.2533 31.4933ZM44.2831 31.4933C43.8199 31.4933 43.4325 31.4638 43.1209 31.4048C42.8094 31.3459 42.5567 31.2322 42.3631 31.0638C42.1778 30.8869 42.0346 30.6343 41.9336 30.3059C41.8325 29.9775 41.7609 29.548 41.7188 29.0175C41.6852 28.4869 41.6683 27.8301 41.6683 27.0469C41.6683 26.2638 41.6852 25.6069 41.7188 25.0764C41.7609 24.5459 41.8325 24.1164 41.9336 23.788C42.0346 23.4596 42.1778 23.2112 42.3631 23.0427C42.5567 22.8659 42.8094 22.748 43.1209 22.6891C43.4325 22.6301 43.8199 22.6006 44.2831 22.6006C44.7462 22.6006 45.1294 22.6301 45.4325 22.6891C45.7441 22.748 45.9967 22.8659 46.1904 23.0427C46.3841 23.2112 46.5315 23.4596 46.6325 23.788C46.7336 24.1164 46.8009 24.5459 46.8346 25.0764C46.8767 25.6069 46.8978 26.2638 46.8978 27.0469C46.8978 27.8301 46.8767 28.4869 46.8346 29.0175C46.8009 29.548 46.7336 29.9775 46.6325 30.3059C46.5315 30.6343 46.3841 30.8869 46.1904 31.0638C45.9967 31.2322 45.7441 31.3459 45.4325 31.4048C45.1294 31.4638 44.7462 31.4933 44.2831 31.4933ZM44.2831 30.5585C44.5694 30.5585 44.8052 30.5417 44.9904 30.508C45.1841 30.4659 45.3357 30.3859 45.4452 30.268C45.5631 30.1501 45.6473 29.9648 45.6978 29.7122C45.7567 29.4596 45.7904 29.1185 45.7988 28.6891C45.8157 28.2512 45.8241 27.7038 45.8241 27.0469C45.8241 26.3901 45.8157 25.8469 45.7988 25.4175C45.7904 24.9796 45.7567 24.6343 45.6978 24.3817C45.6473 24.1291 45.5631 23.9438 45.4452 23.8259C45.3357 23.708 45.1841 23.6322 44.9904 23.5985C44.8052 23.5564 44.5694 23.5354 44.2831 23.5354C43.9967 23.5354 43.7609 23.5564 43.5757 23.5985C43.3904 23.6322 43.2388 23.708 43.1209 23.8259C43.0115 23.9438 42.9273 24.1291 42.8683 24.3817C42.8178 24.6343 42.7841 24.9796 42.7673 25.4175C42.7588 25.8469 42.7546 26.3901 42.7546 27.0469C42.7546 27.7038 42.7588 28.2512 42.7673 28.6891C42.7841 29.1185 42.8178 29.4596 42.8683 29.7122C42.9273 29.9648 43.0115 30.1501 43.1209 30.268C43.2388 30.3859 43.3904 30.4659 43.5757 30.508C43.7609 30.5417 43.9967 30.5585 44.2831 30.5585Z" fill="#FFDD84"/>
</g>
<path d="M22.2966 40.7347C22.0252 40.7347 21.7939 40.67 21.6027 40.5404C21.4115 40.4078 21.3159 40.2505 21.3159 40.0686C21.3159 39.9267 21.3637 39.8265 21.4593 39.7679C21.5549 39.7093 21.6505 39.68 21.7461 39.68C21.7985 39.68 21.8494 39.697 21.8988 39.7309C21.9512 39.7618 21.9774 39.8157 21.9774 39.8928C21.9774 39.9514 21.9512 40.0038 21.8988 40.0501C21.8494 40.0964 21.7893 40.1195 21.7184 40.1195C21.6783 40.1195 21.6382 40.1179 21.5981 40.1149C21.5611 40.1087 21.5272 40.0948 21.4963 40.0732V40.101C21.4963 40.2521 21.5719 40.3754 21.723 40.471C21.8741 40.5666 22.0776 40.6144 22.3336 40.6144C22.4878 40.6144 22.6389 40.5929 22.7869 40.5497C22.938 40.5034 23.1061 40.4171 23.2911 40.2906C23.4762 40.1611 23.6982 39.9745 23.9573 39.7309C24.2163 39.4842 24.5309 39.165 24.9009 38.7734C25.271 38.3786 25.7166 37.8914 26.2378 37.3116C26.8268 36.6362 27.3835 36.0873 27.9077 35.6648C28.432 35.2423 28.9023 34.9201 29.3186 34.698C29.149 34.5253 28.9115 34.3943 28.6062 34.3048C28.304 34.2123 27.9555 34.166 27.5608 34.166C27.3449 34.166 27.1136 34.1892 26.8669 34.2354C26.6233 34.2786 26.3935 34.3403 26.1777 34.4205C25.8076 34.5562 25.4437 34.7412 25.086 34.9756C24.7313 35.2099 24.4106 35.4659 24.1238 35.7435C23.837 36.021 23.6088 36.297 23.4392 36.5715C23.2696 36.8459 23.1848 37.0927 23.1848 37.3116C23.1848 37.4966 23.2464 37.6323 23.3698 37.7187C23.4931 37.805 23.6427 37.8482 23.8185 37.8482C24.0806 37.8482 24.3705 37.7711 24.6881 37.6169C25.0089 37.4627 25.3188 37.2499 25.6179 36.9785C25.9171 36.7072 26.173 36.3942 26.3858 36.0395C26.6017 35.6818 26.7374 35.3009 26.7929 34.8969C26.8052 34.8352 26.8145 34.7952 26.8206 34.7767C26.8268 34.7582 26.8391 34.7489 26.8577 34.7489C26.8916 34.7489 26.9085 34.7828 26.9085 34.8507C26.9085 35.2978 26.8145 35.7111 26.6264 36.0904C26.4382 36.4666 26.19 36.7935 25.8816 37.0711C25.5732 37.3486 25.234 37.5645 24.8639 37.7187C24.4969 37.8729 24.133 37.95 23.7722 37.95C23.5872 37.95 23.4191 37.8991 23.268 37.7973C23.12 37.6925 23.046 37.5259 23.046 37.2977C23.046 36.9986 23.1292 36.6964 23.2958 36.3911C23.4654 36.0827 23.6982 35.7897 23.9943 35.5122C24.2903 35.2346 24.6326 34.9879 25.0212 34.772C25.4098 34.5531 25.8246 34.3804 26.2655 34.2539C26.7096 34.1275 27.1599 34.0643 27.6163 34.0643C28.4489 34.0643 29.0904 34.237 29.5406 34.5824C29.7843 34.4652 30.0032 34.3804 30.1975 34.328C30.3918 34.2755 30.5583 34.2493 30.6971 34.2493C30.7989 34.2493 30.8497 34.2647 30.8497 34.2956C30.8497 34.3141 30.8004 34.331 30.7017 34.3465C30.6061 34.3588 30.4689 34.3881 30.29 34.4343C30.1111 34.4806 29.9014 34.5654 29.6609 34.6888C29.9508 34.9632 30.0957 35.3055 30.0957 35.7157C30.0957 35.9902 30.0109 36.26 29.8413 36.5252C29.6717 36.7873 29.4466 37.0263 29.1659 37.2422C28.8884 37.4581 28.5877 37.6323 28.2639 37.7649C28.5106 37.9839 28.634 38.2938 28.634 38.6947C28.634 38.9569 28.56 39.2097 28.4119 39.4534C28.267 39.697 28.0696 39.9159 27.8198 40.1102C27.5731 40.3014 27.294 40.4541 26.9826 40.5682C26.6711 40.6792 26.3488 40.7347 26.0158 40.7347C25.7197 40.7347 25.5177 40.6777 25.4098 40.5636C25.3018 40.4495 25.2479 40.3354 25.2479 40.2212C25.2479 40.0609 25.3173 39.8851 25.456 39.6939C25.5948 39.5027 25.7798 39.3208 26.0111 39.1481C26.2424 38.9754 26.4999 38.8335 26.7836 38.7225C27.0674 38.6115 27.3542 38.556 27.644 38.556C27.7088 38.556 27.7412 38.5745 27.7412 38.6115C27.7412 38.6546 27.6934 38.6762 27.5978 38.6762C27.3572 38.6762 27.1074 38.7271 26.8484 38.8289C26.5924 38.9276 26.355 39.0555 26.136 39.2128C25.9171 39.3701 25.7397 39.5382 25.6041 39.717C25.4684 39.8959 25.4005 40.0655 25.4005 40.2259C25.4005 40.3184 25.4437 40.4047 25.53 40.4849C25.6164 40.5651 25.7845 40.6052 26.0343 40.6052C26.2532 40.6052 26.4845 40.542 26.7281 40.4155C26.9718 40.2891 27.2 40.1133 27.4128 39.8882C27.6255 39.6631 27.7982 39.4025 27.9308 39.1064C28.0665 38.8073 28.1344 38.485 28.1344 38.1396C28.1344 38.0163 28.1113 37.9176 28.065 37.8436C27.9139 37.8929 27.7612 37.933 27.607 37.9638C27.4528 37.9916 27.3017 38.0055 27.1537 38.0055C27.0118 38.0055 26.9039 37.9824 26.8299 37.9361C26.7559 37.8898 26.7189 37.842 26.7189 37.7927C26.7189 37.7187 26.796 37.6508 26.9502 37.5892C27.1044 37.5275 27.2801 37.4966 27.4775 37.4966C27.6872 37.4966 27.8753 37.5383 28.0419 37.6215C28.3009 37.4951 28.5507 37.3239 28.7912 37.1081C29.0318 36.8922 29.2292 36.6393 29.3834 36.3494C29.5375 36.0565 29.6146 35.7373 29.6146 35.3919C29.6146 35.176 29.5499 34.9848 29.4204 34.8183C29.3525 34.8584 29.2816 34.9031 29.2076 34.9524C29.1366 35.0018 29.0626 35.0542 28.9855 35.1097C28.7296 35.3009 28.4767 35.5152 28.2269 35.7527C27.9771 35.9902 27.7165 36.2677 27.4451 36.5854C27.1738 36.903 26.8777 37.2777 26.557 37.7094C25.9772 38.4866 25.4144 39.108 24.8685 39.5736C24.3258 40.0393 23.8077 40.3739 23.3143 40.5774C23.1447 40.6453 22.975 40.6885 22.8054 40.707C22.6389 40.7255 22.4693 40.7347 22.2966 40.7347ZM27.1583 37.8575C27.3804 37.8575 27.6271 37.8004 27.8985 37.6863C27.7998 37.6308 27.661 37.603 27.4821 37.603C27.3372 37.603 27.2123 37.62 27.1074 37.6539C27.0057 37.6848 26.9548 37.7187 26.9548 37.7557C26.9548 37.7773 26.9733 37.8004 27.0103 37.8251C27.0504 37.8467 27.0997 37.8575 27.1583 37.8575ZM29.7303 40.7532C29.4281 40.7532 29.2122 40.6746 29.0827 40.5173C28.9532 40.36 28.8853 40.1673 28.8791 39.9391C28.8761 39.7725 28.91 39.5875 28.9809 39.384C29.0518 39.1804 29.1258 39.0247 29.2029 38.9168C29.4312 38.5991 29.6779 38.3401 29.9431 38.1396C30.2083 37.9392 30.4673 37.7927 30.7202 37.7002C30.9762 37.6046 31.2013 37.5568 31.3956 37.5568C31.5837 37.5568 31.7148 37.5876 31.7888 37.6493C31.8659 37.711 31.906 37.7819 31.9091 37.8621C31.9183 37.9824 31.8535 38.1227 31.7148 38.283C31.5791 38.4403 31.3401 38.6115 30.9978 38.7965C30.6555 38.9815 30.1775 39.1758 29.5638 39.3793C29.4558 39.552 29.3834 39.7016 29.3463 39.8281C29.3093 39.9514 29.2908 40.0624 29.2908 40.1611C29.2908 40.3061 29.3386 40.4186 29.4342 40.4988C29.5329 40.579 29.6486 40.6191 29.7812 40.6191C30.0711 40.6191 30.3424 40.5651 30.5953 40.4572C30.8513 40.3461 31.0841 40.2074 31.2938 40.0408C31.5066 39.8743 31.6932 39.7062 31.8535 39.5366C32.0139 39.3639 32.145 39.2144 32.2467 39.0879C32.3485 38.9584 32.4163 38.8782 32.4503 38.8474L32.5474 38.926C32.5012 38.9661 32.4225 39.054 32.3115 39.1897C32.2036 39.3254 32.0648 39.4811 31.8952 39.6569C31.7286 39.8327 31.5359 40.0038 31.3169 40.1704C31.098 40.3369 30.8544 40.4757 30.5861 40.5867C30.3209 40.6977 30.0356 40.7532 29.7303 40.7532ZM29.6702 39.2174C30.2684 39.0077 30.7403 38.7919 31.0857 38.5698C31.431 38.3447 31.6037 38.1304 31.6037 37.9268C31.6037 37.7541 31.5236 37.6678 31.3632 37.6678C31.1566 37.6678 30.933 37.7788 30.6925 38.0009C30.4519 38.2229 30.1713 38.5452 29.8506 38.9677C29.7827 39.054 29.7226 39.1373 29.6702 39.2174ZM32.1959 40.8319C32.1003 40.8319 31.9769 40.8195 31.8258 40.7949C31.6747 40.7702 31.5405 40.7178 31.4233 40.6376C31.3031 40.5574 31.2429 40.4325 31.2429 40.2629C31.2429 40.1087 31.2907 39.9822 31.3863 39.8836C31.4788 39.7818 31.5822 39.7062 31.6963 39.6569C31.8104 39.6076 31.8952 39.5829 31.9507 39.5829C32.0771 39.5829 32.1403 39.6415 32.1403 39.7587C32.1373 39.808 32.1018 39.8543 32.0339 39.8974C31.9692 39.9375 31.8967 39.9576 31.8165 39.9576C31.7795 39.9576 31.7441 39.9452 31.7101 39.9206C31.6731 39.8928 31.6438 39.8728 31.6222 39.8604C31.5883 39.8944 31.5374 39.9452 31.4696 40.0131C31.3987 40.0778 31.3632 40.1627 31.3632 40.2675C31.3632 40.3847 31.411 40.4726 31.5066 40.5312C31.5991 40.5867 31.704 40.6237 31.8212 40.6422C31.9383 40.6576 32.0278 40.6653 32.0895 40.6653C32.219 40.6653 32.3809 40.6144 32.5752 40.5127C32.7695 40.4078 32.9499 40.2336 33.1164 39.99C33.286 39.7463 33.3955 39.4148 33.4448 38.9954C33.4602 38.8474 33.4741 38.6423 33.4865 38.3802C33.5019 38.118 33.5512 37.8667 33.6345 37.6262C33.6376 37.6169 33.6391 37.603 33.6391 37.5845C33.5219 37.7295 33.3955 37.8852 33.2598 38.0517C33.1241 38.2183 32.993 38.3786 32.8666 38.5328C32.7432 38.687 32.6368 38.8181 32.5474 38.926C32.4857 39 32.441 39.0478 32.4133 39.0694C32.3855 39.091 32.3732 39.1018 32.3763 39.1018C32.3732 39.1018 32.3608 39.1033 32.3393 39.1064C32.3207 39.1064 32.3053 39.0956 32.293 39.074C32.2868 39.0586 32.3007 39.0293 32.3346 38.9862C32.3716 38.943 32.4102 38.8967 32.4503 38.8474C32.5212 38.7672 32.6307 38.6392 32.7787 38.4634C32.9267 38.2877 33.0825 38.0995 33.2459 37.8991C33.4124 37.6986 33.5558 37.5213 33.6761 37.3671C33.6946 37.2746 33.7224 37.1913 33.7594 37.1173C33.7964 37.0433 33.8488 37.0063 33.9167 37.0063C34.04 37.0063 34.1017 37.0572 34.1017 37.159C34.0986 37.2175 34.0277 37.327 33.8889 37.4874C33.8056 37.5861 33.7609 37.6508 33.7548 37.6817C33.7486 37.7094 33.7455 37.7464 33.7455 37.7927C33.7424 37.9037 33.7532 38.0425 33.7779 38.209C33.8056 38.3725 33.8349 38.5452 33.8658 38.7271C33.8966 38.906 33.9167 39.0771 33.9259 39.2406C33.9352 39.4842 33.9074 39.6954 33.8426 39.8743C33.892 39.8805 33.9336 39.8836 33.9675 39.8836C34.0662 39.8836 34.1788 39.8388 34.3052 39.7494C34.4347 39.66 34.5627 39.5536 34.6892 39.4302C34.8156 39.3069 34.9251 39.1897 35.0176 39.0787C35.1132 38.9677 35.1764 38.8906 35.2073 38.8474L35.309 38.926C35.2566 38.9815 35.1795 39.0679 35.0777 39.1851C34.976 39.2992 34.8603 39.4194 34.7308 39.5459C34.6013 39.6692 34.4687 39.7756 34.333 39.8651C34.2004 39.9514 34.0739 39.9946 33.9537 39.9946C33.9259 39.9946 33.8997 39.9946 33.875 39.9946C33.8504 39.9915 33.8257 39.9884 33.801 39.9853C33.6561 40.3061 33.4417 40.5281 33.158 40.6515C32.8743 40.7717 32.5536 40.8319 32.1959 40.8319ZM34.8881 40.7347C34.7185 40.7347 34.592 40.7008 34.5088 40.6329C34.4224 40.5651 34.3792 40.4788 34.3792 40.3739C34.3792 40.2906 34.39 40.2089 34.4116 40.1287C34.4332 40.0455 34.4795 39.9406 34.5504 39.8142C34.6213 39.6877 34.7293 39.5181 34.8742 39.3053C35.0191 39.0895 35.215 38.8073 35.4617 38.4588L36.6551 36.7796H36.2897C36.1972 36.7796 36.1509 36.7596 36.1509 36.7195C36.1509 36.6702 36.2095 36.6455 36.3267 36.6455H36.7477L37.6034 35.4428C37.6435 35.4489 37.696 35.4551 37.7607 35.4613C37.8286 35.4644 37.9242 35.4644 38.0475 35.4613C38.1092 35.4613 38.1755 35.4551 38.2464 35.4428L37.3536 36.6455H38.5471C38.6335 36.6455 38.6766 36.6671 38.6766 36.7103C38.6766 36.7565 38.6381 36.7796 38.561 36.7796H37.2519L36.0307 38.4264C35.7408 38.815 35.5079 39.1342 35.3322 39.384C35.1564 39.6338 35.0222 39.8311 34.9297 39.9761C34.8403 40.121 34.7786 40.229 34.7447 40.2999C34.7138 40.3708 34.6984 40.4232 34.6984 40.4572C34.6984 40.5497 34.7755 40.599 34.9297 40.6052C35.1425 40.6021 35.3615 40.5327 35.5866 40.397C35.8148 40.2583 36.0337 40.0902 36.2434 39.8928C36.4532 39.6924 36.6413 39.4965 36.8078 39.3053C36.9743 39.1111 37.1038 38.9584 37.1964 38.8474L37.2981 38.926C37.2087 39.0309 37.0776 39.182 36.9049 39.3793C36.7322 39.5767 36.5333 39.7803 36.3082 39.99C36.0862 40.1966 35.8533 40.3724 35.6097 40.5173C35.3661 40.6622 35.1255 40.7347 34.8881 40.7347Z" fill="#FFEDBD"/>
<path d="M30.3945 8.6322C42.3897 8.6322 52.1052 18.2916 52.1055 30.1957C52.1055 42.1 42.3898 51.7592 30.3945 51.7592C18.3992 51.7592 8.68359 42.1 8.68359 30.1957C8.68381 18.2916 18.3994 8.6322 30.3945 8.6322Z" stroke="#F1CC6D" stroke-width="1.57895"/>
<defs>
<filter id="filter0_d_46_707" x="13.1562" y="22.6006" width="34.5312" height="9.68217" filterUnits="userSpaceOnUse" color-interpolation-filters="sRGB">
<feFlood flood-opacity="0" result="BackgroundImageFix"/>
<feColorMatrix in="SourceAlpha" type="matrix" values="0 0 0 0 0 0 0 0 0 0 0 0 0 0 0 0 0 0 127 0" result="hardAlpha"/>
<feOffset dx="0.789474" dy="0.789474"/>
<feComposite in2="hardAlpha" operator="out"/>
<feColorMatrix type="matrix" values="0 0 0 0 0 0 0 0 0 0 0 0 0 0 0 0 0 0 0.1 0"/>
<feBlend mode="normal" in2="BackgroundImageFix" result="effect1_dropShadow_46_707"/>
<feBlend mode="normal" in="SourceGraphic" in2="effect1_dropShadow_46_707" result="shape"/>
</filter>
<linearGradient id="paint0_linear_46_707" x1="47.4" y1="5.76209" x2="13.0911" y2="52.0745" gradientUnits="userSpaceOnUse">
<stop stop-color="#C28230"/>
<stop offset="0.323444" stop-color="#F7D574"/>
<stop offset="0.785679" stop-color="#C4882D"/>
<stop offset="0.89284" stop-color="#D29D3F"/>
<stop offset="1" stop-color="#E0B251"/>
</linearGradient>
</defs>
</svg>
