<svg width="174" height="32" viewBox="0 0 174 32" fill="none" xmlns="http://www.w3.org/2000/svg">
<g clip-path="url(#clip0_49_2137)">
<mask id="mask0_49_2137" style="mask-type:luminance" maskUnits="userSpaceOnUse" x="0" y="0" width="174" height="32">
<path d="M174 0H0V32H174V0Z" fill="white"/>
</mask>
<g mask="url(#mask0_49_2137)">
<path d="M164.41 4.63158C164.41 3.78948 164.623 3.05263 165.049 2.31579C165.476 1.57895 166.009 1.05263 166.754 0.631579C167.5 0.210526 168.353 0 169.205 0C170.057 0 170.909 0.210526 171.656 0.631579C172.402 1.05263 172.934 1.57895 173.361 2.31579C173.787 3.05263 174 3.78948 174 4.63158C174 5.47368 173.787 6.21052 173.361 6.94737C172.934 7.68421 172.402 8.21052 171.656 8.63158C170.909 9.05262 170.057 9.2632 169.205 9.2632C168.353 9.2632 167.5 9.05262 166.754 8.63158C166.009 8.21052 165.476 7.68421 165.049 6.94737C164.623 6.21052 164.41 5.47368 164.41 4.63158ZM165.263 4.63158C165.263 5.36842 165.476 6 165.795 6.63158C166.115 7.26315 166.648 7.68421 167.287 8C167.926 8.31579 168.565 8.52632 169.312 8.52632C170.057 8.52632 170.697 8.31579 171.336 8C171.975 7.68421 172.402 7.15789 172.828 6.63158C173.147 6 173.361 5.36842 173.361 4.63158C173.361 3.89474 173.147 3.26316 172.828 2.63158C172.508 2 171.975 1.57895 171.336 1.26316C170.697 0.947369 170.057 0.736842 169.312 0.736842C168.565 0.736842 167.926 0.947369 167.287 1.26316C166.648 1.57895 166.221 2.10526 165.795 2.63158C165.369 3.26316 165.263 3.89474 165.263 4.63158ZM168.246 5.05263V7.15789H167.287V1.89474H169.205C169.845 1.89474 170.378 2 170.803 2.31579C171.23 2.63158 171.336 2.94737 171.336 3.47368C171.336 4 171.017 4.31579 170.484 4.63158C171.017 4.84211 171.336 5.26315 171.336 5.89474V6.31579C171.336 6.63158 171.336 6.94737 171.442 7.05263V7.15789H170.484C170.378 7.05263 170.378 6.73684 170.378 6.31579C170.378 5.89474 170.378 5.68421 170.378 5.68421C170.27 5.26316 170.057 5.05263 169.525 5.05263H168.246ZM168.246 4.31579H169.312C169.631 4.31579 169.845 4.21052 170.057 4.10526C170.27 4 170.378 3.78948 170.378 3.57895C170.378 3.26316 170.27 3.05263 170.164 2.94737C169.951 2.84211 169.631 2.73684 169.205 2.73684H168.246V4.31579Z" fill="#041C2C"/>
<path d="M25.0397 1.47368C25.4659 0.842105 25.0397 0 24.2939 0H17.0483H13.8517H11.5076C8.63065 0 6.49961 0.736843 4.90133 2.10526C3.30304 3.47369 2.34407 5.47369 2.13096 8.10526L1.49165 14.9474C1.27855 17.5789 1.8113 19.5789 3.19649 20.9474C4.58166 22.3158 6.60616 23.0526 9.26993 23.0526H12.2534C12.7862 22.9474 13.1059 22.6316 13.2124 22L13.532 18.6316C13.6386 18 13.1059 17.5789 12.4666 17.5789H10.8682C9.80275 17.5789 9.0569 17.3684 8.63066 16.9474C8.20445 16.5263 8.0979 15.7895 8.0979 14.6316L8.63066 8.42106C8.73721 7.36842 9.0569 6.63158 9.48306 6.21052C10.0159 5.78948 10.7617 5.57895 11.8272 5.57895H13.2124H15.3434H20.5645C21.6301 5.57895 22.589 5.05263 23.2283 4.21052L25.0397 1.47368Z" fill="#00B373"/>
<path d="M0.213261 30.5262C-0.212948 31.1578 0.213261 31.9999 0.959128 31.9999H8.4178H11.6143H13.9586C16.7288 31.9999 18.8599 31.263 20.4582 29.8946C22.0565 28.5262 23.0155 26.5262 23.2286 23.8946L23.8679 17.0525C24.081 14.421 23.5482 12.421 22.1631 11.0525C20.7778 9.68407 18.7534 8.94727 16.0896 8.94727H13.1061C12.5733 9.05251 12.2537 9.36833 12.1471 9.99989L11.8275 13.3683C11.7209 13.9999 12.2537 14.421 12.893 14.421H14.5978C15.6634 14.421 16.4092 14.6314 16.8354 15.0525C17.2617 15.4736 17.3682 16.2104 17.3682 17.263L16.8354 23.3683C16.7288 24.421 16.4092 25.1578 15.983 25.5788C15.4503 25.9999 14.7044 26.2104 13.6389 26.2104H12.2537H10.1226H4.58191C3.51639 26.2104 2.55741 26.7367 1.9181 27.5788L0.213261 30.5262Z" fill="#00AF73"/>
<path d="M44.6453 32H27.81C27.0641 32 26.7445 31.6842 26.851 30.9474L29.5148 1.05263C29.6214 0.315789 29.9411 0 30.6869 0H47.5222C48.1615 0 48.4812 0.315789 48.4812 1.05263L48.1615 4.42105C48.0549 5.15789 47.7353 5.47368 46.9895 5.47368H36.2276C35.8015 5.47368 35.5883 5.68421 35.5883 6L35.0556 12.4211C35.0556 12.7368 35.1622 12.9474 35.5883 12.9474H44.4322C45.1781 12.9474 45.4977 13.2632 45.3911 14L45.0715 17.3684C44.965 18.1052 44.6453 18.4211 43.8994 18.4211H35.0556C34.6293 18.4211 34.4162 18.6316 34.4162 18.9474L33.7769 25.8948C33.7769 26.2105 33.8835 26.4211 34.3098 26.4211H45.0715C45.7108 26.4211 46.0305 26.7368 46.0305 27.4737L45.8174 30.9474C45.7108 31.6842 45.2846 32 44.6453 32Z" fill="#041C2C"/>
<path d="M62.866 32H57.2187C54.4483 32 52.4238 31.2632 51.1452 29.8948C49.76 28.5263 49.2273 26.5263 49.4404 23.8948L50.8255 8.10526C51.1452 5.47368 51.9976 3.47368 53.5959 2.10526C55.1942 0.736842 57.3253 0 60.0956 0H65.7429C68.4067 0 70.4312 0.736842 71.8163 2.10526C73.2016 3.47368 73.7343 5.47368 73.5212 8.10526L73.3081 10.4211C73.2016 11.1579 72.8819 11.4737 72.0295 11.4737H67.6608C66.9149 11.4737 66.5953 11.1579 66.7018 10.4211L66.9149 8.42105C67.0215 7.36842 66.8084 6.63158 66.3822 6.21052C65.956 5.78948 65.2101 5.57895 64.1446 5.57895H60.6284C59.5629 5.57895 58.817 5.78948 58.2842 6.21052C57.7515 6.63158 57.5383 7.36842 57.4318 8.42105L56.0466 23.5789C55.9401 24.6316 56.1532 25.3684 56.5793 25.7895C57.0056 26.2105 57.7515 26.4211 58.817 26.4211H62.3332C63.3987 26.4211 64.2511 26.2105 64.7839 25.7895C65.3167 25.3684 65.6364 24.6316 65.6364 23.5789L65.8494 21.5789C65.956 20.8421 66.2757 20.5263 67.0215 20.5263H71.3902C72.136 20.5263 72.4557 20.8421 72.4557 21.5789L72.2426 23.8948C72.0295 26.5263 71.0705 28.5263 69.4722 29.8948C67.6608 31.2632 65.5298 32 62.866 32Z" fill="#041C2C"/>
<path d="M86.8406 32H82.4719C81.7261 32 81.4065 31.6842 81.4065 30.9474L83.644 6C83.644 5.68421 83.5375 5.47368 83.1113 5.47368H77.2508C76.505 5.47368 76.1854 5.15789 76.292 4.42105L76.6116 1.05263C76.7181 0.315789 77.1444 0 77.7837 0H97.2826C98.0282 0 98.3482 0.315789 98.2418 1.05263L98.0282 4.42105C97.9218 5.15789 97.6026 5.47368 96.8561 5.47368H90.996C90.5696 5.47368 90.3568 5.68421 90.3568 6L88.1193 30.9474C87.9061 31.6842 87.5865 32 86.8406 32Z" fill="#041C2C"/>
<path d="M108.257 1.05263L105.487 30.9474C105.38 31.6842 105.061 32 104.315 32H99.9465C99.2 32 98.8808 31.6842 98.9872 30.9474L101.651 1.05263C101.758 0.315789 102.078 0 102.823 0H107.192C107.938 0 108.257 0.315789 108.257 1.05263Z" fill="#041C2C"/>
<path d="M146.083 26.5263H149.706C150.771 26.5263 151.624 26.3158 152.157 25.8948C152.69 25.4737 153.009 24.7368 153.009 23.6842L154.501 8.42105C154.608 7.36842 154.395 6.63158 153.968 6.21052C153.542 5.78948 152.796 5.57895 151.731 5.57895H148.108C147.043 5.57895 146.19 5.78948 145.763 6.21052C145.231 6.63158 145.018 7.36842 144.911 8.42105L143.527 23.5789C143.419 24.6316 143.633 25.3684 143.952 25.7895C144.272 26.3158 145.018 26.5263 146.083 26.5263ZM150.346 32H144.591C141.822 32 139.797 31.2632 138.518 29.8948C137.133 28.5263 136.6 26.5263 136.814 23.8948L138.198 8.10526C138.412 5.47368 139.37 3.47368 140.969 2.10526C142.567 0.736842 144.699 0 147.468 0H153.223C155.992 0 158.017 0.736842 159.296 2.10526C160.681 3.47368 161.214 5.47368 161.001 8.10526L159.616 23.8948C159.402 26.5263 158.444 28.5263 156.845 29.8948C155.247 31.3684 153.116 32 150.346 32Z" fill="#041C2C"/>
<path d="M128.396 10.7368H132.765C133.51 10.7368 133.937 10.421 133.937 9.68415L134.043 8.21049C134.256 5.57891 133.723 3.57891 132.338 2.21049C130.953 0.842066 128.929 0.105225 126.265 0.105225H120.831C118.06 0.105225 115.929 0.842066 114.331 2.21049C112.732 3.57891 111.774 5.57891 111.56 8.21049L110.175 24C109.962 26.6315 110.495 28.6315 111.88 30C113.265 31.3684 115.29 32.1052 117.954 32.1052H123.388C126.052 32.1052 128.182 31.3684 129.781 30C131.379 28.6315 132.338 26.6315 132.551 24L133.297 15.6841C133.404 14.9473 132.978 14.5263 132.232 14.5263H123.175H122.003C121.15 14.5263 120.617 15.3684 120.937 16L122.216 18.6315C122.642 19.4737 123.6 20 124.56 20H125.732C126.158 20 126.265 20.2105 126.265 20.5263L125.945 23.6841C125.838 24.7368 125.519 25.4737 125.093 26C124.56 26.421 123.814 26.6315 122.749 26.6315H119.339C118.273 26.6315 117.528 26.421 117.101 26C116.675 25.5789 116.568 24.8421 116.568 23.6841L118.167 8.42101C118.273 7.36838 118.593 6.63154 119.019 6.21049C119.552 5.78944 120.298 5.57891 121.364 5.57891H124.773C125.838 5.57891 126.585 5.78944 127.01 6.21049C127.437 6.63154 127.543 7.36838 127.437 8.42101L127.33 9.57891C127.33 10.3158 127.65 10.7368 128.396 10.7368Z" fill="#041C2C"/>
</g>
</g>
<defs>
<clipPath id="clip0_49_2137">
<rect width="174" height="32" fill="white"/>
</clipPath>
</defs>
</svg>
