<svg width="200" height="62" viewBox="0 0 200 62" fill="none" xmlns="http://www.w3.org/2000/svg">
<path d="M90.7375 18.127C89.5779 17.4858 88.0124 17.0778 86.1571 17.0778C81.8086 17.0778 79.1416 19.1178 78.0979 19.9921L79.6634 10.6663H73.4596L69.1691 36.2542H75.3729L77.7501 22.3236C79.3155 21.0996 81.1709 20.1087 83.2581 20.1087C84.3018 20.1087 85.2294 20.4584 85.8672 20.983C87.0268 21.9739 86.7949 23.5476 86.505 25.238L84.6496 36.2542H90.8534L92.9407 23.9556C93.1146 22.3236 93.5785 19.7007 90.7375 18.127ZM107.146 16.8447C100.072 16.8447 97.695 20.0504 96.3615 21.799L97.811 22.4402C98.9126 21.4493 100.884 19.7007 104.827 19.7007C106.624 19.7007 109.175 20.167 109.929 22.1488C110.219 22.9065 110.219 23.7225 110.161 24.5385L109.233 30.3089L108.885 32.4655C107.552 33.1067 105.986 33.8061 103.783 33.8061C100.652 33.8061 99.7823 32.1158 100.072 30.4838C100.478 28.1523 103.087 26.9866 105.812 26.9866C106.682 26.9866 107.378 27.1031 108.015 27.2197L108.479 24.5385C107.32 24.3054 106.16 24.1305 104.653 24.1305C99.0865 24.1305 94.2162 26.5203 93.4625 30.7752C92.8827 34.0975 95.5498 36.7205 100.362 36.7205C104.769 36.7205 107.436 34.9136 108.595 34.0975L108.247 36.1959H114.219L116.133 25.0048C116.422 23.3145 116.77 20.8664 114.799 19.0013C113.639 17.8938 111.204 16.8447 107.146 16.8447ZM161.415 34.6221C160.951 34.6221 159.095 34.6221 158.226 32.9901C157.878 32.3489 157.704 31.5912 157.994 30.0758L159.443 21.6242H166.227L166.865 17.6607H160.081L160.951 12.648H154.747L153.877 17.6607H147.384L141.759 26.9283L140.774 28.6769C140.426 27.686 140.426 27.5111 140.078 26.6368L136.831 17.6607H134.802L126.743 28.6186C126.569 27.686 126.511 27.5111 126.337 26.6368L123.96 17.6607H117.466L123.148 36.3707H125.409L133.526 25.5877L137.991 36.3707H140.252L149.819 21.6242H153.239L151.674 30.8335C151.384 32.4655 151.384 34.0975 152.834 35.3799C154.399 36.7787 156.834 36.8953 157.994 36.8953C161.067 36.8953 162.864 36.0793 164.372 35.4381L163.85 34.2724C163.096 34.4473 162.4 34.6221 161.415 34.6221ZM174.228 24.5968C174.17 24.7134 173.938 25.1214 173.764 26.3454C173.706 26.8117 173.648 27.1614 173.648 27.4529H190.172C190.462 25.4128 190.984 21.9739 188.143 19.351C185.65 17.0778 181.939 16.8447 179.91 16.8447C171.503 16.8447 166.285 21.2745 165.357 26.6951C164.372 32.4072 168.14 37.0119 176.721 37.0119C184.896 37.0119 187.447 33.2232 188.839 31.1832L187.389 30.6003C185.476 32.2324 183.447 33.9227 179.156 33.9227C172.837 33.9227 172.025 30.1923 171.909 28.2106C171.851 28.1523 171.793 27.7443 171.967 26.462C172.199 25.1214 172.431 24.6551 172.489 24.5385C173.474 22.3819 174.808 19.8756 179.272 19.8756C183.911 19.8756 183.911 22.9065 183.911 24.5968H174.228ZM64.0669 12.648H57.8631L54.7902 30.8335C54.5003 32.4655 54.5003 34.0975 55.9497 35.3799C57.5152 36.7787 59.9503 36.8953 61.1099 36.8953C64.1828 36.8953 65.9802 36.0793 67.4877 35.4381L66.9659 34.2724C66.2121 34.4473 65.5164 34.6221 64.5307 34.6221C64.0669 34.6221 62.2115 34.6221 61.3418 32.9901C60.994 32.3489 60.82 31.5912 61.1099 30.0758L62.5594 21.6242H67.5457L68.1834 17.719H63.1972L64.0669 12.648Z" fill="#225A93"/>
<path d="M23.7136 0C10.6103 0 0 10.6665 0 23.781C0 36.8955 10.6103 47.562 23.6557 47.562C36.7011 47.562 47.3113 36.8955 47.3113 23.781C47.3113 10.6665 36.759 0 23.7136 0ZM23.7136 42.8408C13.2193 42.8408 4.75432 34.3309 4.75432 23.781C4.75432 13.2311 13.2193 4.72123 23.7136 4.72123C34.2079 4.72123 42.673 13.2311 42.673 23.781C42.673 34.3309 34.15 42.8408 23.7136 42.8408ZM25.9748 12.1819H19.771L16.6981 30.3674C16.4082 31.9994 16.4082 33.6315 17.8577 34.9138C19.4232 36.3127 21.8583 36.4292 23.0179 36.4292C26.0908 36.4292 27.8882 35.6132 29.3956 34.9721L28.8738 33.8063C28.1201 33.9812 27.4243 34.156 26.4387 34.156C25.9748 34.156 24.1195 34.1561 23.2498 32.524C22.9019 31.8829 22.728 31.1251 23.0179 29.6097L24.4674 21.1581H29.4536L30.0914 17.2529H25.1051L25.9748 12.1819Z" fill="#C82A2F"/>
<path d="M193.303 14.3386H191.738V18.3604H190.462V14.3386H188.897V13.406H193.303V14.3386ZM199.275 18.4187H198V15.038L197.072 17.1946H196.202L195.275 15.038V18.4187H194.057V13.406H195.565L196.666 15.9123L197.768 13.406H199.275V18.4187Z" fill="#225A93"/>
<path d="M137.354 53.7408C137.354 52.4002 137.702 51.351 138.398 50.5933C139.093 49.7773 140.021 49.4276 141.123 49.4276C141.471 49.4276 141.818 49.4859 142.108 49.5442C142.398 49.6607 142.63 49.719 142.862 49.8939C143.036 50.0104 143.21 50.1853 143.326 50.3019C143.442 50.4185 143.558 50.535 143.616 50.6516L143.674 50.7682H143.732C143.732 50.5933 143.674 50.4185 143.674 50.1853V46.3384H145.239V57.9957H143.732V57.1214V56.5386H143.674C143.674 56.5969 143.616 56.6551 143.558 56.7134C143.5 56.7717 143.442 56.8883 143.268 57.0631C143.094 57.238 142.978 57.4129 142.746 57.5294C142.572 57.646 142.282 57.7626 141.992 57.8792C141.644 57.9957 141.297 58.054 140.949 58.054C139.847 58.054 138.919 57.646 138.282 56.83C137.702 56.1306 137.354 55.0231 137.354 53.7408ZM138.977 53.7408C138.977 54.6151 139.209 55.3728 139.615 55.8974C140.021 56.422 140.601 56.7134 141.297 56.7134C141.992 56.7134 142.514 56.4803 142.978 55.9557C143.442 55.4311 143.674 54.7317 143.674 53.6825C143.674 52.8665 143.442 52.1671 143.036 51.5842C142.63 51.0013 142.05 50.7099 141.297 50.7099C140.601 50.7099 140.079 51.0013 139.615 51.5259C139.209 52.1088 138.977 52.8082 138.977 53.7408Z" fill="#2E74BC"/>
<path d="M146.63 47.9118V46.2798H148.254V47.9118H146.63ZM146.63 57.9371V49.5438H148.196V57.8789H146.63V57.9371Z" fill="#2E74BC"/>
<path d="M150.631 59.4523C151.327 59.802 152.08 60.0352 152.892 60.0352C153.704 60.0352 154.284 59.8603 154.805 59.4523C155.269 59.0443 155.501 58.4615 155.501 57.7037V57.1209V56.5963H155.443C154.921 57.4706 154.11 57.8786 153.008 57.8786C151.906 57.8786 150.979 57.4706 150.283 56.6546C149.587 55.8385 149.297 54.8477 149.297 53.6236C149.297 52.3996 149.645 51.4088 150.283 50.5927C150.921 49.835 151.79 49.427 152.95 49.427C153.298 49.427 153.646 49.4853 153.994 49.5436C154.284 49.6019 154.573 49.7184 154.747 49.835C154.921 49.9516 155.095 50.0682 155.211 50.1847C155.327 50.3013 155.443 50.4179 155.501 50.4762L155.559 50.5927H155.617C155.617 50.5345 155.617 50.4179 155.617 50.3013V49.5436H157.125V57.5289C157.125 58.17 157.009 58.7529 156.777 59.2775C156.545 59.802 156.197 60.1518 155.791 60.4432C155.385 60.7346 154.921 60.9678 154.458 61.0844C153.994 61.2009 153.472 61.3175 152.892 61.3175C151.906 61.3175 150.979 61.0844 150.051 60.6181L150.631 59.4523ZM153.356 56.4214C153.994 56.4214 154.516 56.1883 154.921 55.722C155.327 55.2557 155.559 54.5562 155.559 53.5071C155.559 51.6419 154.805 50.7093 153.24 50.7093C152.544 50.7093 151.964 50.9425 151.559 51.467C151.153 51.9333 150.979 52.6328 150.979 53.5071C150.979 54.3814 151.211 55.0808 151.617 55.6054C152.022 56.1883 152.602 56.4214 153.356 56.4214Z" fill="#2E74BC"/>
<path d="M158.458 47.9118V46.2798H160.081V47.9118H158.458ZM158.458 57.9371V49.5438H160.023V57.8789H158.458V57.9371Z" fill="#2E74BC"/>
<path d="M161.183 53.7402C161.183 52.5162 161.589 51.467 162.459 50.651C163.27 49.835 164.372 49.427 165.648 49.427C166.285 49.427 166.807 49.5436 167.329 49.7184C167.851 49.8933 168.199 50.1264 168.431 50.3596L168.72 50.651L167.967 51.7585C167.909 51.7002 167.793 51.5836 167.677 51.467C167.561 51.3505 167.271 51.2339 166.865 51.059C166.459 50.8842 166.053 50.7676 165.648 50.7676C164.836 50.7676 164.14 51.059 163.56 51.5836C163.038 52.1665 162.749 52.8659 162.749 53.6819C162.749 54.5562 163.038 55.2557 163.56 55.8385C164.14 56.4214 164.836 56.7129 165.648 56.7129C166.111 56.7129 166.575 56.5963 166.981 56.4214C167.387 56.2466 167.735 56.0717 167.909 55.8385L168.199 55.5471L168.836 56.7129C168.778 56.7711 168.778 56.7711 168.72 56.8294C168.662 56.8877 168.547 57.0043 168.315 57.1791C168.083 57.354 167.909 57.4706 167.619 57.5872C167.387 57.7037 167.097 57.8203 166.691 57.9369C166.343 58.0534 165.937 58.1117 165.532 58.1117C164.256 58.1117 163.154 57.7037 162.343 56.8877C161.589 56.0717 161.183 55.0225 161.183 53.7402Z" fill="#2E74BC"/>
<path d="M169.126 53.7404C169.126 52.4581 169.532 51.3507 170.286 50.5929C171.04 49.7769 172.083 49.3689 173.243 49.3689C174.345 49.3689 175.272 49.7186 175.91 50.4763C176.548 51.2341 176.838 52.1667 176.838 53.2741L176.78 53.9736H170.75C170.808 54.8479 171.098 55.5473 171.62 56.0136C172.141 56.4799 172.837 56.713 173.591 56.713C173.997 56.713 174.461 56.6547 174.866 56.4799C175.272 56.305 175.562 56.1302 175.794 56.0136L176.084 55.7804L176.722 56.9462C176.606 57.0628 176.49 57.121 176.316 57.2959C176.142 57.4125 175.794 57.5873 175.214 57.8205C174.635 58.0536 174.055 58.1702 173.475 58.1702C172.199 58.1702 171.156 57.7622 170.286 56.9462C169.532 56.0136 169.126 54.9644 169.126 53.7404ZM170.866 52.7495H175.272C175.272 52.0501 175.04 51.5255 174.692 51.1758C174.345 50.8261 173.823 50.6512 173.301 50.6512C172.663 50.6512 172.141 50.8261 171.678 51.2341C171.214 51.5838 170.924 52.1084 170.866 52.7495Z" fill="#2E74BC"/>
<path d="M178.056 57.9369V49.5436H179.621V51.0008L179.563 51.642H179.621C179.795 51.0008 180.143 50.4762 180.607 50.0682C181.071 49.6602 181.592 49.4854 182.23 49.4854L182.636 49.5436V51.1174C182.52 51.0591 182.346 51.0591 182.172 51.0591C181.65 51.0591 181.187 51.234 180.781 51.5837C180.375 51.9334 180.027 52.3997 179.853 53.0408C179.737 53.4489 179.679 53.9734 179.679 54.5563V57.9952H178.056V57.9369Z" fill="#2E74BC"/>
<path d="M184.665 54.8478V50.9426H183.563V49.6603H184.723V47.2705H186.289V49.6603H188.26V50.9426H186.289V54.6729C186.289 54.9644 186.346 55.2558 186.404 55.4889C186.52 55.7221 186.578 55.897 186.752 56.0135C186.868 56.1301 187.042 56.2467 187.216 56.305C187.39 56.3632 187.564 56.4215 187.68 56.4798C187.796 56.4798 187.97 56.5381 188.086 56.5381L188.434 56.4798V57.8787C188.26 57.8787 188.086 57.937 187.854 57.937C187.564 57.937 187.332 57.937 187.1 57.8787C186.868 57.8204 186.578 57.7621 186.289 57.6456C185.999 57.529 185.709 57.3541 185.477 57.121C185.245 56.8878 185.071 56.5964 184.897 56.1884C184.723 55.8387 184.665 55.3724 184.665 54.8478Z" fill="#2E74BC"/>
<path d="M189.245 46.2798C188.608 46.2798 188.028 46.8044 188.028 47.5038C188.028 48.145 188.55 48.7278 189.245 48.7278C189.883 48.7278 190.463 48.2032 190.463 47.5038C190.463 46.8044 189.941 46.2798 189.245 46.2798ZM189.245 48.4364C188.724 48.4364 188.26 48.0284 188.26 47.4455C188.26 46.9209 188.666 46.4546 189.245 46.4546C189.767 46.4546 190.231 46.8627 190.231 47.4455C190.231 47.9701 189.767 48.4364 189.245 48.4364Z" fill="#2E74BC"/>
<path d="M188.84 48.1448V46.8042H189.246C189.362 46.8042 189.42 46.8042 189.478 46.8625C189.536 46.8625 189.594 46.9208 189.652 46.9791C189.71 47.0373 189.71 47.0956 189.71 47.2122C189.71 47.2705 189.71 47.3871 189.652 47.4454C189.594 47.5036 189.536 47.5619 189.478 47.5619C189.478 47.5619 189.478 47.6202 189.536 47.6202L189.825 48.1448H189.594L189.304 47.6202H189.014V48.1448H188.84ZM189.014 47.4454H189.304C189.362 47.4454 189.42 47.4454 189.478 47.3871C189.536 47.3288 189.536 47.2705 189.536 47.2122C189.536 47.0956 189.478 47.0373 189.42 46.9791C189.362 46.9791 189.304 46.9208 189.246 46.9208H189.014V47.4454Z" fill="#2E74BC"/>
<path d="M61.6315 53.9736C61.6315 55.1976 61.3416 56.2468 60.7618 57.0045C60.182 57.7623 59.4283 58.1703 58.4426 58.1703C57.457 58.1703 56.6453 57.8788 56.1234 57.2377V61.2012H54.7319V49.777H56.0075L56.0655 50.7096C56.6453 50.0101 57.399 49.6604 58.4426 49.6604C59.4283 49.6604 60.182 50.0101 60.7618 50.7679C61.3416 51.5256 61.6315 52.5747 61.6315 53.8571V53.9736ZM60.24 53.7988C60.24 52.8662 60.0661 52.1667 59.6602 51.5839C59.2543 51.001 58.7325 50.7679 58.0368 50.7679C57.1671 50.7679 56.5293 51.1176 56.1234 51.8753V55.7805C56.5293 56.5382 57.1671 56.888 58.0368 56.888C58.7325 56.888 59.2543 56.5965 59.6602 56.0719C60.0081 55.6639 60.24 54.8479 60.24 53.7988Z" fill="#727E84"/>
<path d="M62.9658 53.7985C62.9658 52.9824 63.1398 52.283 63.4296 51.6418C63.7195 51.0007 64.1834 50.4761 64.7632 50.1264C65.343 49.7767 65.9808 49.6018 66.6765 49.6018C67.7781 49.6018 68.7058 50.0098 69.4015 50.7675C70.0973 51.5253 70.4452 52.5744 70.4452 53.8567V53.9733C70.4452 54.7893 70.2712 55.4888 69.9813 56.1299C69.6914 56.7711 69.2276 57.2374 68.6478 57.5871C68.068 57.9368 67.4302 58.1117 66.6765 58.1117C65.5749 58.1117 64.6472 57.7037 64.0094 56.9459C63.3137 56.1882 62.9658 55.1391 62.9658 53.8567V53.7985ZM64.3573 53.9733C64.3573 54.9059 64.5892 55.6053 64.9951 56.1882C65.401 56.7128 65.9808 57.0042 66.6765 57.0042C67.3723 57.0042 67.9521 56.7128 68.3579 56.1882C68.7638 55.6053 68.9957 54.8476 68.9957 53.8567C68.9957 52.9824 68.7638 52.2247 68.3579 51.6418C67.9521 51.059 67.3723 50.8258 66.6765 50.8258C65.9808 50.8258 65.401 51.1173 64.9951 51.6418C64.5313 52.1664 64.3573 52.9242 64.3573 53.9733Z" fill="#727E84"/>
<path d="M79.3156 56.0718L80.8811 49.7769H82.2726L79.8954 57.9953H78.7358L76.7645 51.7586L74.8512 57.9953H73.6916L71.3145 49.7769H72.706L74.3294 55.9553L76.2427 49.7769H77.3443L79.3156 56.0718Z" fill="#727E84"/>
<path d="M87.027 58.112C85.9254 58.112 84.9977 57.7623 84.3019 57.0045C83.6062 56.2468 83.2583 55.3142 83.2583 54.0902V53.8571C83.2583 53.041 83.4322 52.3416 83.7221 51.7004C84.012 51.0593 84.4759 50.5347 84.9977 50.185C85.5775 49.8353 86.1573 49.6604 86.795 49.6604C87.8387 49.6604 88.7084 50.0101 89.2882 50.7096C89.868 51.409 90.1579 52.3999 90.1579 53.7405V54.3233H84.6498C84.6498 55.1394 84.8817 55.7805 85.3456 56.3051C85.8094 56.8297 86.3892 57.0628 87.0849 57.0628C87.6068 57.0628 88.0126 56.9463 88.3605 56.7714C88.7084 56.5965 88.9983 56.3051 89.2882 55.9554L90.1579 56.5965C89.4041 57.5874 88.3605 58.112 87.027 58.112ZM86.853 50.7679C86.2732 50.7679 85.8094 51.001 85.4035 51.409C84.9977 51.817 84.7658 52.3999 84.7078 53.1576H88.8243V53.041C88.7664 52.3416 88.5924 51.7587 88.2445 51.409C87.8967 50.9427 87.4328 50.7679 86.853 50.7679Z" fill="#727E84"/>
<path d="M95.6653 51.0007C95.4333 50.9424 95.2014 50.9424 94.9695 50.9424C94.0418 50.9424 93.4041 51.3504 93.1142 52.1081V57.9368H91.7227V49.7767H93.0562V50.7093C93.52 49.9515 94.1578 49.6018 95.0275 49.6018C95.3174 49.6018 95.4913 49.6601 95.6653 49.7184V51.0007Z" fill="#727E84"/>
<path d="M100.131 58.112C99.0294 58.112 98.1017 57.7623 97.4059 57.0045C96.7102 56.2468 96.3623 55.3142 96.3623 54.0902V53.8571C96.3623 53.041 96.5362 52.3416 96.8261 51.7004C97.116 51.0593 97.5799 50.5347 98.1017 50.185C98.6815 49.8353 99.2613 49.6604 99.8991 49.6604C100.943 49.6604 101.812 50.0101 102.392 50.7096C102.972 51.409 103.262 52.3999 103.262 53.7405V54.3233H97.6958C97.6958 55.1394 97.9278 55.7805 98.3916 56.3051C98.8554 56.8297 99.4352 57.0628 100.131 57.0628C100.653 57.0628 101.059 56.9463 101.407 56.7714C101.754 56.5965 102.044 56.3051 102.334 55.9554L103.204 56.5965C102.566 57.5874 101.522 58.112 100.131 58.112ZM99.957 50.7679C99.3772 50.7679 98.9134 51.001 98.5075 51.409C98.1017 51.817 97.8698 52.3999 97.8118 53.1576H101.928V53.041C101.87 52.3416 101.696 51.7587 101.349 51.409C101.001 51.0593 100.537 50.7679 99.957 50.7679Z" fill="#727E84"/>
<path d="M104.537 53.7988C104.537 52.5165 104.827 51.5256 105.406 50.7679C105.986 50.0101 106.798 49.6021 107.725 49.6021C108.711 49.6021 109.465 49.9519 109.987 50.593V46.2798H111.378V57.9371H110.161L110.103 57.0628C109.523 57.7623 108.769 58.112 107.783 58.112C106.856 58.112 106.044 57.704 105.464 56.9463C104.884 56.1885 104.595 55.1394 104.595 53.9154V53.7988H104.537ZM105.928 53.9736C105.928 54.9062 106.102 55.664 106.508 56.1885C106.914 56.7131 107.436 57.0046 108.073 57.0046C108.943 57.0046 109.581 56.5965 109.987 55.7805V51.9919C109.581 51.2342 108.943 50.8262 108.073 50.8262C107.378 50.8262 106.856 51.1176 106.45 51.6422C106.102 52.1085 105.928 52.9245 105.928 53.9736Z" fill="#727E84"/>
<path d="M124.192 53.9737C124.192 55.256 123.902 56.2469 123.322 57.0046C122.743 57.7623 121.989 58.1704 121.003 58.1704C119.96 58.1704 119.148 57.8206 118.626 57.0629L118.568 57.9955H117.292V46.3381H118.684V50.7096C119.264 50.0102 120.018 49.6605 121.003 49.6605C121.989 49.6605 122.801 50.0102 123.322 50.7679C123.902 51.5257 124.192 52.5748 124.192 53.8571V53.9737ZM122.801 53.7988C122.801 52.8663 122.627 52.1085 122.221 51.5839C121.873 51.0594 121.351 50.8262 120.655 50.8262C119.728 50.8262 119.09 51.2342 118.684 52.1085V55.664C119.09 56.5383 119.786 56.9463 120.713 56.9463C121.409 56.9463 121.931 56.7132 122.279 56.1886C122.627 55.664 122.801 54.848 122.801 53.7988Z" fill="#727E84"/>
<path d="M128.482 55.8971L130.395 49.7188H131.903L128.598 59.2195C128.076 60.5601 127.264 61.2595 126.163 61.2595H125.873L125.351 61.143V59.9772L125.757 60.0355C126.221 60.0355 126.627 59.9189 126.859 59.7441C127.148 59.5692 127.322 59.2195 127.496 58.6949L127.786 57.8789L124.887 49.777H126.395L128.482 55.8971Z" fill="#727E84"/>
</svg>
